<?xml version="1.0" encoding="UTF-8" standalone="no"?>
<svg
   xmlns:dc="http://purl.org/dc/elements/1.1/"
   xmlns:cc="http://creativecommons.org/ns#"
   xmlns:rdf="http://www.w3.org/1999/02/22-rdf-syntax-ns#"
   xmlns:svg="http://www.w3.org/2000/svg"
   xmlns="http://www.w3.org/2000/svg"
   viewBox="0 0 633.27997 656"
   height="656"
   width="633.27997"
   xml:space="preserve"
   id="svg2"
   version="1.1"><metadata
     id="metadata8"><rdf:RDF><cc:Work
         rdf:about=""><dc:format>image/svg+xml</dc:format><dc:type
           rdf:resource="http://purl.org/dc/dcmitype/StillImage" /></cc:Work></rdf:RDF></metadata><defs
     id="defs6"><clipPath
       id="clipPath18"
       clipPathUnits="userSpaceOnUse"><path
         style="clip-rule:evenodd"
         id="path16"
         d="M 0,0 H 1979.1666 V 2047.8444 H 0 Z" /></clipPath><clipPath
       id="clipPath30"
       clipPathUnits="userSpaceOnUse"><path
         style="clip-rule:evenodd"
         id="path28"
         d="M 0,0 H 1979.1666 V 2047.8444 H 0 Z" /></clipPath><clipPath
       id="clipPath42"
       clipPathUnits="userSpaceOnUse"><path
         style="clip-rule:evenodd"
         id="path40"
         d="M 0,0 H 1979.1666 V 2047.8444 H 0 Z" /></clipPath><clipPath
       id="clipPath54"
       clipPathUnits="userSpaceOnUse"><path
         id="path52"
         d="M 0,0 H 1979.1666 V 2047.8444 H 0 Z" /></clipPath><clipPath
       id="clipPath60"
       clipPathUnits="userSpaceOnUse"><path
         id="path58"
         d="M 0,0 H 1979.1666 V 2047.8444 H 0 Z" /></clipPath><clipPath
       id="clipPath66"
       clipPathUnits="userSpaceOnUse"><path
         id="path64"
         d="M 122.12144,248.01932 H 630.59123 V 592.85901 H 122.12144 Z" /></clipPath><clipPath
       id="clipPath72"
       clipPathUnits="userSpaceOnUse"><path
         id="path70"
         d="M 122.12144,523.89105 V 316.98724 c 0,-4.5285 0.44189,-9.01349 1.32569,-13.45498 0.8838,-4.4415 2.19253,-8.75412 3.92617,-12.93793 1.73363,-4.18381 3.85889,-8.15836 6.37575,-11.92368 2.51686,-3.76529 5.37697,-7.24902 8.58033,-10.45114 3.20335,-3.20211 6.68838,-6.06112 10.45512,-8.57702 3.76675,-2.5159 7.74283,-4.64035 11.92821,-6.37332 4.18538,-1.73298 8.49966,-3.04119 12.94284,-3.92466 4.44319,-0.88347 8.92988,-1.32519 13.46011,-1.32519 h 370.48139 c 4.53021,0 9.0169,0.44172 13.46008,1.32519 4.44318,0.88347 8.75745,2.19168 12.94287,3.92467 4.18536,1.73299 8.16138,3.85741 11.92816,6.37331 3.76673,2.5159 7.25177,5.37494 10.45514,8.57705 3.20331,3.20212 6.06342,6.68586 8.58026,10.45114 2.51685,3.76529 4.64209,7.73984 6.3758,11.92365 1.73364,4.18381 3.04235,8.49643 3.92614,12.9379 0.88379,4.44149 1.32569,8.92651 1.32575,13.45501 v 206.90381 c -6e-5,4.52851 -0.44196,9.01349 -1.32575,13.45496 -0.88379,4.44147 -2.1925,8.75415 -3.92614,12.93793 -1.73371,4.18377 -3.85895,8.15826 -6.3758,11.92358 -2.51684,3.76532 -5.37695,7.24902 -8.58026,10.45123 -3.20337,3.20209 -6.68841,6.0611 -10.45514,8.57697 -3.76678,2.51593 -7.7428,4.64038 -11.92816,6.37341 -4.18542,1.73297 -8.49969,3.0412 -12.94287,3.92462 -4.44318,0.88349 -8.92987,1.32526 -13.46008,1.32526 H 191.11566 c -4.53023,0 -9.01692,-0.44177 -13.46011,-1.32526 -4.44318,-0.88348 -8.75746,-2.19171 -12.94284,-3.92468 -4.18538,-1.73303 -8.16146,-3.85748 -11.92821,-6.37335 -3.76674,-2.51587 -7.25177,-5.37488 -10.45512,-8.57697 -3.20336,-3.20221 -6.06347,-6.68591 -8.58033,-10.45123 -2.51686,-3.76532 -4.64212,-7.73981 -6.37575,-11.92358 -1.73364,-4.18378 -3.04237,-8.49646 -3.92616,-12.93793 -0.88381,-4.44147 -1.3257,-8.92645 -1.3257,-13.45496 z" /></clipPath><clipPath
       id="clipPath86"
       clipPathUnits="userSpaceOnUse"><path
         style="clip-rule:evenodd"
         id="path84"
         d="M 0,0 H 1979.1666 V 2047.8444 H 0 Z" /></clipPath><clipPath
       id="clipPath112"
       clipPathUnits="userSpaceOnUse"><path
         id="path110"
         d="M 0,0 H 1979.1666 V 2047.8444 H 0 Z" /></clipPath><clipPath
       id="clipPath118"
       clipPathUnits="userSpaceOnUse"><path
         id="path116"
         d="M 0,0 H 1979.1666 V 2047.8444 H 0 Z" /></clipPath><clipPath
       id="clipPath124"
       clipPathUnits="userSpaceOnUse"><path
         id="path122"
         d="M 269.56,51.925529 H 483.14344 V 269.47793 H 269.56 Z" /></clipPath><clipPath
       id="clipPath130"
       clipPathUnits="userSpaceOnUse"><path
         id="path128"
         d="m 269.56,160.70174 c -3e-5,-7.14235 0.68396,-14.21607 2.05194,-21.22118 1.36798,-7.00511 3.39364,-13.80701 6.07702,-20.40569 2.68338,-6.59867 5.97291,-12.86733 9.86863,-18.80596 3.89569,-5.938649 8.32266,-11.433171 13.28094,-16.483571 4.95825,-5.050407 10.35254,-9.559654 16.18286,-13.527725 5.83029,-3.968071 11.98459,-7.318737 18.46286,-10.051994 6.47827,-2.733257 13.15607,-4.796585 20.03342,-6.189984 6.87729,-1.393405 13.82199,-2.090107 20.83405,-2.090107 7.01202,0 13.95669,0.696702 20.83398,2.090107 6.87732,1.393399 13.55511,3.456727 20.03342,6.189984 6.47827,2.733257 12.63256,6.083923 18.46286,10.051994 5.83029,3.968071 11.22458,8.47731 16.18286,13.527718 4.95822,5.050407 9.38519,10.544929 13.28091,16.483568 3.89566,5.93864 7.18521,12.2073 9.86862,18.80597 2.68338,6.59868 4.70908,13.40056 6.07706,20.40567 1.36801,7.00512 2.052,14.07885 2.052,21.2212 0,7.14235 -0.68399,14.21606 -2.052,21.22116 -1.36798,7.00509 -3.39368,13.80697 -6.07706,20.40565 -2.68341,6.59867 -5.97296,12.86733 -9.86868,18.80597 -3.89566,5.93865 -8.32263,11.43318 -13.28088,16.4836 -4.95825,5.05038 -10.35254,9.55961 -16.18283,13.52769 -5.83033,3.96808 -11.98462,7.31876 -18.46289,10.052 -6.47828,2.73325 -13.15607,4.79657 -20.03339,6.18998 -6.87729,1.3934 -13.82196,2.09012 -20.83398,2.09015 -7.01206,-3e-5 -13.95676,-0.69675 -20.83405,-2.09015 -6.87732,-1.39341 -13.55512,-3.45673 -20.03339,-6.18998 -6.4783,-2.73324 -12.6326,-6.08392 -18.46289,-10.05201 -5.83029,-3.96807 -11.22458,-8.4773 -16.18283,-13.5277 -4.95828,-5.0504 -9.38525,-10.54493 -13.28094,-16.48358 -3.89569,-5.93864 -7.18524,-12.2073 -9.86862,-18.80597 -2.68338,-6.59868 -4.70908,-13.40056 -6.07703,-20.40565 -1.36801,-7.0051 -2.052,-14.07881 -2.05197,-21.22116 z" /></clipPath><clipPath
       id="clipPath144"
       clipPathUnits="userSpaceOnUse"><path
         style="clip-rule:evenodd"
         id="path142"
         d="M 689.55536,834.08514 H 1298.7719 V 1241.0784 H 689.55536 Z" /></clipPath><clipPath
       id="clipPath158"
       clipPathUnits="userSpaceOnUse"><path
         style="clip-rule:evenodd"
         id="path156"
         d="M 0,0 H 1979.1666 V 2047.8444 H 0 Z" /></clipPath><clipPath
       id="clipPath200"
       clipPathUnits="userSpaceOnUse"><path
         id="path198"
         d="M 0,0 H 1979.1666 V 2047.8444 H 0 Z" /></clipPath><clipPath
       id="clipPath206"
       clipPathUnits="userSpaceOnUse"><path
         id="path204"
         d="M 0,0 H 1979.1666 V 2047.8444 H 0 Z" /></clipPath><clipPath
       id="clipPath212"
       clipPathUnits="userSpaceOnUse"><path
         id="path210"
         d="M 372.2742,588.79047 H 1669.5904 V 1932.51 H 372.2742 Z" /></clipPath><clipPath
       id="clipPath218"
       clipPathUnits="userSpaceOnUse"><path
         style="clip-rule:evenodd"
         id="path216"
         d="m 372.2742,772.43713 h 469.1304 v 85.63916 H 372.2742 m 0,-269.28582 H 1669.5903 V 1930.9807 H 372.2742" /></clipPath><clipPath
       id="clipPath230"
       clipPathUnits="userSpaceOnUse"><path
         style="clip-rule:evenodd"
         id="path228"
         d="M 0,0 H 1979.1666 V 2047.8444 H 0 Z" /></clipPath><clipPath
       id="clipPath252"
       clipPathUnits="userSpaceOnUse"><path
         style="clip-rule:evenodd"
         id="path250"
         d="m 689.55536,1481.6875 h 609.21654 v 406.9932 H 689.55536 Z" /></clipPath><clipPath
       id="clipPath266"
       clipPathUnits="userSpaceOnUse"><path
         style="clip-rule:evenodd"
         id="path264"
         d="M 0,0 H 1979.1666 V 2047.8444 H 0 Z" /></clipPath><clipPath
       id="clipPath296"
       clipPathUnits="userSpaceOnUse"><path
         id="path294"
         d="M 0,0 H 1979.1666 V 2047.8444 H 0 Z" /></clipPath><clipPath
       id="clipPath302"
       clipPathUnits="userSpaceOnUse"><path
         id="path300"
         d="M 0,0 H 1979.1666 V 2047.8444 H 0 Z" /></clipPath><clipPath
       id="clipPath308"
       clipPathUnits="userSpaceOnUse"><path
         id="path306"
         d="m 990.0614,1236.9858 h 1297.316 V 2580.7053 H 990.0614 Z" /></clipPath><clipPath
       id="clipPath314"
       clipPathUnits="userSpaceOnUse"><path
         style="clip-rule:evenodd"
         id="path312"
         d="m 990.0614,1329.3356 h 309.0304 v 44.8585 H 990.0614 m 0,-137.2083 h 1297.316 V 2579.176 H 990.0614" /></clipPath><clipPath
       id="clipPath326"
       clipPathUnits="userSpaceOnUse"><path
         style="clip-rule:evenodd"
         id="path324"
         d="M 0,0 H 1979.1666 V 2047.8444 H 0 Z" /></clipPath><clipPath
       id="clipPath344"
       clipPathUnits="userSpaceOnUse"><path
         id="path342"
         d="M 0,0 H 1979.1666 V 2047.8444 H 0 Z" /></clipPath><clipPath
       id="clipPath350"
       clipPathUnits="userSpaceOnUse"><path
         id="path348"
         d="M 0,0 H 1979.1666 V 2047.8444 H 0 Z" /></clipPath><clipPath
       id="clipPath356"
       clipPathUnits="userSpaceOnUse"><path
         id="path354"
         d="m 1358.5387,248.01932 h 508.4699 v 344.83969 h -508.4699 z" /></clipPath><clipPath
       id="clipPath362"
       clipPathUnits="userSpaceOnUse"><path
         id="path360"
         d="M 1358.5387,523.89105 V 316.98724 c -10e-5,-4.5285 0.4418,-9.01349 1.3256,-13.45498 0.8836,-4.4415 2.1923,-8.75412 3.926,-12.93793 1.7338,-4.18381 3.859,-8.15836 6.3758,-11.92368 2.517,-3.76529 5.3771,-7.24902 8.5805,-10.45114 3.2032,-3.20211 6.6883,-6.06112 10.4551,-8.57702 3.7667,-2.5159 7.7428,-4.64035 11.9282,-6.37332 4.1854,-1.73298 8.4996,-3.04119 12.9429,-3.92466 4.4432,-0.88347 8.93,-1.32519 13.4602,-1.32519 h 370.4813 c 4.5303,0 9.017,0.44172 13.4599,1.32519 4.4433,0.88347 8.7576,2.19168 12.9429,3.92467 4.1854,1.73299 8.1615,3.85741 11.9284,6.37331 3.7667,2.5159 7.2517,5.37494 10.4552,8.57705 3.2033,3.20212 6.0634,6.68586 8.5802,10.45114 2.5167,3.76529 4.6419,7.73984 6.3756,11.92365 1.7335,4.18381 3.0422,8.49643 3.926,12.9379 0.8839,4.44149 1.3259,8.92651 1.326,13.45501 v 206.90381 c -10e-5,4.52851 -0.442,9.01349 -1.3259,13.45496 -0.8839,4.44147 -2.1926,8.75415 -3.9261,12.93793 -1.7337,4.18377 -3.8589,8.15826 -6.3758,11.92358 -2.5168,3.76532 -5.3769,7.24902 -8.5803,10.45123 -3.2034,3.20209 -6.6885,6.0611 -10.4552,8.57697 -3.7667,2.51593 -7.7428,4.64038 -11.9282,6.37341 -4.1853,1.73297 -8.4995,3.0412 -12.9428,3.92462 -4.4429,0.88349 -8.9296,1.32526 -13.4599,1.32526 H 1427.533 c -4.5302,0 -9.017,-0.44177 -13.4602,-1.32526 -4.4433,-0.88348 -8.7575,-2.19171 -12.9429,-3.92468 -4.1854,-1.73303 -8.1615,-3.85748 -11.9282,-6.37335 -3.7668,-2.51587 -7.2519,-5.37488 -10.4551,-8.57697 -3.2034,-3.20221 -6.0635,-6.68591 -8.5805,-10.45123 -2.5168,-3.76532 -4.642,-7.73981 -6.3758,-11.92358 -1.7337,-4.18378 -3.0424,-8.49646 -3.926,-12.93793 -0.8838,-4.44147 -1.3257,-8.92645 -1.3256,-13.45496 z" /></clipPath><clipPath
       id="clipPath376"
       clipPathUnits="userSpaceOnUse"><path
         style="clip-rule:evenodd"
         id="path374"
         d="M 0,0 H 1979.1666 V 2047.8444 H 0 Z" /></clipPath><clipPath
       id="clipPath398"
       clipPathUnits="userSpaceOnUse"><path
         id="path396"
         d="M 0,0 H 1979.1666 V 2047.8444 H 0 Z" /></clipPath><clipPath
       id="clipPath404"
       clipPathUnits="userSpaceOnUse"><path
         id="path402"
         d="M 0,0 H 1979.1666 V 2047.8444 H 0 Z" /></clipPath><clipPath
       id="clipPath410"
       clipPathUnits="userSpaceOnUse"><path
         id="path408"
         d="m 1505.9773,51.925529 h 213.5834 V 269.47793 h -213.5834 z" /></clipPath><clipPath
       id="clipPath416"
       clipPathUnits="userSpaceOnUse"><path
         id="path414"
         d="m 1505.9773,160.70174 c -10e-5,-7.14235 0.6838,-14.21607 2.0518,-21.22118 1.368,-7.00511 3.3936,-13.80701 6.077,-20.40569 2.6833,-6.59867 5.9729,-12.86733 9.8686,-18.80596 3.8958,-5.938649 8.3228,-11.433171 13.281,-16.483571 4.9582,-5.050407 10.3525,-9.559654 16.1828,-13.527725 5.8303,-3.968071 11.9846,-7.318737 18.4629,-10.051994 6.4782,-2.733257 13.1561,-4.796585 20.0334,-6.189984 6.8773,-1.393405 13.822,-2.090107 20.8342,-2.090107 7.012,0 13.9566,0.696702 20.8339,2.090107 6.8773,1.393399 13.5552,3.456727 20.0335,6.189984 6.4781,2.733257 12.6324,6.083923 18.4627,10.051994 5.8302,3.968071 11.2245,8.47731 16.1829,13.527718 4.9582,5.050407 9.3852,10.544929 13.2809,16.483568 3.8956,5.93864 7.1851,12.2073 9.8685,18.80597 2.6835,6.59868 4.7091,13.40056 6.0771,20.40567 1.3681,7.00512 2.0522,14.07885 2.0522,21.2212 0,7.14235 -0.684,14.21606 -2.052,21.22116 -1.3681,7.00509 -3.3938,13.80697 -6.0772,20.40565 -2.6835,6.59867 -5.973,12.86733 -9.8686,18.80597 -3.8957,5.93865 -8.3227,11.43318 -13.2809,16.4836 -4.9584,5.05038 -10.3527,9.55961 -16.1829,13.52769 -5.8303,3.96808 -11.9846,7.31876 -18.4629,10.052 -6.4782,2.73325 -13.156,4.79657 -20.0333,6.18998 -6.8773,1.3934 -13.8219,2.09012 -20.8339,2.09015 -7.0122,-3e-5 -13.9569,-0.69675 -20.8341,-2.09015 -6.8773,-1.39341 -13.5551,-3.45673 -20.0334,-6.18998 -6.4784,-2.73324 -12.6327,-6.08392 -18.4629,-10.05201 -5.8304,-3.96807 -11.2247,-8.4773 -16.1829,-13.5277 -4.9582,-5.0504 -9.3852,-10.54493 -13.281,-16.48358 -3.8957,-5.93864 -7.1853,-12.2073 -9.8686,-18.80597 -2.6834,-6.59868 -4.709,-13.40056 -6.0769,-20.40565 -1.3681,-7.0051 -2.052,-14.07881 -2.0519,-21.22116 z" /></clipPath><clipPath
       id="clipPath430"
       clipPathUnits="userSpaceOnUse"><path
         id="path428"
         d="M 0,0 H 1979.1666 V 2047.8444 H 0 Z" /></clipPath><clipPath
       id="clipPath436"
       clipPathUnits="userSpaceOnUse"><path
         id="path434"
         d="M 0,0 H 1979.1666 V 2047.8444 H 0 Z" /></clipPath><clipPath
       id="clipPath442"
       clipPathUnits="userSpaceOnUse"><path
         id="path440"
         d="M 739.90863,248.01932 H 1248.3784 V 592.85901 H 739.90863 Z" /></clipPath><clipPath
       id="clipPath448"
       clipPathUnits="userSpaceOnUse"><path
         id="path446"
         d="M 739.90863,523.89105 V 316.98724 c 0,-4.5285 0.44189,-9.01349 1.32562,-13.45498 0.88379,-4.4415 2.19251,-8.75412 3.92615,-12.93793 1.73364,-4.18381 3.85889,-8.15836 6.37573,-11.92368 2.51691,-3.76529 5.37702,-7.24902 8.58039,-10.45114 3.2033,-3.20211 6.68835,-6.06112 10.45507,-8.57702 3.76673,-2.5159 7.7428,-4.64035 11.92817,-6.37332 4.18542,-1.73298 8.49969,-3.04119 12.94287,-3.92466 4.44323,-0.88347 8.92999,-1.32519 13.4602,-1.32519 h 370.48137 c 4.5301,0 9.0168,0.44172 13.46,1.32519 4.4432,0.88347 8.7574,2.19168 12.9428,3.92467 4.1854,1.73299 8.1614,3.85741 11.9281,6.37331 3.7668,2.5159 7.2519,5.37494 10.4553,8.57705 3.2033,3.20212 6.0632,6.68586 8.5801,10.45114 2.517,3.76529 4.6422,7.73984 6.3758,11.92365 1.7337,4.18381 3.0424,8.49643 3.9262,12.9379 0.8839,4.44149 1.3259,8.92651 1.3259,13.45501 v 206.90381 c 0,4.52851 -0.442,9.01349 -1.3259,13.45496 -0.8838,4.44147 -2.1925,8.75415 -3.9262,12.93793 -1.7336,4.18377 -3.8588,8.15826 -6.3758,11.92358 -2.5169,3.76532 -5.3768,7.24902 -8.5801,10.45123 -3.2034,3.20209 -6.6885,6.0611 -10.4553,8.57697 -3.7667,2.51593 -7.7427,4.64038 -11.9281,6.37341 -4.1854,1.73297 -8.4996,3.0412 -12.9428,3.92462 -4.4432,0.88349 -8.9299,1.32526 -13.46,1.32526 H 808.90283 c -4.53021,0 -9.01697,-0.44177 -13.46014,-1.32526 -4.44318,-0.88348 -8.75751,-2.19171 -12.94293,-3.92468 -4.18537,-1.73303 -8.16144,-3.85748 -11.92823,-6.37335 -3.76666,-2.51587 -7.25171,-5.37488 -10.45501,-8.57697 -3.20337,-3.20221 -6.06348,-6.68591 -8.58039,-10.45123 -2.51684,-3.76532 -4.64209,-7.73981 -6.37573,-11.92358 -1.73364,-4.18378 -3.04236,-8.49646 -3.92609,-12.93793 -0.88379,-4.44147 -1.32568,-8.92645 -1.32568,-13.45496 z" /></clipPath><clipPath
       id="clipPath462"
       clipPathUnits="userSpaceOnUse"><path
         style="clip-rule:evenodd"
         id="path460"
         d="M 0,0 H 1979.1666 V 2047.8444 H 0 Z" /></clipPath><clipPath
       id="clipPath484"
       clipPathUnits="userSpaceOnUse"><path
         id="path482"
         d="M 0,0 H 1979.1666 V 2047.8444 H 0 Z" /></clipPath><clipPath
       id="clipPath490"
       clipPathUnits="userSpaceOnUse"><path
         id="path488"
         d="M 0,0 H 1979.1666 V 2047.8444 H 0 Z" /></clipPath><clipPath
       id="clipPath496"
       clipPathUnits="userSpaceOnUse"><path
         id="path494"
         d="M 887.37842,51.925529 H 1100.9618 V 269.47793 H 887.37842 Z" /></clipPath><clipPath
       id="clipPath502"
       clipPathUnits="userSpaceOnUse"><path
         id="path500"
         d="m 887.37842,160.70174 c -6e-5,-7.14235 0.6839,-14.21607 2.05188,-21.22118 1.36798,-7.00511 3.39367,-13.80701 6.07709,-20.40569 2.68334,-6.59867 5.9729,-12.86733 9.86859,-18.80596 3.89569,-5.938649 8.32263,-11.433171 13.28094,-16.483571 4.95825,-5.050407 10.35254,-9.559654 16.1828,-13.527725 5.83032,-3.968071 11.98462,-7.318737 18.46289,-10.051994 6.47827,-2.733257 13.15607,-4.796585 20.03345,-6.189984 6.87726,-1.393405 13.82196,-2.090107 20.83404,-2.090107 7.012,0 13.9567,0.696702 20.8339,2.090107 6.8774,1.393399 13.5552,3.456727 20.0335,6.189984 6.4783,2.733257 12.6325,6.083923 18.4627,10.051994 5.8302,3.968071 11.2245,8.47731 16.1829,13.527718 4.9583,5.050407 9.3853,10.544929 13.2809,16.483568 3.8956,5.93864 7.1852,12.2073 9.8686,18.80597 2.6834,6.59868 4.7092,13.40056 6.0772,20.40567 1.3679,7.00512 2.0519,14.07885 2.052,21.2212 -10e-5,7.14235 -0.6841,14.21606 -2.0521,21.22116 -1.3681,7.00509 -3.3937,13.80697 -6.0771,20.40565 -2.6834,6.59867 -5.973,12.86733 -9.8686,18.80597 -3.8956,5.93865 -8.3226,11.43318 -13.2808,16.4836 -4.9583,5.05038 -10.3526,9.55961 -16.1828,13.52769 -5.8304,3.96808 -11.9846,7.31876 -18.4629,10.052 -6.4783,2.73325 -13.1561,4.79657 -20.0334,6.18998 -6.8773,1.3934 -13.822,2.09012 -20.834,2.09015 -7.01208,-3e-5 -13.95678,-0.69675 -20.83404,-2.09015 -6.87738,-1.39341 -13.55518,-3.45673 -20.03345,-6.18998 -6.47827,-2.73324 -12.63257,-6.08392 -18.46283,-10.05201 -5.83032,-3.96807 -11.22461,-8.4773 -16.18286,-13.5277 -4.95831,-5.0504 -9.38531,-10.54493 -13.281,-16.48358 -3.8957,-5.93864 -7.18525,-12.2073 -9.8686,-18.80597 -2.68341,-6.59868 -4.70904,-13.40056 -6.07702,-20.40565 -1.36798,-7.0051 -2.05194,-14.07881 -2.05188,-21.22116 z" /></clipPath><clipPath
       id="clipPath516"
       clipPathUnits="userSpaceOnUse"><path
         id="path514"
         d="M 0,0 H 1979.1666 V 2047.8444 H 0 Z" /></clipPath><clipPath
       id="clipPath522"
       clipPathUnits="userSpaceOnUse"><path
         id="path520"
         d="M 0,0 H 1979.1666 V 2047.8444 H 0 Z" /></clipPath><clipPath
       id="clipPath528"
       clipPathUnits="userSpaceOnUse"><path
         id="path526"
         d="m 990.0614,588.79047 h 1297.316 V 1932.51 H 990.0614 Z" /></clipPath><clipPath
       id="clipPath534"
       clipPathUnits="userSpaceOnUse"><path
         style="clip-rule:evenodd"
         id="path532"
         d="m 990.0614,660.55792 h 311.0703 v 85.63916 H 990.0614 m 0,-157.40661 h 1297.316 V 1930.9807 H 990.0614" /></clipPath><clipPath
       id="clipPath546"
       clipPathUnits="userSpaceOnUse"><path
         style="clip-rule:evenodd"
         id="path544"
         d="M 0,0 H 1979.1666 V 2047.8444 H 0 Z" /></clipPath><clipPath
       id="clipPath568"
       clipPathUnits="userSpaceOnUse"><path
         id="path566"
         d="M 0,0 H 1979.1666 V 2047.8444 H 0 Z" /></clipPath><clipPath
       id="clipPath574"
       clipPathUnits="userSpaceOnUse"><path
         id="path572"
         d="M 0,0 H 1979.1666 V 2047.8444 H 0 Z" /></clipPath><clipPath
       id="clipPath580"
       clipPathUnits="userSpaceOnUse"><path
         id="path578"
         d="M 1294.6782,588.79047 H 2591.9941 V 1932.51 H 1294.6782 Z" /></clipPath><clipPath
       id="clipPath586"
       clipPathUnits="userSpaceOnUse"><path
         style="clip-rule:evenodd"
         id="path584"
         d="m 1294.6782,772.44867 h 466.605 v 85.63916 h -466.605 m 0,-269.29736 H 2591.9941 V 1930.9807 H 1294.6782" /></clipPath><clipPath
       id="clipPath598"
       clipPathUnits="userSpaceOnUse"><path
         style="clip-rule:evenodd"
         id="path596"
         d="M 0,0 H 1979.1666 V 2047.8444 H 0 Z" /></clipPath></defs><g
     transform="matrix(0.31999998,0,0,0.31999998,0,1.64e-5)"
     id="g10"><g
       id="g12"><g
         clip-path="url(#clipPath18)"
         id="g14"><g
           transform="scale(3.1217139)"
           id="g20"><path
             id="path22"
             style="fill:#ffffff;fill-opacity:1;fill-rule:nonzero;stroke:none"
             d="M 0,0 H 634 V 656 H 0 Z" /></g></g></g><g
       id="g24"><g
         clip-path="url(#clipPath30)"
         id="g26"><g
           transform="scale(3.1217139,3.1205246)"
           id="g32"><path
             id="path34"
             style="fill:#f2f2f2;fill-opacity:1;fill-rule:nonzero;stroke:none"
             d="M 0,0 H 634 V 656.25 H 0 Z" /></g></g></g><g
       id="g36"><g
         clip-path="url(#clipPath42)"
         id="g38"><g
           transform="matrix(2.0398002,0,0,2.0390224,-9.7709646,-15.040929)"
           id="g44"><path
             id="path46"
             style="fill:#ffffff;fill-opacity:1;fill-rule:nonzero;stroke:none"
             d="M 0,0 H 984.33228 V 1056.1627 H 0 Z" /></g></g></g><g
       id="g48"><g
         clip-path="url(#clipPath54)"
         id="g50"><g
           clip-path="url(#clipPath60)"
           id="g56"><g
             clip-path="url(#clipPath66)"
             id="g62"><g
               clip-path="url(#clipPath72)"
               id="g68"><g
                 transform="matrix(2.0398052,0,0,2.0390282,122.12144,248.01932)"
                 id="g74"><path
                   id="path76"
                   style="fill:#08427b;fill-opacity:1;fill-rule:evenodd;stroke:none"
                   d="M 33.823925,0 H 215.44978 c 1.10778,0 2.21288,0.05429047 3.31531,0.16287142 1.10245,0.10858095 2.19692,0.27092952 3.2834,0.48704571 1.08649,0.21611625 2.15978,0.48495937 3.21985,0.80652947 1.06006,0.3215702 2.10181,0.6943188 3.12526,1.1182459 1.02347,0.4239271 2.02368,0.8969915 3.00066,1.4191935 0.97697,0.5222015 1.92599,1.0910258 2.84706,1.7064724 0.92109,0.615447 1.8098,1.2745533 2.66612,1.9773188 0.85634,0.7027654 1.67615,1.4458055 2.45946,2.2291202 0.78332,0.7833166 1.52636,1.6031356 2.22914,2.4594566 0.70276,0.85632 1.36186,1.745022 1.97729,2.666102 0.61545,0.921082 1.18428,1.870108 1.7065,2.84708 0.5222,0.976971 0.99526,1.977181 1.41918,3.000632 0.42393,1.023451 0.79669,2.065214 1.11825,3.12529 0.32156,1.060076 0.59041,2.133358 0.80652,3.219846 0.21612,1.086489 0.37848,2.180956 0.48704,3.283398 0.1086,1.102442 0.16291,2.20755 0.16289,3.315323 V 135.29568 c 2e-5,1.10778 -0.0543,2.21289 -0.16287,3.31533 -0.10858,1.10243 -0.27094,2.1969 -0.48708,3.28337 -0.21611,1.0865 -0.48494,2.15979 -0.80651,3.21986 -0.32158,1.06008 -0.69433,2.10184 -1.11826,3.12528 -0.4239,1.02345 -0.89697,2.02366 -1.41919,3.00062 -0.5222,0.97699 -1.09102,1.92603 -1.70648,2.84709 -0.61543,0.9211 -1.27452,1.8098 -1.9773,2.66613 -0.70277,0.8563 -1.44581,1.67613 -2.22914,2.45944 -0.78331,0.78332 -1.60312,1.52637 -2.45944,2.22912 -0.85634,0.70276 -1.74504,1.36187 -2.66612,1.9773 -0.92107,0.61546 -1.87009,1.18428 -2.84706,1.70648 -0.97698,0.5222 -1.97719,0.99527 -3.00066,1.41921 -1.02345,0.42393 -2.0652,0.79669 -3.12527,1.11825 -1.06008,0.32157 -2.13335,0.59041 -3.21985,0.80652 -1.08647,0.21611 -2.18094,0.37846 -3.28339,0.48706 -1.10243,0.10858 -2.20753,0.16287 -3.31531,0.16287 H 33.823925 c -1.107773,0 -2.212881,-0.0543 -3.315323,-0.16287 -1.102442,-0.1086 -2.196909,-0.27095 -3.283398,-0.48706 -1.086488,-0.21611 -2.15977,-0.48495 -3.219846,-0.80652 -1.060076,-0.32156 -2.101839,-0.69432 -3.12529,-1.11825 -1.023451,-0.42394 -2.023661,-0.89701 -3.000632,-1.41921 -0.97697,-0.5222 -1.925996,-1.09102 -2.847078,-1.70647 -0.92108,-0.61544 -1.809782,-1.27455 -2.666104,-1.97731 -0.856321,-0.70275 -1.67614,-1.4458 -2.4594566,-2.22912 C 9.1234827,158.42949 8.3804417,157.60966 7.6776767,156.75334 6.9749112,155.89703 6.315805,155.00832 5.7003579,154.08722 5.0849113,153.16615 4.5160875,152.21712 3.993886,151.24014 3.471684,150.26318 2.9986196,149.26297 2.5746925,148.23952 2.1507654,147.21608 1.7780168,146.17433 1.4564466,145.11426 1.1348765,144.05417 0.86603338,142.98088 0.64991713,141.89438 0.43380094,140.80791 0.27145237,139.71344 0.16287142,138.61101 0.05429047,137.50857 0,136.40346 0,135.29568 V 33.823925 C 0,32.716152 0.05429047,31.611044 0.16287142,30.508602 0.27145237,29.40616 0.43380094,28.311693 0.64991713,27.225204 0.86603338,26.138716 1.1348765,25.065434 1.4564466,24.005358 1.7780168,22.945282 2.1507654,21.903519 2.5746925,20.880068 2.9986196,19.856617 3.471684,18.856407 3.993886,17.879436 4.5160875,16.902466 5.0849118,15.95344 5.7003584,15.032358 6.3158054,14.111278 6.9749117,13.222576 7.6776772,12.366254 8.3804426,11.509933 9.1234827,10.690114 9.9067974,9.9067974 10.690114,9.1234827 11.509933,8.3804417 12.366254,7.6776767 13.222574,6.9749112 14.111276,6.315805 15.032356,5.7003579 15.953438,5.0849113 16.902464,4.5160875 17.879436,3.993886 18.856407,3.471684 19.856617,2.9986196 20.880068,2.5746925 21.903519,2.1507654 22.945282,1.7780168 24.005358,1.4564466 25.065434,1.1348765 26.138716,0.86603338 27.225204,0.64991713 28.311693,0.43380094 29.40616,0.27145237 30.508602,0.16287142 31.611044,0.05429047 32.716152,0 33.823925,0 Z" /><path
                   id="path78"
                   style="fill:none;stroke:#0c4178;stroke-width:1;stroke-linecap:butt;stroke-linejoin:miter;stroke-miterlimit:10;stroke-dasharray:none;stroke-opacity:1"
                   d="M 33.823925,0 H 215.44978 c 1.10778,0 2.21288,0.05429047 3.31531,0.16287142 1.10245,0.10858095 2.19692,0.27092952 3.2834,0.48704571 1.08649,0.21611625 2.15978,0.48495937 3.21985,0.80652947 1.06006,0.3215702 2.10181,0.6943188 3.12526,1.1182459 1.02347,0.4239271 2.02368,0.8969915 3.00066,1.4191935 0.97697,0.5222015 1.92599,1.0910258 2.84706,1.7064724 0.92109,0.615447 1.8098,1.2745533 2.66612,1.9773188 0.85634,0.7027654 1.67615,1.4458055 2.45946,2.2291202 0.78332,0.7833166 1.52636,1.6031356 2.22914,2.4594566 0.70276,0.85632 1.36186,1.745022 1.97729,2.666102 0.61545,0.921082 1.18428,1.870108 1.7065,2.84708 0.5222,0.976971 0.99526,1.977181 1.41918,3.000632 0.42393,1.023451 0.79669,2.065214 1.11825,3.12529 0.32156,1.060076 0.59041,2.133358 0.80652,3.219846 0.21612,1.086489 0.37848,2.180956 0.48704,3.283398 0.1086,1.102442 0.16291,2.20755 0.16289,3.315323 V 135.29568 c 2e-5,1.10778 -0.0543,2.21289 -0.16287,3.31533 -0.10858,1.10243 -0.27094,2.1969 -0.48708,3.28337 -0.21611,1.0865 -0.48494,2.15979 -0.80651,3.21986 -0.32158,1.06008 -0.69433,2.10184 -1.11826,3.12528 -0.4239,1.02345 -0.89697,2.02366 -1.41919,3.00062 -0.5222,0.97699 -1.09102,1.92603 -1.70648,2.84709 -0.61543,0.9211 -1.27452,1.8098 -1.9773,2.66613 -0.70277,0.8563 -1.44581,1.67613 -2.22914,2.45944 -0.78331,0.78332 -1.60312,1.52637 -2.45944,2.22912 -0.85634,0.70276 -1.74504,1.36187 -2.66612,1.9773 -0.92107,0.61546 -1.87009,1.18428 -2.84706,1.70648 -0.97698,0.5222 -1.97719,0.99527 -3.00066,1.41921 -1.02345,0.42393 -2.0652,0.79669 -3.12527,1.11825 -1.06008,0.32157 -2.13335,0.59041 -3.21985,0.80652 -1.08647,0.21611 -2.18094,0.37846 -3.28339,0.48706 -1.10243,0.10858 -2.20753,0.16287 -3.31531,0.16287 H 33.823925 c -1.107773,0 -2.212881,-0.0543 -3.315323,-0.16287 -1.102442,-0.1086 -2.196909,-0.27095 -3.283398,-0.48706 -1.086488,-0.21611 -2.15977,-0.48495 -3.219846,-0.80652 -1.060076,-0.32156 -2.101839,-0.69432 -3.12529,-1.11825 -1.023451,-0.42394 -2.023661,-0.89701 -3.000632,-1.41921 -0.97697,-0.5222 -1.925996,-1.09102 -2.847078,-1.70647 -0.92108,-0.61544 -1.809782,-1.27455 -2.666104,-1.97731 -0.856321,-0.70275 -1.67614,-1.4458 -2.4594566,-2.22912 C 9.1234827,158.42949 8.3804417,157.60966 7.6776767,156.75334 6.9749112,155.89703 6.315805,155.00832 5.7003579,154.08722 5.0849113,153.16615 4.5160875,152.21712 3.993886,151.24014 3.471684,150.26318 2.9986196,149.26297 2.5746925,148.23952 2.1507654,147.21608 1.7780168,146.17433 1.4564466,145.11426 1.1348765,144.05417 0.86603338,142.98088 0.64991713,141.89438 0.43380094,140.80791 0.27145237,139.71344 0.16287142,138.61101 0.05429047,137.50857 0,136.40346 0,135.29568 V 33.823925 C 0,32.716152 0.05429047,31.611044 0.16287142,30.508602 0.27145237,29.40616 0.43380094,28.311693 0.64991713,27.225204 0.86603338,26.138716 1.1348765,25.065434 1.4564466,24.005358 1.7780168,22.945282 2.1507654,21.903519 2.5746925,20.880068 2.9986196,19.856617 3.471684,18.856407 3.993886,17.879436 4.5160875,16.902466 5.0849118,15.95344 5.7003584,15.032358 6.3158054,14.111278 6.9749117,13.222576 7.6776772,12.366254 8.3804426,11.509933 9.1234827,10.690114 9.9067974,9.9067974 10.690114,9.1234827 11.509933,8.3804417 12.366254,7.6776767 13.222574,6.9749112 14.111276,6.315805 15.032356,5.7003579 15.953438,5.0849113 16.902464,4.5160875 17.879436,3.993886 18.856407,3.471684 19.856617,2.9986196 20.880068,2.5746925 21.903519,2.1507654 22.945282,1.7780168 24.005358,1.4564466 25.065434,1.1348765 26.138716,0.86603338 27.225204,0.64991713 28.311693,0.43380094 29.40616,0.27145237 30.508602,0.16287142 31.611044,0.05429047 32.716152,0 33.823925,0 Z" /></g></g></g></g></g></g><g
       id="g80"><g
         clip-path="url(#clipPath86)"
         id="g82"><g
           transform="matrix(2.0398052,0,0,2.0390282,139.36999,265.26129)"
           id="g88"><text
             id="text92"
             style="font-variant:normal;font-weight:bold;font-size:14px;font-family:OpenSans;-inkscape-font-specification:OpenSans-Bold;writing-mode:lr-tb;fill:#ffffff;fill-opacity:1;fill-rule:nonzero;stroke:none"
             transform="translate(62.074432,40.103828)"><tspan
               id="tspan90"
               y="0"
               x="0 10.711914 14.984375 21.341797 25.614258 34.81543 42.724609 46.361328 59.561523 68.017578 77.21875 85.674805 93.583984 101.85547">Hiring Manager</tspan></text>
<text
             id="text96"
             style="font-variant:normal;font-weight:normal;font-size:14px;font-family:OpenSans;-inkscape-font-specification:OpenSans-Regular;writing-mode:lr-tb;fill:#ffffff;fill-opacity:1;fill-rule:nonzero;stroke:none"
             transform="translate(88.710663,60.103828)"><tspan
               id="tspan94"
               y="0"
               x="0 4.6074219 13.036133 20.890625 26.605469 33.28418 41.740234 50.333008">[Person]</tspan></text>
<text
             id="text100"
             style="font-variant:normal;font-weight:normal;font-size:14px;font-family:OpenSans;-inkscape-font-specification:OpenSans-Regular;writing-mode:lr-tb;fill:#ffffff;fill-opacity:1;fill-rule:nonzero;stroke:none"
             transform="translate(3.8117359,100.10383)"><tspan
               id="tspan98"
               y="0"
               x="0 8.6542969 16.508789 23.173828 28.888672 37.481445 41.022461 45.964844 53.819336 59.53418 63.170898 66.711914 75.167969 83.624023 90.972656 94.513672 103.10645 110.77637 114.41309 119.35547 127.81152 131.44824 139.7334 143.27441 146.81543 150.45215 158.23828 161.875 170.4541 178.24023 183.95508 188.89746 192.43848 199.10352 207.69629 211.2373 219.02344 224.73828">Recruiter looking to ﬁll a particular </tspan></text>
<text
             id="text104"
             style="font-variant:normal;font-weight:normal;font-size:14px;font-family:OpenSans;-inkscape-font-specification:OpenSans-Regular;writing-mode:lr-tb;fill:#ffffff;fill-opacity:1;fill-rule:nonzero;stroke:none"
             transform="translate(42.058807,120.10383)"><tspan
               id="tspan102"
               y="0"
               x="0 5.7148438 14.170898 17.711914 25.566406 29.203125 40.092773 43.633789 48.576172 57.168945 60.709961 69.302734 72.939453 80.725586 84.362305 91.027344 99.483398 112.50586 121.08496 128.87109 137.46387 144.51855">role within a company.</tspan></text>
</g></g></g><g
       id="g106"><g
         clip-path="url(#clipPath112)"
         id="g108"><g
           clip-path="url(#clipPath118)"
           id="g114"><g
             clip-path="url(#clipPath124)"
             id="g120"><g
               clip-path="url(#clipPath130)"
               id="g126"><g
                 transform="matrix(2.0398052,0,0,2.0390282,269.56,51.925529)"
                 id="g132"><path
                   id="path134"
                   style="fill:#08427b;fill-opacity:1;fill-rule:nonzero;stroke:none"
                   d="m 104.70776,53.347084 c 0,1.747185 -0.084,3.490162 -0.2521,5.228931 -0.16807,1.738766 -0.41936,3.464955 -0.75387,5.178563 -0.33451,1.713607 -0.75063,3.406387 -1.24837,5.078338 -0.49774,1.671944 -1.0747,3.31501 -1.73087,4.929199 -0.65617,1.61419 -1.388398,3.19172 -2.196679,4.732605 -0.808281,1.540871 -1.688728,3.037674 -2.641342,4.490395 -0.952606,1.452736 -1.972793,2.854401 -3.060554,4.204994 -1.087761,1.350594 -2.23787,2.643608 -3.450318,3.879044 -1.21244,1.235451 -2.481384,2.407371 -3.806831,3.51577 -1.325447,1.108406 -2.701012,2.147949 -4.126694,3.118629 -1.425682,0.970688 -2.894623,1.867844 -4.406814,2.691458 -1.512185,0.82362 -3.060349,1.56973 -4.644486,2.23834 -1.584129,0.66863 -3.196602,1.25653 -4.837425,1.76371 -1.640824,0.50718 -3.302086,0.9312 -4.983795,1.27205 -1.681706,0.34087 -3.375756,0.59693 -5.08215,0.76818 -1.706402,0.17125 -3.416927,0.25688 -5.131584,0.25688 -1.714649,0 -3.425175,-0.0856 -5.131577,-0.25688 -1.706401,-0.17125 -3.400455,-0.42731 -5.082164,-0.76818 -1.681706,-0.34085 -3.342972,-0.76487 -4.983792,-1.27205 -1.640819,-0.50718 -3.253299,-1.09508 -4.837432,-1.76371 -1.584132,-0.66861 -3.132294,-1.41473 -4.644484,-2.23835 -1.51219,-0.823612 -2.981127,-1.72076 -4.406811,-2.691448 C 21.841938,96.73288 20.466375,95.693344 19.14093,94.584938 17.815483,93.47654 16.546537,92.304619 15.334095,91.069168 14.121652,89.833733 12.971548,88.540718 11.883782,87.190125 10.796018,85.839531 9.7758293,84.437866 8.8232183,82.98513 7.8706079,81.532402 6.9901619,80.035599 6.1818795,78.49472 5.3735971,76.953842 4.6413708,75.376312 3.9852011,73.762123 3.3290315,72.147942 2.7520781,70.504875 2.2543404,68.832916 1.7566025,67.160973 1.3404773,65.468193 1.0059649,63.754578 0.67145252,62.04097 0.42016369,60.314781 0.2520982,58.576015 0.08403273,56.837246 0,55.094269 0,53.347084 0,51.599903 0.08403273,49.85693 0.2520982,48.118156 0.42016369,46.379387 0.67145252,44.653194 1.0059649,42.939583 1.3404773,41.225975 1.7566024,39.533195 2.2543402,37.861244 2.7520778,36.189293 3.3290315,34.546223 3.9852011,32.932037 4.6413708,31.317852 5.3735967,29.74032 6.181879,28.199442 c 0.8082824,-1.540876 1.6887289,-3.03768 2.6413393,-4.49041 0.952611,-1.45273 1.9727997,-2.854389 3.0605637,-4.204979 1.087766,-1.350592 2.23787,-2.64361 3.450313,-3.879055 1.212442,-1.235444 2.481388,-2.407366 3.806835,-3.515767 1.325445,-1.108401 2.701008,-2.1479435 4.12669,-3.1186266 1.425684,-0.9706831 2.894623,-1.8678322 4.406813,-2.6914487 1.51219,-0.8236165 3.060352,-1.5697336 4.644483,-2.2383513 1.584133,-0.6686178 3.19661,-1.2565167 4.837433,-1.7636969 C 38.797169,1.789927 40.458435,1.3659077 42.140141,1.0250491 43.821846,0.68419069 45.5159,0.42813462 47.222301,0.25688076 48.928703,0.08562692 50.639229,0 52.353878,0 c 1.714657,0 3.425182,0.08562692 5.13158,0.25688076 1.706395,0.17125386 3.400444,0.42730993 5.08215,0.76816834 1.681705,0.3408586 3.342975,0.7648779 4.983799,1.2720584 1.640823,0.5071802 3.253296,1.0950791 4.837425,1.7636969 1.584137,0.6686177 3.132301,1.4147353 4.644486,2.2383518 1.512191,0.823616 2.981132,1.7207651 4.406814,2.6914482 1.425682,0.9706831 2.801247,2.0102256 4.126694,3.1186276 1.325447,1.1084 2.594391,2.280322 3.806831,3.515766 1.212448,1.235445 2.362557,2.528463 3.450318,3.879055 1.087761,1.35059 2.107948,2.752249 3.060554,4.204975 0.952614,1.45273 1.833061,2.949534 2.641342,4.49041 0.808281,1.540878 1.540509,3.11841 2.196679,4.732596 0.65617,1.614189 1.23313,3.257259 1.73087,4.929206 0.49774,1.671952 0.91386,3.364731 1.24837,5.078343 0.33451,1.713611 0.5858,3.439804 0.75387,5.178573 0.16807,1.738774 0.2521,3.481747 0.2521,5.228928 z" /><path
                   id="path136"
                   style="fill:none;stroke:#0c4178;stroke-width:1;stroke-linecap:butt;stroke-linejoin:miter;stroke-miterlimit:10;stroke-dasharray:none;stroke-opacity:1"
                   d="m 104.70776,53.347084 c 0,1.747185 -0.084,3.490162 -0.2521,5.228931 -0.16807,1.738766 -0.41936,3.464955 -0.75387,5.178563 -0.33451,1.713607 -0.75063,3.406387 -1.24837,5.078338 -0.49774,1.671944 -1.0747,3.31501 -1.73087,4.929199 -0.65617,1.61419 -1.388398,3.19172 -2.196679,4.732605 -0.808281,1.540871 -1.688728,3.037674 -2.641342,4.490395 -0.952606,1.452736 -1.972793,2.854401 -3.060554,4.204994 -1.087761,1.350594 -2.23787,2.643608 -3.450318,3.879044 -1.21244,1.235451 -2.481384,2.407371 -3.806831,3.51577 -1.325447,1.108406 -2.701012,2.147949 -4.126694,3.118629 -1.425682,0.970688 -2.894623,1.867844 -4.406814,2.691458 -1.512185,0.82362 -3.060349,1.56973 -4.644486,2.23834 -1.584129,0.66863 -3.196602,1.25653 -4.837425,1.76371 -1.640824,0.50718 -3.302086,0.9312 -4.983795,1.27205 -1.681706,0.34087 -3.375756,0.59693 -5.08215,0.76818 -1.706402,0.17125 -3.416927,0.25688 -5.131584,0.25688 -1.714649,0 -3.425175,-0.0856 -5.131577,-0.25688 -1.706401,-0.17125 -3.400455,-0.42731 -5.082164,-0.76818 -1.681706,-0.34085 -3.342972,-0.76487 -4.983792,-1.27205 -1.640819,-0.50718 -3.253299,-1.09508 -4.837432,-1.76371 -1.584132,-0.66861 -3.132294,-1.41473 -4.644484,-2.23835 -1.51219,-0.823612 -2.981127,-1.72076 -4.406811,-2.691448 C 21.841938,96.73288 20.466375,95.693344 19.14093,94.584938 17.815483,93.47654 16.546537,92.304619 15.334095,91.069168 14.121652,89.833733 12.971548,88.540718 11.883782,87.190125 10.796018,85.839531 9.7758293,84.437866 8.8232183,82.98513 7.8706079,81.532402 6.9901619,80.035599 6.1818795,78.49472 5.3735971,76.953842 4.6413708,75.376312 3.9852011,73.762123 3.3290315,72.147942 2.7520781,70.504875 2.2543404,68.832916 1.7566025,67.160973 1.3404773,65.468193 1.0059649,63.754578 0.67145252,62.04097 0.42016369,60.314781 0.2520982,58.576015 0.08403273,56.837246 0,55.094269 0,53.347084 0,51.599903 0.08403273,49.85693 0.2520982,48.118156 0.42016369,46.379387 0.67145252,44.653194 1.0059649,42.939583 1.3404773,41.225975 1.7566024,39.533195 2.2543402,37.861244 2.7520778,36.189293 3.3290315,34.546223 3.9852011,32.932037 4.6413708,31.317852 5.3735967,29.74032 6.181879,28.199442 c 0.8082824,-1.540876 1.6887289,-3.03768 2.6413393,-4.49041 0.952611,-1.45273 1.9727997,-2.854389 3.0605637,-4.204979 1.087766,-1.350592 2.23787,-2.64361 3.450313,-3.879055 1.212442,-1.235444 2.481388,-2.407366 3.806835,-3.515767 1.325445,-1.108401 2.701008,-2.1479435 4.12669,-3.1186266 1.425684,-0.9706831 2.894623,-1.8678322 4.406813,-2.6914487 1.51219,-0.8236165 3.060352,-1.5697336 4.644483,-2.2383513 1.584133,-0.6686178 3.19661,-1.2565167 4.837433,-1.7636969 C 38.797169,1.789927 40.458435,1.3659077 42.140141,1.0250491 43.821846,0.68419069 45.5159,0.42813462 47.222301,0.25688076 48.928703,0.08562692 50.639229,0 52.353878,0 c 1.714657,0 3.425182,0.08562692 5.13158,0.25688076 1.706395,0.17125386 3.400444,0.42730993 5.08215,0.76816834 1.681705,0.3408586 3.342975,0.7648779 4.983799,1.2720584 1.640823,0.5071802 3.253296,1.0950791 4.837425,1.7636969 1.584137,0.6686177 3.132301,1.4147353 4.644486,2.2383518 1.512191,0.823616 2.981132,1.7207651 4.406814,2.6914482 1.425682,0.9706831 2.801247,2.0102256 4.126694,3.1186276 1.325447,1.1084 2.594391,2.280322 3.806831,3.515766 1.212448,1.235445 2.362557,2.528463 3.450318,3.879055 1.087761,1.35059 2.107948,2.752249 3.060554,4.204975 0.952614,1.45273 1.833061,2.949534 2.641342,4.49041 0.808281,1.540878 1.540509,3.11841 2.196679,4.732596 0.65617,1.614189 1.23313,3.257259 1.73087,4.929206 0.49774,1.671952 0.91386,3.364731 1.24837,5.078343 0.33451,1.713611 0.5858,3.439804 0.75387,5.178573 0.16807,1.738774 0.2521,3.481747 0.2521,5.228928 z" /></g></g></g></g></g></g><g
       id="g138"><g
         clip-path="url(#clipPath144)"
         id="g140"><g
           transform="matrix(2.0398052,0,0,2.0390282,689.55536,834.08514)"
           id="g146"><path
             id="path148"
             style="fill:#1267bd;fill-opacity:1;fill-rule:nonzero;stroke:none"
             d="M 0,0 H 298.66406 V 199.60156 H 0 Z" /><path
             id="path150"
             style="fill:none;stroke:#1267bd;stroke-width:1;stroke-linecap:butt;stroke-linejoin:miter;stroke-miterlimit:10;stroke-dasharray:none;stroke-opacity:1"
             d="M 0,0 H 298.66406 V 199.60156 H 0 Z" /></g></g></g><g
       id="g152"><g
         clip-path="url(#clipPath158)"
         id="g154"><g
           transform="matrix(2.0398052,0,0,2.0390282,709.91278,854.43475)"
           id="g160"><text
             id="text164"
             style="font-variant:normal;font-weight:bold;font-size:14px;font-family:OpenSans;-inkscape-font-specification:OpenSans-Bold;writing-mode:lr-tb;fill:#ffffff;fill-opacity:1;fill-rule:nonzero;stroke:none"
             transform="translate(104.3998,53.820702)"><tspan
               id="tspan162"
               y="0"
               x="0 8.9208984 13.193359 21.464844 29.920898 36.27832 45.376953 49.649414 57.920898">ClearView</tspan></text>
<text
             id="text168"
             style="font-variant:normal;font-weight:normal;font-size:14px;font-family:OpenSans;-inkscape-font-specification:OpenSans-Regular;writing-mode:lr-tb;fill:#ffffff;fill-opacity:1;fill-rule:nonzero;stroke:none"
             transform="translate(80.272362,73.820702)"><tspan
               id="tspan166"
               y="0"
               x="0 4.6074219 12.291016 20.74707 25.491211 30.433594 41.323242 49.109375 54.824219 62.678711 66.31543 73.999023 81.053711 87.732422 92.674805 100.5293 113.55176">[Software System]</tspan></text>
<text
             id="text172"
             style="font-variant:normal;font-weight:normal;font-size:14px;font-family:OpenSans;-inkscape-font-specification:OpenSans-Regular;writing-mode:lr-tb;fill:#ffffff;fill-opacity:1;fill-rule:nonzero;stroke:none"
             transform="translate(8.5770512,113.8207)"><tspan
               id="tspan170"
               y="0"
               x="0 8.8320312 17.288086 25.880859 34.473633 42.328125 48.993164 53.935547 60.614258 64.250977 70.916016 78.702148 87.294922 95.874023 99.415039 107.99414 115.78027 120.72266 128.57715 135.25586 138.89258 149.78223 153.32324 158.26562 166.8584 170.49512 174.03613 182.49219 191.07129 197.75 201.38672 209.96582 217.75195 224.43066 232.28516 240.86426 244.50098 252.95703 261.5498">Connects candidates with jobs based on </tspan></text>
<text
             id="text176"
             style="font-variant:normal;font-weight:normal;font-size:14px;font-family:OpenSans;-inkscape-font-specification:OpenSans-Regular;writing-mode:lr-tb;fill:#ffffff;fill-opacity:1;fill-rule:nonzero;stroke:none"
             transform="translate(61.68203,133.82071)"><tspan
               id="tspan174"
               y="0"
               x="0 13.022461 20.808594 25.750977 32.416016 41.008789 44.549805 53.142578 60.8125 64.449219 71.114258 79.570312 92.592773 101.17188 109.02637 113.96875 121.82324 130.41602 137.08105 144.93555 151.61426">matching competences.</tspan></text>
</g><g
           transform="matrix(2.6226065,0,0,2.6216075,71.736984,1941.809)"
           id="g178"><text
             id="text182"
             style="font-variant:normal;font-weight:bold;font-size:14px;font-family:OpenSans;-inkscape-font-specification:OpenSans-Bold;writing-mode:lr-tb;fill:#1a1a1a;fill-opacity:1;fill-rule:nonzero;stroke:none"
             transform="translate(0,14)"><tspan
               id="tspan180"
               y="0"
               x="0 7.7109375 15.674805 22.633789 28.710938 36.982422 50.729492 54.366211 63.287109 71.955078 81.15625 87.233398 95.504883 103.59863 109.67578 113.3125 123.67578 127.94824 136.4043 144.31348 150.6709 159.12695 172.87402 176.51074 181.93164 190.59961 196.95703 200.59375 206.6709 215.87207 224.14355 227.78027 236.70117 240.97363 249.24512 257.70117 264.05859 273.15723 277.42969 285.70117 297.68457 301.32129 309.03223 316.99609 323.95508 330.03223 338.30371">System Context Diagram for the ClearView System</tspan></text>
</g><g
           transform="matrix(2.0398052,0,0,2.0390282,71.736984,1994.2336)"
           id="g184"><text
             id="text188"
             style="font-variant:normal;font-weight:bold;font-size:14px;font-family:OpenSans;-inkscape-font-specification:OpenSans-Bold;writing-mode:lr-tb;fill:#646464;fill-opacity:1;fill-rule:nonzero;stroke:none"
             transform="translate(0,14)"><tspan
               id="tspan186"
               y="0"
               x="0 8.1074219 17.308594 25.580078 29.216797 36.175781 44.139648 51.098633 57.175781 65.447266 79.194336 82.831055 90.029297 98.697266 107.89844 113.97559 122.24707 130.34082 136.41797 140.05469 148.91406 153.18652 161.64258 169.55176 175.90918 184.36523 198.1123 201.74902 207.16992 215.83789 222.19531 225.83203 231.90918 241.11035 249.38184 253.01855 261.93945 266.21191 274.4834 282.93945 289.29688 298.39551 302.66797 310.93945 322.92285 326.55957 334.27051 342.23438 349.19336 355.27051 363.54199">The system context diagram for the ClearView System</tspan></text>
<text
             id="text192"
             style="font-variant:normal;font-weight:bold;font-size:14px;font-family:OpenSans;-inkscape-font-specification:OpenSans-Bold;writing-mode:lr-tb;fill:#646464;fill-opacity:1;fill-rule:nonzero;stroke:none"
             transform="translate(0,34)"><tspan
               id="tspan190"
               y="0"
               x="0 7.9091797 16.365234 23.324219 33.038086 46.785156 55.453125 64.3125 68.584961 78.271484 86.542969 95.402344 103.03125 111.02246 119.01367 127.00488 139.50098 147.49219 159.98828 167.97949">Lastmodiﬁed:20220210</tspan></text>
</g></g></g><g
       id="g194"><g
         clip-path="url(#clipPath200)"
         id="g196"><g
           clip-path="url(#clipPath206)"
           id="g202"><g
             clip-path="url(#clipPath212)"
             id="g208"><g
               clip-path="url(#clipPath218)"
               id="g214"><g
                 transform="matrix(2.0398052,0,0,2.0390282,376.35382,592.86853)"
                 id="g220"><path
                   id="path222"
                   style="fill:#646464;fill-opacity:1;fill-rule:nonzero;stroke:none"
                   d="M 0.81768692,-0.57566309 5.4229918,5.9658322 3.7876177,7.1171584 -0.81768692,0.57566309 M 10.028297,12.507328 l 4.605304,6.541494 -1.635374,1.151326 -4.6053046,-6.541495 m 10.8459826,11.931666 4.605305,6.541494 -1.635372,1.151329 -4.605305,-6.541498 m 10.845981,11.931662 4.605307,6.541496 -1.635374,1.151329 -4.605305,-6.541496 m 10.845984,11.931663 4.605304,6.541496 -1.635376,1.151329 -4.605304,-6.541496 m 10.845985,11.931667 4.605305,6.541497 -1.635376,1.151321 -4.605305,-6.541496 m 10.845986,11.931663 4.605304,6.541497 -1.635376,1.151321 -4.605304,-6.541496 m 10.845985,11.931671 4.605309,6.541496 -1.635376,1.151322 -4.605309,-6.541497 m 10.845985,11.931667 4.605301,6.5415 -1.635376,1.15132 -4.6053,-6.54149 m 10.845985,11.93167 4.605308,6.54149 -1.635376,1.15133 -4.605308,-6.5415 m 10.845985,11.93166 4.605301,6.54149 -1.635376,1.15134 -4.605301,-6.54149 m 10.845984,11.93165 4.60531,6.54149 -1.63538,1.15134 -4.6053,-6.54149 m 10.84598,11.93164 4.6053,6.54151 -1.63537,1.15133 -4.6053,-6.5415 m 10.84598,11.93165 4.60531,6.54151 -1.63538,1.15133 -4.6053,-6.5415 m 10.84598,11.93166 4.6053,6.5415 -1.63538,1.15134 -4.6053,-6.54151 m 10.846,11.93166 4.6053,6.5415 -1.63538,1.15134 -4.6053,-6.5415" /></g></g></g></g></g></g><g
       id="g224"><g
         clip-path="url(#clipPath230)"
         id="g226"><g
           transform="matrix(1.1742405,1.6672867,-1.6679221,1.1737931,689.55634,1037.5801)"
           id="g232"><path
             id="path234"
             style="fill:#646464;fill-opacity:1;fill-rule:nonzero;stroke:none"
             d="M -18.90909,-5.818182 0,0 -18.90909,5.818182 Z" /></g><g
           transform="matrix(2.0398052,0,0,2.0390282,227.42326,776.51514)"
           id="g236"><text
             id="text240"
             style="font-variant:normal;font-weight:normal;font-size:14px;font-family:OpenSans;-inkscape-font-specification:OpenSans-Regular;writing-mode:lr-tb;fill:#444444;fill-opacity:1;fill-rule:nonzero;stroke:none"
             transform="translate(21.126465,14)"><tspan
               id="tspan238"
               y="0"
               x="0 13.022461 20.808594 29.401367 37.1875 44.857422 52.711914 59.390625 63.027344 66.568359 75.024414 83.603516 87.240234 95.819336 104.27539 110.9541 115.89648 122.5752 126.21191 133.99805 142.59082 151.16992 154.80664 161.82031 165.36133 173.21582 184.10547 190.78418 194.4209 201.08594 208.87207 217.46484 226.04395 229.58496 238.16406 245.9502 250.89258 258.74707">manages job posts and views candidate </tspan></text>
<text
             id="text244"
             style="font-variant:normal;font-weight:normal;font-size:14px;font-family:OpenSans;-inkscape-font-specification:OpenSans-Regular;writing-mode:lr-tb;fill:#444444;fill-opacity:1;fill-rule:nonzero;stroke:none"
             transform="translate(125.94531,34)"><tspan
               id="tspan242"
               y="0"
               x="0 8.5791016 14.293945 22.75 31.035156 34.576172 42.430664">proﬁles</tspan></text>
</g></g></g><g
       id="g246"><g
         clip-path="url(#clipPath252)"
         id="g248"><g
           transform="matrix(2.0398052,0,0,2.0390282,689.55536,1481.6875)"
           id="g254"><path
             id="path256"
             style="fill:#999999;fill-opacity:1;fill-rule:nonzero;stroke:none"
             d="M 0,0 H 298.66406 V 199.60156 H 0 Z" /><path
             id="path258"
             style="fill:none;stroke:#969696;stroke-width:1;stroke-linecap:butt;stroke-linejoin:miter;stroke-miterlimit:10;stroke-dasharray:none;stroke-opacity:1"
             d="M 0,0 H 298.66406 V 199.60156 H 0 Z" /></g></g></g><g
       id="g260"><g
         clip-path="url(#clipPath266)"
         id="g262"><g
           transform="matrix(2.0398052,0,0,2.0390282,709.91278,1502.0372)"
           id="g268"><text
             id="text272"
             style="font-variant:normal;font-weight:bold;font-size:14px;font-family:OpenSans;-inkscape-font-specification:OpenSans-Bold;writing-mode:lr-tb;fill:#ffffff;fill-opacity:1;fill-rule:nonzero;stroke:none"
             transform="translate(102.1918,43.820702)"><tspan
               id="tspan270"
               y="0"
               x="0 10.711914 19.954102 23.59082 31.301758 39.265625 46.224609 52.301758 60.573242">HR System</tspan></text>
<text
             id="text276"
             style="font-variant:normal;font-weight:normal;font-size:14px;font-family:OpenSans;-inkscape-font-specification:OpenSans-Regular;writing-mode:lr-tb;fill:#ffffff;fill-opacity:1;fill-rule:nonzero;stroke:none"
             transform="translate(80.272362,63.820702)"><tspan
               id="tspan274"
               y="0"
               x="0 4.6074219 12.291016 20.74707 25.491211 30.433594 41.323242 49.109375 54.824219 62.678711 66.31543 73.999023 81.053711 87.732422 92.674805 100.5293 113.55176">[Software System]</tspan></text>
<text
             id="text280"
             style="font-variant:normal;font-weight:normal;font-size:14px;font-family:OpenSans;-inkscape-font-specification:OpenSans-Regular;writing-mode:lr-tb;fill:#ffffff;fill-opacity:1;fill-rule:nonzero;stroke:none"
             transform="translate(31.802149,103.8207)"><tspan
               id="tspan278"
               y="0"
               x="0 7.6835938 12.625977 21.082031 26.796875 34.651367 41.330078 44.966797 52.75293 56.293945 59.834961 63.47168 71.927734 76.671875 80.308594 85.250977 93.84375 101.69824 105.33496 112 120.45605 126.1709 134.02539 137.66211 143.37695 151.23145 157.89648 163.61133 172.2041 175.74512 180.6875 193.70996 201.56445 210.15723 215.09961">Stores all of the core recruitment </tspan></text>
<text
             id="text284"
             style="font-variant:normal;font-weight:normal;font-size:14px;font-family:OpenSans;-inkscape-font-specification:OpenSans-Regular;writing-mode:lr-tb;fill:#ffffff;fill-opacity:1;fill-rule:nonzero;stroke:none"
             transform="translate(23.462305,123.8207)"><tspan
               id="tspan282"
               y="0"
               x="0 3.5410156 12.133789 16.87793 25.333984 31.048828 44.071289 51.857422 56.799805 60.34082 68.796875 77.389648 81.026367 88.8125 97.391602 105.84766 114.44043 119.38281 123.01953 129.68457 137.4707 146.06348 154.64258 158.18359 166.7627 174.54883 179.49121 187.3457 194.02441 197.45605 201.09277 204.63379 213.08984 221.66895 228.34766 231.7793">information about candidates, jobs, </tspan></text>
<text
             id="text288"
             style="font-variant:normal;font-weight:normal;font-size:14px;font-family:OpenSans;-inkscape-font-specification:OpenSans-Regular;writing-mode:lr-tb;fill:#ffffff;fill-opacity:1;fill-rule:nonzero;stroke:none"
             transform="translate(90.912498,143.82071)"><tspan
               id="tspan286"
               y="0"
               x="0 3.5410156 12.133789 17.076172 24.930664 30.645508 37.65918 41.200195 49.054688 59.944336 66.623047 70.054688 73.691406 81.545898 86.488281 93.15332">interviews, etc.</tspan></text>
</g></g></g><g
       id="g290"><g
         clip-path="url(#clipPath296)"
         id="g292"><g
           clip-path="url(#clipPath302)"
           id="g298"><g
             clip-path="url(#clipPath308)"
             id="g304"><g
               clip-path="url(#clipPath314)"
               id="g310"><g
                 transform="matrix(2.0398052,0,0,2.0390282,994.14099,1241.0638)"
                 id="g316"><path
                   id="path318"
                   style="fill:#646464;fill-opacity:1;fill-rule:nonzero;stroke:none"
                   d="M 1,0 V 8 H -1 V 0 m 2,16 v 8 h -2 v -8 m 2,16 v 8 h -2 v -8 m 2,16 v 8 h -2 v -8 m 2,16 v 8 h -2 v -8 m 2,16 v 8 h -2 v -8 m 2,16 v 6.87273 H -1 V 96" /></g></g></g></g></g></g><g
       id="g320"><g
         clip-path="url(#clipPath326)"
         id="g322"><g
           transform="matrix(0,2.0390282,-2.0398052,0,994.14099,1481.6692)"
           id="g328"><path
             id="path330"
             style="fill:#646464;fill-opacity:1;fill-rule:nonzero;stroke:none"
             d="M -18.90909,-5.818182 0,0 -18.90909,5.818182 Z" /></g><g
           transform="matrix(2.0398052,0,0,2.0390282,689.19012,1333.4136)"
           id="g332"><text
             id="text336"
             style="font-variant:normal;font-weight:normal;font-size:14px;font-family:OpenSans;-inkscape-font-specification:OpenSans-Regular;writing-mode:lr-tb;fill:#646464;fill-opacity:1;fill-rule:nonzero;stroke:none"
             transform="translate(0.64404297,14)"><tspan
               id="tspan334"
               y="0"
               x="0 7.6835938 15.538086 24.130859 32.709961 39.388672 43.025391 51.618164 60.210938 63.751953 72.208008 78.873047 86.22168 94.076172 102.65527 106.29199 112.95703 120.74316 129.33594 137.91504 141.45605 150.03516 157.82129 162.76367 170.61816 174.25488 182.83398 188.54883 197.00488 205.29004 208.83105 216.68555 220.32227 223.86328 232.45605 237.2002 245.65625 251.37109 264.39355 272.17969 277.12207 280.66309 289.11914">Sends unlocked candidate proﬁle information</tspan></text>
</g></g></g><g
       id="g338"><g
         clip-path="url(#clipPath344)"
         id="g340"><g
           clip-path="url(#clipPath350)"
           id="g346"><g
             clip-path="url(#clipPath356)"
             id="g352"><g
               clip-path="url(#clipPath362)"
               id="g358"><g
                 transform="matrix(2.0398052,0,0,2.0390282,1358.5387,248.01932)"
                 id="g364"><path
                   id="path366"
                   style="fill:#08427b;fill-opacity:1;fill-rule:evenodd;stroke:none"
                   d="M 33.823925,0 H 215.44978 c 1.10778,0 2.21288,0.05429047 3.31531,0.16287142 1.10245,0.10858095 2.19692,0.27092952 3.2834,0.48704571 1.08649,0.21611625 2.15978,0.48495937 3.21985,0.80652947 1.06006,0.3215702 2.10181,0.6943188 3.12526,1.1182459 1.02347,0.4239271 2.02368,0.8969915 3.00066,1.4191935 0.97697,0.5222015 1.92599,1.0910258 2.84706,1.7064724 0.92109,0.615447 1.8098,1.2745533 2.66612,1.9773188 0.85634,0.7027654 1.67615,1.4458055 2.45946,2.2291202 0.78332,0.7833166 1.52636,1.6031356 2.22914,2.4594566 0.70276,0.85632 1.36186,1.745022 1.97729,2.666102 0.61545,0.921082 1.18428,1.870108 1.7065,2.84708 0.5222,0.976971 0.99526,1.977181 1.41918,3.000632 0.42393,1.023451 0.79669,2.065214 1.11825,3.12529 0.32156,1.060076 0.59041,2.133358 0.80652,3.219846 0.21612,1.086489 0.37848,2.180956 0.48704,3.283398 0.1086,1.102442 0.16291,2.20755 0.16289,3.315323 V 135.29568 c 2e-5,1.10778 -0.0543,2.21289 -0.16287,3.31533 -0.10858,1.10243 -0.27094,2.1969 -0.48708,3.28337 -0.21611,1.0865 -0.48494,2.15979 -0.80651,3.21986 -0.32158,1.06008 -0.69433,2.10184 -1.11826,3.12528 -0.4239,1.02345 -0.89697,2.02366 -1.41919,3.00062 -0.5222,0.97699 -1.09102,1.92603 -1.70648,2.84709 -0.61543,0.9211 -1.27452,1.8098 -1.9773,2.66613 -0.70277,0.8563 -1.44581,1.67613 -2.22914,2.45944 -0.78331,0.78332 -1.60312,1.52637 -2.45944,2.22912 -0.85634,0.70276 -1.74504,1.36187 -2.66612,1.9773 -0.92107,0.61546 -1.87009,1.18428 -2.84706,1.70648 -0.97698,0.5222 -1.97719,0.99527 -3.00066,1.41921 -1.02345,0.42393 -2.0652,0.79669 -3.12527,1.11825 -1.06008,0.32157 -2.13335,0.59041 -3.21985,0.80652 -1.08647,0.21611 -2.18094,0.37846 -3.28339,0.48706 -1.10243,0.10858 -2.20753,0.16287 -3.31531,0.16287 H 33.823925 c -1.107773,0 -2.212881,-0.0543 -3.315323,-0.16287 -1.102442,-0.1086 -2.196909,-0.27095 -3.283398,-0.48706 -1.086488,-0.21611 -2.15977,-0.48495 -3.219846,-0.80652 -1.060076,-0.32156 -2.101839,-0.69432 -3.12529,-1.11825 -1.023451,-0.42394 -2.023661,-0.89701 -3.000632,-1.41921 -0.97697,-0.5222 -1.925996,-1.09102 -2.847078,-1.70647 -0.92108,-0.61544 -1.809782,-1.27455 -2.666104,-1.97731 -0.856321,-0.70275 -1.67614,-1.4458 -2.4594566,-2.22912 C 9.1234827,158.42949 8.3804417,157.60966 7.6776767,156.75334 6.9749112,155.89703 6.315805,155.00832 5.7003579,154.08722 5.0849113,153.16615 4.5160875,152.21712 3.993886,151.24014 3.471684,150.26318 2.9986196,149.26297 2.5746925,148.23952 2.1507654,147.21608 1.7780168,146.17433 1.4564466,145.11426 1.1348765,144.05417 0.86603338,142.98088 0.64991713,141.89438 0.43380094,140.80791 0.27145237,139.71344 0.16287142,138.61101 0.05429047,137.50857 0,136.40346 0,135.29568 V 33.823925 C 0,32.716152 0.05429047,31.611044 0.16287142,30.508602 0.27145237,29.40616 0.43380094,28.311693 0.64991713,27.225204 0.86603338,26.138716 1.1348765,25.065434 1.4564466,24.005358 1.7780168,22.945282 2.1507654,21.903519 2.5746925,20.880068 2.9986196,19.856617 3.471684,18.856407 3.993886,17.879436 4.5160875,16.902466 5.0849118,15.95344 5.7003584,15.032358 6.3158054,14.111278 6.9749117,13.222576 7.6776772,12.366254 8.3804426,11.509933 9.1234827,10.690114 9.9067974,9.9067974 10.690114,9.1234827 11.509933,8.3804417 12.366254,7.6776767 13.222574,6.9749112 14.111276,6.315805 15.032356,5.7003579 15.953438,5.0849113 16.902464,4.5160875 17.879436,3.993886 18.856407,3.471684 19.856617,2.9986196 20.880068,2.5746925 21.903519,2.1507654 22.945282,1.7780168 24.005358,1.4564466 25.065434,1.1348765 26.138716,0.86603338 27.225204,0.64991713 28.311693,0.43380094 29.40616,0.27145237 30.508602,0.16287142 31.611044,0.05429047 32.716152,0 33.823925,0 Z" /><path
                   id="path368"
                   style="fill:none;stroke:#0c4178;stroke-width:1;stroke-linecap:butt;stroke-linejoin:miter;stroke-miterlimit:10;stroke-dasharray:none;stroke-opacity:1"
                   d="M 33.823925,0 H 215.44978 c 1.10778,0 2.21288,0.05429047 3.31531,0.16287142 1.10245,0.10858095 2.19692,0.27092952 3.2834,0.48704571 1.08649,0.21611625 2.15978,0.48495937 3.21985,0.80652947 1.06006,0.3215702 2.10181,0.6943188 3.12526,1.1182459 1.02347,0.4239271 2.02368,0.8969915 3.00066,1.4191935 0.97697,0.5222015 1.92599,1.0910258 2.84706,1.7064724 0.92109,0.615447 1.8098,1.2745533 2.66612,1.9773188 0.85634,0.7027654 1.67615,1.4458055 2.45946,2.2291202 0.78332,0.7833166 1.52636,1.6031356 2.22914,2.4594566 0.70276,0.85632 1.36186,1.745022 1.97729,2.666102 0.61545,0.921082 1.18428,1.870108 1.7065,2.84708 0.5222,0.976971 0.99526,1.977181 1.41918,3.000632 0.42393,1.023451 0.79669,2.065214 1.11825,3.12529 0.32156,1.060076 0.59041,2.133358 0.80652,3.219846 0.21612,1.086489 0.37848,2.180956 0.48704,3.283398 0.1086,1.102442 0.16291,2.20755 0.16289,3.315323 V 135.29568 c 2e-5,1.10778 -0.0543,2.21289 -0.16287,3.31533 -0.10858,1.10243 -0.27094,2.1969 -0.48708,3.28337 -0.21611,1.0865 -0.48494,2.15979 -0.80651,3.21986 -0.32158,1.06008 -0.69433,2.10184 -1.11826,3.12528 -0.4239,1.02345 -0.89697,2.02366 -1.41919,3.00062 -0.5222,0.97699 -1.09102,1.92603 -1.70648,2.84709 -0.61543,0.9211 -1.27452,1.8098 -1.9773,2.66613 -0.70277,0.8563 -1.44581,1.67613 -2.22914,2.45944 -0.78331,0.78332 -1.60312,1.52637 -2.45944,2.22912 -0.85634,0.70276 -1.74504,1.36187 -2.66612,1.9773 -0.92107,0.61546 -1.87009,1.18428 -2.84706,1.70648 -0.97698,0.5222 -1.97719,0.99527 -3.00066,1.41921 -1.02345,0.42393 -2.0652,0.79669 -3.12527,1.11825 -1.06008,0.32157 -2.13335,0.59041 -3.21985,0.80652 -1.08647,0.21611 -2.18094,0.37846 -3.28339,0.48706 -1.10243,0.10858 -2.20753,0.16287 -3.31531,0.16287 H 33.823925 c -1.107773,0 -2.212881,-0.0543 -3.315323,-0.16287 -1.102442,-0.1086 -2.196909,-0.27095 -3.283398,-0.48706 -1.086488,-0.21611 -2.15977,-0.48495 -3.219846,-0.80652 -1.060076,-0.32156 -2.101839,-0.69432 -3.12529,-1.11825 -1.023451,-0.42394 -2.023661,-0.89701 -3.000632,-1.41921 -0.97697,-0.5222 -1.925996,-1.09102 -2.847078,-1.70647 -0.92108,-0.61544 -1.809782,-1.27455 -2.666104,-1.97731 -0.856321,-0.70275 -1.67614,-1.4458 -2.4594566,-2.22912 C 9.1234827,158.42949 8.3804417,157.60966 7.6776767,156.75334 6.9749112,155.89703 6.315805,155.00832 5.7003579,154.08722 5.0849113,153.16615 4.5160875,152.21712 3.993886,151.24014 3.471684,150.26318 2.9986196,149.26297 2.5746925,148.23952 2.1507654,147.21608 1.7780168,146.17433 1.4564466,145.11426 1.1348765,144.05417 0.86603338,142.98088 0.64991713,141.89438 0.43380094,140.80791 0.27145237,139.71344 0.16287142,138.61101 0.05429047,137.50857 0,136.40346 0,135.29568 V 33.823925 C 0,32.716152 0.05429047,31.611044 0.16287142,30.508602 0.27145237,29.40616 0.43380094,28.311693 0.64991713,27.225204 0.86603338,26.138716 1.1348765,25.065434 1.4564466,24.005358 1.7780168,22.945282 2.1507654,21.903519 2.5746925,20.880068 2.9986196,19.856617 3.471684,18.856407 3.993886,17.879436 4.5160875,16.902466 5.0849118,15.95344 5.7003584,15.032358 6.3158054,14.111278 6.9749117,13.222576 7.6776772,12.366254 8.3804426,11.509933 9.1234827,10.690114 9.9067974,9.9067974 10.690114,9.1234827 11.509933,8.3804417 12.366254,7.6776767 13.222574,6.9749112 14.111276,6.315805 15.032356,5.7003579 15.953438,5.0849113 16.902464,4.5160875 17.879436,3.993886 18.856407,3.471684 19.856617,2.9986196 20.880068,2.5746925 21.903519,2.1507654 22.945282,1.7780168 24.005358,1.4564466 25.065434,1.1348765 26.138716,0.86603338 27.225204,0.64991713 28.311693,0.43380094 29.40616,0.27145237 30.508602,0.16287142 31.611044,0.05429047 32.716152,0 33.823925,0 Z" /></g></g></g></g></g></g><g
       id="g370"><g
         clip-path="url(#clipPath376)"
         id="g372"><g
           transform="matrix(2.0398052,0,0,2.0390282,1375.7872,265.26129)"
           id="g378"><text
             id="text382"
             style="font-variant:normal;font-weight:bold;font-size:14px;font-family:OpenSans;-inkscape-font-specification:OpenSans-Bold;writing-mode:lr-tb;fill:#ffffff;fill-opacity:1;fill-rule:nonzero;stroke:none"
             transform="translate(93.311249,50.103828)"><tspan
               id="tspan380"
               y="0"
               x="0 9.6591797 18.518555 32.265625 36.538086">Admin</tspan></text>
<text
             id="text386"
             style="font-variant:normal;font-weight:normal;font-size:14px;font-family:OpenSans;-inkscape-font-specification:OpenSans-Regular;writing-mode:lr-tb;fill:#ffffff;fill-opacity:1;fill-rule:nonzero;stroke:none"
             transform="translate(88.710663,70.103828)"><tspan
               id="tspan384"
               y="0"
               x="0 4.6074219 13.036133 20.890625 26.605469 33.28418 41.740234 50.333008">[Person]</tspan></text>
<text
             id="text390"
             style="font-variant:normal;font-weight:normal;font-size:14px;font-family:OpenSans;-inkscape-font-specification:OpenSans-Regular;writing-mode:lr-tb;fill:#ffffff;fill-opacity:1;fill-rule:nonzero;stroke:none"
             transform="translate(27.713591,110.10383)"><tspan
               id="tspan388"
               y="0"
               x="0 8.859375 12.496094 25.518555 33.304688 41.897461 49.683594 57.353516 65.208008 70.922852 74.55957 83.015625 87.759766 91.396484 96.338867 104.93164 112.78613 116.42285 125.00195 128.54297 136.3291 141.27148 146.01562 154.47168 160.18652 173.20898">A manager of the platform.</tspan></text>
</g></g></g><g
       id="g392"><g
         clip-path="url(#clipPath398)"
         id="g394"><g
           clip-path="url(#clipPath404)"
           id="g400"><g
             clip-path="url(#clipPath410)"
             id="g406"><g
               clip-path="url(#clipPath416)"
               id="g412"><g
                 transform="matrix(2.0398052,0,0,2.0390282,1505.9773,51.925529)"
                 id="g418"><path
                   id="path420"
                   style="fill:#08427b;fill-opacity:1;fill-rule:nonzero;stroke:none"
                   d="m 104.70776,53.347084 c 0,1.747185 -0.084,3.490162 -0.2521,5.228931 -0.16807,1.738766 -0.41936,3.464955 -0.75387,5.178563 -0.33451,1.713607 -0.75063,3.406387 -1.24837,5.078338 -0.49774,1.671944 -1.0747,3.31501 -1.73087,4.929199 -0.65617,1.61419 -1.388398,3.19172 -2.196679,4.732605 -0.808281,1.540871 -1.688728,3.037674 -2.641342,4.490395 -0.952606,1.452736 -1.972793,2.854401 -3.060554,4.204994 -1.087761,1.350594 -2.23787,2.643608 -3.450318,3.879044 -1.21244,1.235451 -2.481384,2.407371 -3.806831,3.51577 -1.325447,1.108406 -2.701012,2.147949 -4.126694,3.118629 -1.425682,0.970688 -2.894623,1.867844 -4.406814,2.691458 -1.512185,0.82362 -3.060349,1.56973 -4.644486,2.23834 -1.584129,0.66863 -3.196602,1.25653 -4.837425,1.76371 -1.640824,0.50718 -3.302086,0.9312 -4.983795,1.27205 -1.681706,0.34087 -3.375756,0.59693 -5.08215,0.76818 -1.706402,0.17125 -3.416927,0.25688 -5.131584,0.25688 -1.714649,0 -3.425175,-0.0856 -5.131577,-0.25688 -1.706401,-0.17125 -3.400455,-0.42731 -5.082164,-0.76818 -1.681706,-0.34085 -3.342972,-0.76487 -4.983792,-1.27205 -1.640819,-0.50718 -3.253299,-1.09508 -4.837432,-1.76371 -1.584132,-0.66861 -3.132294,-1.41473 -4.644484,-2.23835 -1.51219,-0.823612 -2.981127,-1.72076 -4.406811,-2.691448 C 21.841938,96.73288 20.466375,95.693344 19.14093,94.584938 17.815483,93.47654 16.546537,92.304619 15.334095,91.069168 14.121652,89.833733 12.971548,88.540718 11.883782,87.190125 10.796018,85.839531 9.7758293,84.437866 8.8232183,82.98513 7.8706079,81.532402 6.9901619,80.035599 6.1818795,78.49472 5.3735971,76.953842 4.6413708,75.376312 3.9852011,73.762123 3.3290315,72.147942 2.7520781,70.504875 2.2543404,68.832916 1.7566025,67.160973 1.3404773,65.468193 1.0059649,63.754578 0.67145252,62.04097 0.42016369,60.314781 0.2520982,58.576015 0.08403273,56.837246 0,55.094269 0,53.347084 0,51.599903 0.08403273,49.85693 0.2520982,48.118156 0.42016369,46.379387 0.67145252,44.653194 1.0059649,42.939583 1.3404773,41.225975 1.7566024,39.533195 2.2543402,37.861244 2.7520778,36.189293 3.3290315,34.546223 3.9852011,32.932037 4.6413708,31.317852 5.3735967,29.74032 6.181879,28.199442 c 0.8082824,-1.540876 1.6887289,-3.03768 2.6413393,-4.49041 0.952611,-1.45273 1.9727997,-2.854389 3.0605637,-4.204979 1.087766,-1.350592 2.23787,-2.64361 3.450313,-3.879055 1.212442,-1.235444 2.481388,-2.407366 3.806835,-3.515767 1.325445,-1.108401 2.701008,-2.1479435 4.12669,-3.1186266 1.425684,-0.9706831 2.894623,-1.8678322 4.406813,-2.6914487 1.51219,-0.8236165 3.060352,-1.5697336 4.644483,-2.2383513 1.584133,-0.6686178 3.19661,-1.2565167 4.837433,-1.7636969 C 38.797169,1.789927 40.458435,1.3659077 42.140141,1.0250491 43.821846,0.68419069 45.5159,0.42813462 47.222301,0.25688076 48.928703,0.08562692 50.639229,0 52.353878,0 c 1.714657,0 3.425182,0.08562692 5.13158,0.25688076 1.706395,0.17125386 3.400444,0.42730993 5.08215,0.76816834 1.681705,0.3408586 3.342975,0.7648779 4.983799,1.2720584 1.640823,0.5071802 3.253296,1.0950791 4.837425,1.7636969 1.584137,0.6686177 3.132301,1.4147353 4.644486,2.2383518 1.512191,0.823616 2.981132,1.7207651 4.406814,2.6914482 1.425682,0.9706831 2.801247,2.0102256 4.126694,3.1186276 1.325447,1.1084 2.594391,2.280322 3.806831,3.515766 1.212448,1.235445 2.362557,2.528463 3.450318,3.879055 1.087761,1.35059 2.107948,2.752249 3.060554,4.204975 0.952614,1.45273 1.833061,2.949534 2.641342,4.49041 0.808281,1.540878 1.540509,3.11841 2.196679,4.732596 0.65617,1.614189 1.23313,3.257259 1.73087,4.929206 0.49774,1.671952 0.91386,3.364731 1.24837,5.078343 0.33451,1.713611 0.5858,3.439804 0.75387,5.178573 0.16807,1.738774 0.2521,3.481747 0.2521,5.228928 z" /><path
                   id="path422"
                   style="fill:none;stroke:#0c4178;stroke-width:1;stroke-linecap:butt;stroke-linejoin:miter;stroke-miterlimit:10;stroke-dasharray:none;stroke-opacity:1"
                   d="m 104.70776,53.347084 c 0,1.747185 -0.084,3.490162 -0.2521,5.228931 -0.16807,1.738766 -0.41936,3.464955 -0.75387,5.178563 -0.33451,1.713607 -0.75063,3.406387 -1.24837,5.078338 -0.49774,1.671944 -1.0747,3.31501 -1.73087,4.929199 -0.65617,1.61419 -1.388398,3.19172 -2.196679,4.732605 -0.808281,1.540871 -1.688728,3.037674 -2.641342,4.490395 -0.952606,1.452736 -1.972793,2.854401 -3.060554,4.204994 -1.087761,1.350594 -2.23787,2.643608 -3.450318,3.879044 -1.21244,1.235451 -2.481384,2.407371 -3.806831,3.51577 -1.325447,1.108406 -2.701012,2.147949 -4.126694,3.118629 -1.425682,0.970688 -2.894623,1.867844 -4.406814,2.691458 -1.512185,0.82362 -3.060349,1.56973 -4.644486,2.23834 -1.584129,0.66863 -3.196602,1.25653 -4.837425,1.76371 -1.640824,0.50718 -3.302086,0.9312 -4.983795,1.27205 -1.681706,0.34087 -3.375756,0.59693 -5.08215,0.76818 -1.706402,0.17125 -3.416927,0.25688 -5.131584,0.25688 -1.714649,0 -3.425175,-0.0856 -5.131577,-0.25688 -1.706401,-0.17125 -3.400455,-0.42731 -5.082164,-0.76818 -1.681706,-0.34085 -3.342972,-0.76487 -4.983792,-1.27205 -1.640819,-0.50718 -3.253299,-1.09508 -4.837432,-1.76371 -1.584132,-0.66861 -3.132294,-1.41473 -4.644484,-2.23835 -1.51219,-0.823612 -2.981127,-1.72076 -4.406811,-2.691448 C 21.841938,96.73288 20.466375,95.693344 19.14093,94.584938 17.815483,93.47654 16.546537,92.304619 15.334095,91.069168 14.121652,89.833733 12.971548,88.540718 11.883782,87.190125 10.796018,85.839531 9.7758293,84.437866 8.8232183,82.98513 7.8706079,81.532402 6.9901619,80.035599 6.1818795,78.49472 5.3735971,76.953842 4.6413708,75.376312 3.9852011,73.762123 3.3290315,72.147942 2.7520781,70.504875 2.2543404,68.832916 1.7566025,67.160973 1.3404773,65.468193 1.0059649,63.754578 0.67145252,62.04097 0.42016369,60.314781 0.2520982,58.576015 0.08403273,56.837246 0,55.094269 0,53.347084 0,51.599903 0.08403273,49.85693 0.2520982,48.118156 0.42016369,46.379387 0.67145252,44.653194 1.0059649,42.939583 1.3404773,41.225975 1.7566024,39.533195 2.2543402,37.861244 2.7520778,36.189293 3.3290315,34.546223 3.9852011,32.932037 4.6413708,31.317852 5.3735967,29.74032 6.181879,28.199442 c 0.8082824,-1.540876 1.6887289,-3.03768 2.6413393,-4.49041 0.952611,-1.45273 1.9727997,-2.854389 3.0605637,-4.204979 1.087766,-1.350592 2.23787,-2.64361 3.450313,-3.879055 1.212442,-1.235444 2.481388,-2.407366 3.806835,-3.515767 1.325445,-1.108401 2.701008,-2.1479435 4.12669,-3.1186266 1.425684,-0.9706831 2.894623,-1.8678322 4.406813,-2.6914487 1.51219,-0.8236165 3.060352,-1.5697336 4.644483,-2.2383513 1.584133,-0.6686178 3.19661,-1.2565167 4.837433,-1.7636969 C 38.797169,1.789927 40.458435,1.3659077 42.140141,1.0250491 43.821846,0.68419069 45.5159,0.42813462 47.222301,0.25688076 48.928703,0.08562692 50.639229,0 52.353878,0 c 1.714657,0 3.425182,0.08562692 5.13158,0.25688076 1.706395,0.17125386 3.400444,0.42730993 5.08215,0.76816834 1.681705,0.3408586 3.342975,0.7648779 4.983799,1.2720584 1.640823,0.5071802 3.253296,1.0950791 4.837425,1.7636969 1.584137,0.6686177 3.132301,1.4147353 4.644486,2.2383518 1.512191,0.823616 2.981132,1.7207651 4.406814,2.6914482 1.425682,0.9706831 2.801247,2.0102256 4.126694,3.1186276 1.325447,1.1084 2.594391,2.280322 3.806831,3.515766 1.212448,1.235445 2.362557,2.528463 3.450318,3.879055 1.087761,1.35059 2.107948,2.752249 3.060554,4.204975 0.952614,1.45273 1.833061,2.949534 2.641342,4.49041 0.808281,1.540878 1.540509,3.11841 2.196679,4.732596 0.65617,1.614189 1.23313,3.257259 1.73087,4.929206 0.49774,1.671952 0.91386,3.364731 1.24837,5.078343 0.33451,1.713611 0.5858,3.439804 0.75387,5.178573 0.16807,1.738774 0.2521,3.481747 0.2521,5.228928 z" /></g></g></g></g></g></g><g
       id="g424"><g
         clip-path="url(#clipPath430)"
         id="g426"><g
           clip-path="url(#clipPath436)"
           id="g432"><g
             clip-path="url(#clipPath442)"
             id="g438"><g
               clip-path="url(#clipPath448)"
               id="g444"><g
                 transform="matrix(2.0398052,0,0,2.0390282,739.90863,248.01932)"
                 id="g450"><path
                   id="path452"
                   style="fill:#08427b;fill-opacity:1;fill-rule:evenodd;stroke:none"
                   d="M 33.823925,0 H 215.44978 c 1.10778,0 2.21288,0.05429047 3.31531,0.16287142 1.10245,0.10858095 2.19692,0.27092952 3.2834,0.48704571 1.08649,0.21611625 2.15978,0.48495937 3.21985,0.80652947 1.06006,0.3215702 2.10181,0.6943188 3.12526,1.1182459 1.02347,0.4239271 2.02368,0.8969915 3.00066,1.4191935 0.97697,0.5222015 1.92599,1.0910258 2.84706,1.7064724 0.92109,0.615447 1.8098,1.2745533 2.66612,1.9773188 0.85634,0.7027654 1.67615,1.4458055 2.45946,2.2291202 0.78332,0.7833166 1.52636,1.6031356 2.22914,2.4594566 0.70276,0.85632 1.36186,1.745022 1.97729,2.666102 0.61545,0.921082 1.18428,1.870108 1.7065,2.84708 0.5222,0.976971 0.99526,1.977181 1.41918,3.000632 0.42393,1.023451 0.79669,2.065214 1.11825,3.12529 0.32156,1.060076 0.59041,2.133358 0.80652,3.219846 0.21612,1.086489 0.37848,2.180956 0.48704,3.283398 0.1086,1.102442 0.16291,2.20755 0.16289,3.315323 V 135.29568 c 2e-5,1.10778 -0.0543,2.21289 -0.16287,3.31533 -0.10858,1.10243 -0.27094,2.1969 -0.48708,3.28337 -0.21611,1.0865 -0.48494,2.15979 -0.80651,3.21986 -0.32158,1.06008 -0.69433,2.10184 -1.11826,3.12528 -0.4239,1.02345 -0.89697,2.02366 -1.41919,3.00062 -0.5222,0.97699 -1.09102,1.92603 -1.70648,2.84709 -0.61543,0.9211 -1.27452,1.8098 -1.9773,2.66613 -0.70277,0.8563 -1.44581,1.67613 -2.22914,2.45944 -0.78331,0.78332 -1.60312,1.52637 -2.45944,2.22912 -0.85634,0.70276 -1.74504,1.36187 -2.66612,1.9773 -0.92107,0.61546 -1.87009,1.18428 -2.84706,1.70648 -0.97698,0.5222 -1.97719,0.99527 -3.00066,1.41921 -1.02345,0.42393 -2.0652,0.79669 -3.12527,1.11825 -1.06008,0.32157 -2.13335,0.59041 -3.21985,0.80652 -1.08647,0.21611 -2.18094,0.37846 -3.28339,0.48706 -1.10243,0.10858 -2.20753,0.16287 -3.31531,0.16287 H 33.823925 c -1.107773,0 -2.212881,-0.0543 -3.315323,-0.16287 -1.102442,-0.1086 -2.196909,-0.27095 -3.283398,-0.48706 -1.086488,-0.21611 -2.15977,-0.48495 -3.219846,-0.80652 -1.060076,-0.32156 -2.101839,-0.69432 -3.12529,-1.11825 -1.023451,-0.42394 -2.023661,-0.89701 -3.000632,-1.41921 -0.97697,-0.5222 -1.925996,-1.09102 -2.847078,-1.70647 -0.92108,-0.61544 -1.809782,-1.27455 -2.666104,-1.97731 -0.856321,-0.70275 -1.67614,-1.4458 -2.4594566,-2.22912 C 9.1234827,158.42949 8.3804417,157.60966 7.6776767,156.75334 6.9749112,155.89703 6.315805,155.00832 5.7003579,154.08722 5.0849113,153.16615 4.5160875,152.21712 3.993886,151.24014 3.471684,150.26318 2.9986196,149.26297 2.5746925,148.23952 2.1507654,147.21608 1.7780168,146.17433 1.4564466,145.11426 1.1348765,144.05417 0.86603338,142.98088 0.64991713,141.89438 0.43380094,140.80791 0.27145237,139.71344 0.16287142,138.61101 0.05429047,137.50857 0,136.40346 0,135.29568 V 33.823925 C 0,32.716152 0.05429047,31.611044 0.16287142,30.508602 0.27145237,29.40616 0.43380094,28.311693 0.64991713,27.225204 0.86603338,26.138716 1.1348765,25.065434 1.4564466,24.005358 1.7780168,22.945282 2.1507654,21.903519 2.5746925,20.880068 2.9986196,19.856617 3.471684,18.856407 3.993886,17.879436 4.5160875,16.902466 5.0849118,15.95344 5.7003584,15.032358 6.3158054,14.111278 6.9749117,13.222576 7.6776772,12.366254 8.3804426,11.509933 9.1234827,10.690114 9.9067974,9.9067974 10.690114,9.1234827 11.509933,8.3804417 12.366254,7.6776767 13.222574,6.9749112 14.111276,6.315805 15.032356,5.7003579 15.953438,5.0849113 16.902464,4.5160875 17.879436,3.993886 18.856407,3.471684 19.856617,2.9986196 20.880068,2.5746925 21.903519,2.1507654 22.945282,1.7780168 24.005358,1.4564466 25.065434,1.1348765 26.138716,0.86603338 27.225204,0.64991713 28.311693,0.43380094 29.40616,0.27145237 30.508602,0.16287142 31.611044,0.05429047 32.716152,0 33.823925,0 Z" /><path
                   id="path454"
                   style="fill:none;stroke:#0c4178;stroke-width:1;stroke-linecap:butt;stroke-linejoin:miter;stroke-miterlimit:10;stroke-dasharray:none;stroke-opacity:1"
                   d="M 33.823925,0 H 215.44978 c 1.10778,0 2.21288,0.05429047 3.31531,0.16287142 1.10245,0.10858095 2.19692,0.27092952 3.2834,0.48704571 1.08649,0.21611625 2.15978,0.48495937 3.21985,0.80652947 1.06006,0.3215702 2.10181,0.6943188 3.12526,1.1182459 1.02347,0.4239271 2.02368,0.8969915 3.00066,1.4191935 0.97697,0.5222015 1.92599,1.0910258 2.84706,1.7064724 0.92109,0.615447 1.8098,1.2745533 2.66612,1.9773188 0.85634,0.7027654 1.67615,1.4458055 2.45946,2.2291202 0.78332,0.7833166 1.52636,1.6031356 2.22914,2.4594566 0.70276,0.85632 1.36186,1.745022 1.97729,2.666102 0.61545,0.921082 1.18428,1.870108 1.7065,2.84708 0.5222,0.976971 0.99526,1.977181 1.41918,3.000632 0.42393,1.023451 0.79669,2.065214 1.11825,3.12529 0.32156,1.060076 0.59041,2.133358 0.80652,3.219846 0.21612,1.086489 0.37848,2.180956 0.48704,3.283398 0.1086,1.102442 0.16291,2.20755 0.16289,3.315323 V 135.29568 c 2e-5,1.10778 -0.0543,2.21289 -0.16287,3.31533 -0.10858,1.10243 -0.27094,2.1969 -0.48708,3.28337 -0.21611,1.0865 -0.48494,2.15979 -0.80651,3.21986 -0.32158,1.06008 -0.69433,2.10184 -1.11826,3.12528 -0.4239,1.02345 -0.89697,2.02366 -1.41919,3.00062 -0.5222,0.97699 -1.09102,1.92603 -1.70648,2.84709 -0.61543,0.9211 -1.27452,1.8098 -1.9773,2.66613 -0.70277,0.8563 -1.44581,1.67613 -2.22914,2.45944 -0.78331,0.78332 -1.60312,1.52637 -2.45944,2.22912 -0.85634,0.70276 -1.74504,1.36187 -2.66612,1.9773 -0.92107,0.61546 -1.87009,1.18428 -2.84706,1.70648 -0.97698,0.5222 -1.97719,0.99527 -3.00066,1.41921 -1.02345,0.42393 -2.0652,0.79669 -3.12527,1.11825 -1.06008,0.32157 -2.13335,0.59041 -3.21985,0.80652 -1.08647,0.21611 -2.18094,0.37846 -3.28339,0.48706 -1.10243,0.10858 -2.20753,0.16287 -3.31531,0.16287 H 33.823925 c -1.107773,0 -2.212881,-0.0543 -3.315323,-0.16287 -1.102442,-0.1086 -2.196909,-0.27095 -3.283398,-0.48706 -1.086488,-0.21611 -2.15977,-0.48495 -3.219846,-0.80652 -1.060076,-0.32156 -2.101839,-0.69432 -3.12529,-1.11825 -1.023451,-0.42394 -2.023661,-0.89701 -3.000632,-1.41921 -0.97697,-0.5222 -1.925996,-1.09102 -2.847078,-1.70647 -0.92108,-0.61544 -1.809782,-1.27455 -2.666104,-1.97731 -0.856321,-0.70275 -1.67614,-1.4458 -2.4594566,-2.22912 C 9.1234827,158.42949 8.3804417,157.60966 7.6776767,156.75334 6.9749112,155.89703 6.315805,155.00832 5.7003579,154.08722 5.0849113,153.16615 4.5160875,152.21712 3.993886,151.24014 3.471684,150.26318 2.9986196,149.26297 2.5746925,148.23952 2.1507654,147.21608 1.7780168,146.17433 1.4564466,145.11426 1.1348765,144.05417 0.86603338,142.98088 0.64991713,141.89438 0.43380094,140.80791 0.27145237,139.71344 0.16287142,138.61101 0.05429047,137.50857 0,136.40346 0,135.29568 V 33.823925 C 0,32.716152 0.05429047,31.611044 0.16287142,30.508602 0.27145237,29.40616 0.43380094,28.311693 0.64991713,27.225204 0.86603338,26.138716 1.1348765,25.065434 1.4564466,24.005358 1.7780168,22.945282 2.1507654,21.903519 2.5746925,20.880068 2.9986196,19.856617 3.471684,18.856407 3.993886,17.879436 4.5160875,16.902466 5.0849118,15.95344 5.7003584,15.032358 6.3158054,14.111278 6.9749117,13.222576 7.6776772,12.366254 8.3804426,11.509933 9.1234827,10.690114 9.9067974,9.9067974 10.690114,9.1234827 11.509933,8.3804417 12.366254,7.6776767 13.222574,6.9749112 14.111276,6.315805 15.032356,5.7003579 15.953438,5.0849113 16.902464,4.5160875 17.879436,3.993886 18.856407,3.471684 19.856617,2.9986196 20.880068,2.5746925 21.903519,2.1507654 22.945282,1.7780168 24.005358,1.4564466 25.065434,1.1348765 26.138716,0.86603338 27.225204,0.64991713 28.311693,0.43380094 29.40616,0.27145237 30.508602,0.16287142 31.611044,0.05429047 32.716152,0 33.823925,0 Z" /></g></g></g></g></g></g><g
       id="g456"><g
         clip-path="url(#clipPath462)"
         id="g458"><g
           transform="matrix(2.0398052,0,0,2.0390282,757.15717,265.26129)"
           id="g464"><text
             id="text468"
             style="font-variant:normal;font-weight:bold;font-size:14px;font-family:OpenSans;-inkscape-font-specification:OpenSans-Bold;writing-mode:lr-tb;fill:#ffffff;fill-opacity:1;fill-rule:nonzero;stroke:none"
             transform="translate(79.499237,50.103828)"><tspan
               id="tspan466"
               y="0"
               x="0 4.6347656 13.302734 22.162109 25.798828 33.509766 41.78125 50.052734 58.734375 67.005859">Job Seeker</tspan></text>
<text
             id="text472"
             style="font-variant:normal;font-weight:normal;font-size:14px;font-family:OpenSans;-inkscape-font-specification:OpenSans-Regular;writing-mode:lr-tb;fill:#ffffff;fill-opacity:1;fill-rule:nonzero;stroke:none"
             transform="translate(88.710663,70.103828)"><tspan
               id="tspan470"
               y="0"
               x="0 4.6074219 13.036133 20.890625 26.605469 33.28418 41.740234 50.333008">[Person]</tspan></text>
<text
             id="text476"
             style="font-variant:normal;font-weight:normal;font-size:14px;font-family:OpenSans;-inkscape-font-specification:OpenSans-Regular;writing-mode:lr-tb;fill:#ffffff;fill-opacity:1;fill-rule:nonzero;stroke:none"
             transform="translate(29.675505,110.10383)"><tspan
               id="tspan474"
               y="0"
               x="0 8.4287109 14.143555 22.599609 27.34375 35.198242 41.876953 48.555664 52.09668 60.552734 69.145508 76.931641 80.472656 84.109375 90.788086 98.642578 106.49707 113.8457 117.38672 125.97949 133.64941 137.28613 145.07227 148.70898 152.25 160.70605 169.28516">Professional seeking a job.</tspan></text>
</g></g></g><g
       id="g478"><g
         clip-path="url(#clipPath484)"
         id="g480"><g
           clip-path="url(#clipPath490)"
           id="g486"><g
             clip-path="url(#clipPath496)"
             id="g492"><g
               clip-path="url(#clipPath502)"
               id="g498"><g
                 transform="matrix(2.0398052,0,0,2.0390282,887.37842,51.925529)"
                 id="g504"><path
                   id="path506"
                   style="fill:#08427b;fill-opacity:1;fill-rule:nonzero;stroke:none"
                   d="m 104.70776,53.347084 c 0,1.747185 -0.084,3.490162 -0.2521,5.228931 -0.16807,1.738766 -0.41936,3.464955 -0.75387,5.178563 -0.33451,1.713607 -0.75063,3.406387 -1.24837,5.078338 -0.49774,1.671944 -1.0747,3.31501 -1.73087,4.929199 -0.65617,1.61419 -1.388398,3.19172 -2.196679,4.732605 -0.808281,1.540871 -1.688728,3.037674 -2.641342,4.490395 -0.952606,1.452736 -1.972793,2.854401 -3.060554,4.204994 -1.087761,1.350594 -2.23787,2.643608 -3.450318,3.879044 -1.21244,1.235451 -2.481384,2.407371 -3.806831,3.51577 -1.325447,1.108406 -2.701012,2.147949 -4.126694,3.118629 -1.425682,0.970688 -2.894623,1.867844 -4.406814,2.691458 -1.512185,0.82362 -3.060349,1.56973 -4.644486,2.23834 -1.584129,0.66863 -3.196602,1.25653 -4.837425,1.76371 -1.640824,0.50718 -3.302086,0.9312 -4.983795,1.27205 -1.681706,0.34087 -3.375756,0.59693 -5.08215,0.76818 -1.706402,0.17125 -3.416927,0.25688 -5.131584,0.25688 -1.714649,0 -3.425175,-0.0856 -5.131577,-0.25688 -1.706401,-0.17125 -3.400455,-0.42731 -5.082164,-0.76818 -1.681706,-0.34085 -3.342972,-0.76487 -4.983792,-1.27205 -1.640819,-0.50718 -3.253299,-1.09508 -4.837432,-1.76371 -1.584132,-0.66861 -3.132294,-1.41473 -4.644484,-2.23835 -1.51219,-0.823612 -2.981127,-1.72076 -4.406811,-2.691448 C 21.841938,96.73288 20.466375,95.693344 19.14093,94.584938 17.815483,93.47654 16.546537,92.304619 15.334095,91.069168 14.121652,89.833733 12.971548,88.540718 11.883782,87.190125 10.796018,85.839531 9.7758293,84.437866 8.8232183,82.98513 7.8706079,81.532402 6.9901619,80.035599 6.1818795,78.49472 5.3735971,76.953842 4.6413708,75.376312 3.9852011,73.762123 3.3290315,72.147942 2.7520781,70.504875 2.2543404,68.832916 1.7566025,67.160973 1.3404773,65.468193 1.0059649,63.754578 0.67145252,62.04097 0.42016369,60.314781 0.2520982,58.576015 0.08403273,56.837246 0,55.094269 0,53.347084 0,51.599903 0.08403273,49.85693 0.2520982,48.118156 0.42016369,46.379387 0.67145252,44.653194 1.0059649,42.939583 1.3404773,41.225975 1.7566024,39.533195 2.2543402,37.861244 2.7520778,36.189293 3.3290315,34.546223 3.9852011,32.932037 4.6413708,31.317852 5.3735967,29.74032 6.181879,28.199442 c 0.8082824,-1.540876 1.6887289,-3.03768 2.6413393,-4.49041 0.952611,-1.45273 1.9727997,-2.854389 3.0605637,-4.204979 1.087766,-1.350592 2.23787,-2.64361 3.450313,-3.879055 1.212442,-1.235444 2.481388,-2.407366 3.806835,-3.515767 1.325445,-1.108401 2.701008,-2.1479435 4.12669,-3.1186266 1.425684,-0.9706831 2.894623,-1.8678322 4.406813,-2.6914487 1.51219,-0.8236165 3.060352,-1.5697336 4.644483,-2.2383513 1.584133,-0.6686178 3.19661,-1.2565167 4.837433,-1.7636969 C 38.797169,1.789927 40.458435,1.3659077 42.140141,1.0250491 43.821846,0.68419069 45.5159,0.42813462 47.222301,0.25688076 48.928703,0.08562692 50.639229,0 52.353878,0 c 1.714657,0 3.425182,0.08562692 5.13158,0.25688076 1.706395,0.17125386 3.400444,0.42730993 5.08215,0.76816834 1.681705,0.3408586 3.342975,0.7648779 4.983799,1.2720584 1.640823,0.5071802 3.253296,1.0950791 4.837425,1.7636969 1.584137,0.6686177 3.132301,1.4147353 4.644486,2.2383518 1.512191,0.823616 2.981132,1.7207651 4.406814,2.6914482 1.425682,0.9706831 2.801247,2.0102256 4.126694,3.1186276 1.325447,1.1084 2.594391,2.280322 3.806831,3.515766 1.212448,1.235445 2.362557,2.528463 3.450318,3.879055 1.087761,1.35059 2.107948,2.752249 3.060554,4.204975 0.952614,1.45273 1.833061,2.949534 2.641342,4.49041 0.808281,1.540878 1.540509,3.11841 2.196679,4.732596 0.65617,1.614189 1.23313,3.257259 1.73087,4.929206 0.49774,1.671952 0.91386,3.364731 1.24837,5.078343 0.33451,1.713611 0.5858,3.439804 0.75387,5.178573 0.16807,1.738774 0.2521,3.481747 0.2521,5.228928 z" /><path
                   id="path508"
                   style="fill:none;stroke:#0c4178;stroke-width:1;stroke-linecap:butt;stroke-linejoin:miter;stroke-miterlimit:10;stroke-dasharray:none;stroke-opacity:1"
                   d="m 104.70776,53.347084 c 0,1.747185 -0.084,3.490162 -0.2521,5.228931 -0.16807,1.738766 -0.41936,3.464955 -0.75387,5.178563 -0.33451,1.713607 -0.75063,3.406387 -1.24837,5.078338 -0.49774,1.671944 -1.0747,3.31501 -1.73087,4.929199 -0.65617,1.61419 -1.388398,3.19172 -2.196679,4.732605 -0.808281,1.540871 -1.688728,3.037674 -2.641342,4.490395 -0.952606,1.452736 -1.972793,2.854401 -3.060554,4.204994 -1.087761,1.350594 -2.23787,2.643608 -3.450318,3.879044 -1.21244,1.235451 -2.481384,2.407371 -3.806831,3.51577 -1.325447,1.108406 -2.701012,2.147949 -4.126694,3.118629 -1.425682,0.970688 -2.894623,1.867844 -4.406814,2.691458 -1.512185,0.82362 -3.060349,1.56973 -4.644486,2.23834 -1.584129,0.66863 -3.196602,1.25653 -4.837425,1.76371 -1.640824,0.50718 -3.302086,0.9312 -4.983795,1.27205 -1.681706,0.34087 -3.375756,0.59693 -5.08215,0.76818 -1.706402,0.17125 -3.416927,0.25688 -5.131584,0.25688 -1.714649,0 -3.425175,-0.0856 -5.131577,-0.25688 -1.706401,-0.17125 -3.400455,-0.42731 -5.082164,-0.76818 -1.681706,-0.34085 -3.342972,-0.76487 -4.983792,-1.27205 -1.640819,-0.50718 -3.253299,-1.09508 -4.837432,-1.76371 -1.584132,-0.66861 -3.132294,-1.41473 -4.644484,-2.23835 -1.51219,-0.823612 -2.981127,-1.72076 -4.406811,-2.691448 C 21.841938,96.73288 20.466375,95.693344 19.14093,94.584938 17.815483,93.47654 16.546537,92.304619 15.334095,91.069168 14.121652,89.833733 12.971548,88.540718 11.883782,87.190125 10.796018,85.839531 9.7758293,84.437866 8.8232183,82.98513 7.8706079,81.532402 6.9901619,80.035599 6.1818795,78.49472 5.3735971,76.953842 4.6413708,75.376312 3.9852011,73.762123 3.3290315,72.147942 2.7520781,70.504875 2.2543404,68.832916 1.7566025,67.160973 1.3404773,65.468193 1.0059649,63.754578 0.67145252,62.04097 0.42016369,60.314781 0.2520982,58.576015 0.08403273,56.837246 0,55.094269 0,53.347084 0,51.599903 0.08403273,49.85693 0.2520982,48.118156 0.42016369,46.379387 0.67145252,44.653194 1.0059649,42.939583 1.3404773,41.225975 1.7566024,39.533195 2.2543402,37.861244 2.7520778,36.189293 3.3290315,34.546223 3.9852011,32.932037 4.6413708,31.317852 5.3735967,29.74032 6.181879,28.199442 c 0.8082824,-1.540876 1.6887289,-3.03768 2.6413393,-4.49041 0.952611,-1.45273 1.9727997,-2.854389 3.0605637,-4.204979 1.087766,-1.350592 2.23787,-2.64361 3.450313,-3.879055 1.212442,-1.235444 2.481388,-2.407366 3.806835,-3.515767 1.325445,-1.108401 2.701008,-2.1479435 4.12669,-3.1186266 1.425684,-0.9706831 2.894623,-1.8678322 4.406813,-2.6914487 1.51219,-0.8236165 3.060352,-1.5697336 4.644483,-2.2383513 1.584133,-0.6686178 3.19661,-1.2565167 4.837433,-1.7636969 C 38.797169,1.789927 40.458435,1.3659077 42.140141,1.0250491 43.821846,0.68419069 45.5159,0.42813462 47.222301,0.25688076 48.928703,0.08562692 50.639229,0 52.353878,0 c 1.714657,0 3.425182,0.08562692 5.13158,0.25688076 1.706395,0.17125386 3.400444,0.42730993 5.08215,0.76816834 1.681705,0.3408586 3.342975,0.7648779 4.983799,1.2720584 1.640823,0.5071802 3.253296,1.0950791 4.837425,1.7636969 1.584137,0.6686177 3.132301,1.4147353 4.644486,2.2383518 1.512191,0.823616 2.981132,1.7207651 4.406814,2.6914482 1.425682,0.9706831 2.801247,2.0102256 4.126694,3.1186276 1.325447,1.1084 2.594391,2.280322 3.806831,3.515766 1.212448,1.235445 2.362557,2.528463 3.450318,3.879055 1.087761,1.35059 2.107948,2.752249 3.060554,4.204975 0.952614,1.45273 1.833061,2.949534 2.641342,4.49041 0.808281,1.540878 1.540509,3.11841 2.196679,4.732596 0.65617,1.614189 1.23313,3.257259 1.73087,4.929206 0.49774,1.671952 0.91386,3.364731 1.24837,5.078343 0.33451,1.713611 0.5858,3.439804 0.75387,5.178573 0.16807,1.738774 0.2521,3.481747 0.2521,5.228928 z" /></g></g></g></g></g></g><g
       id="g510"><g
         clip-path="url(#clipPath516)"
         id="g512"><g
           clip-path="url(#clipPath522)"
           id="g518"><g
             clip-path="url(#clipPath528)"
             id="g524"><g
               clip-path="url(#clipPath534)"
               id="g530"><g
                 transform="matrix(2.0398052,0,0,2.0390282,994.14099,592.86853)"
                 id="g536"><path
                   id="path538"
                   style="fill:#646464;fill-opacity:1;fill-rule:nonzero;stroke:none"
                   d="M 1,0 V 8 H -1 V 0 m 2,16 v 8 h -2 v -8 m 2,16 v 8 h -2 v -8 m 2,16 v 8 h -2 v -8 m 2,16 v 8 h -2 v -8 m 2,16 v 8 h -2 v -8 m 2,16 v 7.17174 H -1 V 96" /></g></g></g></g></g></g><g
       id="g540"><g
         clip-path="url(#clipPath546)"
         id="g542"><g
           transform="matrix(0,2.0390282,-2.0398052,0,994.14099,834.0835)"
           id="g548"><path
             id="path550"
             style="fill:#646464;fill-opacity:1;fill-rule:nonzero;stroke:none"
             d="M -18.90909,-5.818182 0,0 -18.90909,5.818182 Z" /></g><g
           transform="matrix(2.0398052,0,0,2.0390282,687.15033,664.63593)"
           id="g552"><text
             id="text556"
             style="font-variant:normal;font-weight:normal;font-size:14px;font-family:OpenSans;-inkscape-font-specification:OpenSans-Regular;writing-mode:lr-tb;fill:#444444;fill-opacity:1;fill-rule:nonzero;stroke:none"
             transform="translate(6.6992188,14)"><tspan
               id="tspan554"
               y="0"
               x="0 8.5927734 17.171875 20.712891 29.168945 36.955078 45.53418 52.212891 55.849609 61.564453 69.418945 76.097656 84.69043 97.712891 105.56738 109.2041 116.99023 125.58301 134.16211 137.79883 150.82129 158.60742 167.2002 174.98633 182.65625 190.51074 197.18945 200.82617 209.41895 212.95996 219.63867 223.27539 229.94043 237.72656 246.31934 254.89844 258.43945 267.01855 274.80469 279.74707 287.60156">uploads resume and manages his candidate </tspan></text>
<text
             id="text560"
             style="font-variant:normal;font-weight:normal;font-size:14px;font-family:OpenSans;-inkscape-font-specification:OpenSans-Regular;writing-mode:lr-tb;fill:#444444;fill-opacity:1;fill-rule:nonzero;stroke:none"
             transform="translate(129.28467,34)"><tspan
               id="tspan558"
               y="0"
               x="0 8.5791016 14.293945 22.75 31.035156 34.576172">proﬁle</tspan></text>
</g></g></g><g
       id="g562"><g
         clip-path="url(#clipPath568)"
         id="g564"><g
           clip-path="url(#clipPath574)"
           id="g570"><g
             clip-path="url(#clipPath580)"
             id="g576"><g
               clip-path="url(#clipPath586)"
               id="g582"><g
                 transform="matrix(2.0398052,0,0,2.0390282,1298.7578,592.86853)"
                 id="g588"><path
                   id="path590"
                   style="fill:#646464;fill-opacity:1;fill-rule:nonzero;stroke:none"
                   d="m 154.75867,0.57665545 -4.61325,6.53589955 -1.63398,-1.1533107 4.61325,-6.53589975 m -7.59251,14.22511045 -4.61325,6.5359 -1.63397,-1.153313 4.61325,-6.535898 m -7.59252,14.225111 -4.61325,6.535898 -1.63397,-1.153313 4.61325,-6.535898 m -7.59251,14.225111 -4.61325,6.5359 -1.63397,-1.153312 4.61325,-6.5359 m -7.59252,14.225112 -4.61325,6.535901 -1.63397,-1.153313 4.61325,-6.5359 m -7.59251,14.225105 -4.61325,6.535904 -1.63398,-1.153305 4.61325,-6.535904 m -7.592518,14.225105 -4.613243,6.535904 -1.633972,-1.153305 4.613243,-6.535904 m -7.592514,14.225106 -4.613243,6.535903 -1.633972,-1.153305 4.613243,-6.535904 m -7.592514,14.225109 -4.613243,6.53589 -1.633973,-1.1533 4.613244,-6.5359 m -7.592514,14.22511 -4.613244,6.53589 -1.633972,-1.1533 4.613243,-6.5359 m -7.592514,14.22511 -4.613243,6.5359 -1.633972,-1.15332 4.613243,-6.5359 m -7.592514,14.22512 -4.613243,6.53591 -1.633972,-1.15332 4.613243,-6.53591 m -7.592522,14.22512 -4.613243,6.5359 -1.633972,-1.15332 4.613243,-6.5359 m -7.592514,14.22513 -4.613241,6.53588 -1.633976,-1.15332 4.613245,-6.53588 m -7.592512,14.22511 -4.613236,6.5359 -1.633976,-1.15332 4.613236,-6.5359 m -7.592511,14.22513 -4.613236,6.53588 -1.633974,-1.15332 4.613235,-6.53588" /></g></g></g></g></g></g><g
       id="g592"><g
         clip-path="url(#clipPath598)"
         id="g594"><g
           transform="matrix(-1.1762646,1.6658603,-1.6664952,-1.1758165,1298.7578,1037.5801)"
           id="g600"><path
             id="path602"
             style="fill:#646464;fill-opacity:1;fill-rule:nonzero;stroke:none"
             d="M -18.90909,-5.818182 0,0 -18.90909,5.818182 Z" /></g><g
           transform="matrix(2.0398052,0,0,2.0390282,1147.302,776.52673)"
           id="g604"><text
             id="text608"
             style="font-variant:normal;font-weight:normal;font-size:14px;font-family:OpenSans;-inkscape-font-specification:OpenSans-Regular;writing-mode:lr-tb;fill:#444444;fill-opacity:1;fill-rule:nonzero;stroke:none"
             transform="translate(13.429199,14)"><tspan
               id="tspan606"
               y="0"
               x="0 13.022461 20.808594 24.349609 32.942383 37.884766 45.670898 49.211914 57.804688 64.483398 68.120117 76.699219 80.240234 88.026367 92.96875 97.712891 106.16895 111.88379 124.90625 128.54297 132.08398 140.67676 145.4209 153.87695 159.5918 172.61426 180.40039 185.34277 188.88379 197.33984 205.93262 209.56934 217.35547 225.94824 234.52734 238.16406 245.17773 248.71875 256.57324 267.46289 274.1416">maintains platform information and views </tspan></text>
<text
             id="text612"
             style="font-variant:normal;font-weight:normal;font-size:14px;font-family:OpenSans;-inkscape-font-specification:OpenSans-Regular;writing-mode:lr-tb;fill:#444444;fill-opacity:1;fill-rule:nonzero;stroke:none"
             transform="translate(95.665527,34)"><tspan
               id="tspan610"
               y="0"
               x="0 7.7861328 16.378906 24.165039 27.706055 34.760742 39.703125 43.244141 49.90918 56.587891 61.728516 67.443359 75.297852 83.876953 92.333008 98.047852 102.99023">analytics/reports</tspan></text>
</g></g></g></g></svg>