<?xml version="1.0" encoding="UTF-8" standalone="no"?>
<svg
   xmlns:dc="http://purl.org/dc/elements/1.1/"
   xmlns:cc="http://creativecommons.org/ns#"
   xmlns:rdf="http://www.w3.org/1999/02/22-rdf-syntax-ns#"
   xmlns:svg="http://www.w3.org/2000/svg"
   xmlns="http://www.w3.org/2000/svg"
   viewBox="0 0 650.56 656"
   height="656"
   width="650.56"
   xml:space="preserve"
   id="svg2"
   version="1.1"><metadata
     id="metadata8"><rdf:RDF><cc:Work
         rdf:about=""><dc:format>image/svg+xml</dc:format><dc:type
           rdf:resource="http://purl.org/dc/dcmitype/StillImage" /></cc:Work></rdf:RDF></metadata><defs
     id="defs6"><clipPath
       id="clipPath18"
       clipPathUnits="userSpaceOnUse"><path
         style="clip-rule:evenodd"
         id="path16"
         d="M 0,0 H 2033.3333 V 2048.9502 H 0 Z" /></clipPath><clipPath
       id="clipPath30"
       clipPathUnits="userSpaceOnUse"><path
         style="clip-rule:evenodd"
         id="path28"
         d="M 0,0 H 2033.3333 V 2048.9502 H 0 Z" /></clipPath><clipPath
       id="clipPath42"
       clipPathUnits="userSpaceOnUse"><path
         style="clip-rule:evenodd"
         id="path40"
         d="M 0,0 H 2033.3333 V 2048.9502 H 0 Z" /></clipPath><clipPath
       id="clipPath54"
       clipPathUnits="userSpaceOnUse"><path
         style="clip-rule:evenodd"
         id="path52"
         d="M 93.518692,591.22168 H 561.34804 V 903.95483 H 93.518692 Z" /></clipPath><clipPath
       id="clipPath68"
       clipPathUnits="userSpaceOnUse"><path
         style="clip-rule:evenodd"
         id="path66"
         d="M 0,0 H 2033.3333 V 2048.9502 H 0 Z" /></clipPath><clipPath
       id="clipPath92"
       clipPathUnits="userSpaceOnUse"><path
         style="clip-rule:evenodd"
         id="path90"
         d="M 70.263885,571.36438 H 1386.9227 V 1463.3074 H 70.263885 Z" /></clipPath><clipPath
       id="clipPath104"
       clipPathUnits="userSpaceOnUse"><path
         style="clip-rule:evenodd"
         id="path102"
         d="M 0,0 H 2033.3333 V 2048.9502 H 0 Z" /></clipPath><clipPath
       id="clipPath122"
       clipPathUnits="userSpaceOnUse"><path
         style="clip-rule:evenodd"
         id="path120"
         d="m 828.68311,1651.2432 h 467.82939 v 312.7331 H 828.68311 Z" /></clipPath><clipPath
       id="clipPath136"
       clipPathUnits="userSpaceOnUse"><path
         style="clip-rule:evenodd"
         id="path134"
         d="M 0,0 H 2033.3333 V 2048.9502 H 0 Z" /></clipPath><clipPath
       id="clipPath158"
       clipPathUnits="userSpaceOnUse"><path
         style="clip-rule:evenodd"
         id="path156"
         d="m 1547.5533,610.17346 h 467.8294 v 312.73315 h -467.8294 z" /></clipPath><clipPath
       id="clipPath172"
       clipPathUnits="userSpaceOnUse"><path
         style="clip-rule:evenodd"
         id="path170"
         d="M 0,0 H 2033.3333 V 2048.9502 H 0 Z" /></clipPath><clipPath
       id="clipPath194"
       clipPathUnits="userSpaceOnUse"><path
         style="clip-rule:evenodd"
         id="path192"
         d="m 94.14299,1015.5612 h 467.82935 v 312.7332 H 94.14299 Z" /></clipPath><clipPath
       id="clipPath208"
       clipPathUnits="userSpaceOnUse"><path
         style="clip-rule:evenodd"
         id="path206"
         d="M 0,0 H 2033.3333 V 2048.9502 H 0 Z" /></clipPath><clipPath
       id="clipPath230"
       clipPathUnits="userSpaceOnUse"><path
         id="path228"
         d="M 0,0 H 2033.3333 V 2048.9502 H 0 Z" /></clipPath><clipPath
       id="clipPath236"
       clipPathUnits="userSpaceOnUse"><path
         id="path234"
         d="M 0,0 H 2033.3333 V 2048.9502 H 0 Z" /></clipPath><clipPath
       id="clipPath242"
       clipPathUnits="userSpaceOnUse"><path
         id="path240"
         d="M 324.3075,900.80865 H 1348.7374 V 1933.3214 H 324.3075 Z" /></clipPath><clipPath
       id="clipPath248"
       clipPathUnits="userSpaceOnUse"><path
         style="clip-rule:evenodd"
         id="path246"
         d="m 324.3075,931.98584 h 27.67944 v 34.4693 H 324.3075 m 0,-65.64649 H 1347.8289 V 1932.1462 H 324.3075" /></clipPath><clipPath
       id="clipPath260"
       clipPathUnits="userSpaceOnUse"><path
         style="clip-rule:evenodd"
         id="path258"
         d="M 0,0 H 2033.3333 V 2048.9502 H 0 Z" /></clipPath><clipPath
       id="clipPath278"
       clipPathUnits="userSpaceOnUse"><path
         id="path276"
         d="M 0,0 H 2033.3333 V 2048.9502 H 0 Z" /></clipPath><clipPath
       id="clipPath284"
       clipPathUnits="userSpaceOnUse"><path
         id="path282"
         d="M 0,0 H 2033.3333 V 2048.9502 H 0 Z" /></clipPath><clipPath
       id="clipPath290"
       clipPathUnits="userSpaceOnUse"><path
         id="path288"
         d="M 80.953384,150.38017 H 568.64228 v 134.0255 H 80.953384 Z" /></clipPath><clipPath
       id="clipPath296"
       clipPathUnits="userSpaceOnUse"><path
         id="path294"
         d="m 104.44949,284.40567 c -31.328137,0 -31.328137,-134.0255 0,-134.0255 h 440.69669 c 31.32812,0 31.32812,134.0255 0,134.0255 z" /></clipPath><clipPath
       id="clipPath310"
       clipPathUnits="userSpaceOnUse"><path
         id="path308"
         d="M 0,0 H 2033.3333 V 2048.9502 H 0 Z" /></clipPath><clipPath
       id="clipPath316"
       clipPathUnits="userSpaceOnUse"><path
         id="path314"
         d="M 0,0 H 2033.3333 V 2048.9502 H 0 Z" /></clipPath><clipPath
       id="clipPath322"
       clipPathUnits="userSpaceOnUse"><path
         id="path320"
         d="M 80.953384,150.38017 H 568.64228 v 134.0255 H 80.953384 Z" /></clipPath><clipPath
       id="clipPath334"
       clipPathUnits="userSpaceOnUse"><path
         style="clip-rule:evenodd"
         id="path332"
         d="M 0,0 H 2033.3333 V 2048.9502 H 0 Z" /></clipPath><clipPath
       id="clipPath352"
       clipPathUnits="userSpaceOnUse"><path
         id="path350"
         d="M 0,0 H 2033.3333 V 2048.9502 H 0 Z" /></clipPath><clipPath
       id="clipPath358"
       clipPathUnits="userSpaceOnUse"><path
         id="path356"
         d="M 0,0 H 2033.3333 V 2048.9502 H 0 Z" /></clipPath><clipPath
       id="clipPath364"
       clipPathUnits="userSpaceOnUse"><path
         id="path362"
         d="m 94.14299,1651.2432 h 467.82935 v 312.7331 H 94.14299 Z" /></clipPath><clipPath
       id="clipPath370"
       clipPathUnits="userSpaceOnUse"><path
         id="path368"
         d="m 94.14299,1674.745 c 0,-31.3358 467.82936,-31.3358 467.82936,0 v 265.7295 c 0,31.3358 -467.82936,31.3358 -467.82936,0 z" /></clipPath><clipPath
       id="clipPath384"
       clipPathUnits="userSpaceOnUse"><path
         style="clip-rule:evenodd"
         id="path382"
         d="m 94.14299,1651.2432 h 467.82935 v 312.7331 H 94.14299 Z" /></clipPath><clipPath
       id="clipPath396"
       clipPathUnits="userSpaceOnUse"><path
         style="clip-rule:evenodd"
         id="path394"
         d="M 0,0 H 2033.3333 V 2048.9502 H 0 Z" /></clipPath><clipPath
       id="clipPath418"
       clipPathUnits="userSpaceOnUse"><path
         id="path416"
         d="M 0,0 H 2033.3333 V 2048.9502 H 0 Z" /></clipPath><clipPath
       id="clipPath424"
       clipPathUnits="userSpaceOnUse"><path
         id="path422"
         d="M 0,0 H 2033.3333 V 2048.9502 H 0 Z" /></clipPath><clipPath
       id="clipPath430"
       clipPathUnits="userSpaceOnUse"><path
         id="path428"
         d="M 324.93176,1325.1794 H 1349.3617 V 2357.6921 H 324.93176 Z" /></clipPath><clipPath
       id="clipPath436"
       clipPathUnits="userSpaceOnUse"><path
         style="clip-rule:evenodd"
         id="path434"
         d="M 324.93176,1466.4364 H 476.8732 v 65.8051 H 324.93176 m 0,-207.0621 H 1348.4531 V 2356.5171 H 324.93176" /></clipPath><clipPath
       id="clipPath448"
       clipPathUnits="userSpaceOnUse"><path
         style="clip-rule:evenodd"
         id="path446"
         d="M 0,0 H 2033.3333 V 2048.9502 H 0 Z" /></clipPath><clipPath
       id="clipPath470"
       clipPathUnits="userSpaceOnUse"><path
         id="path468"
         d="M 0,0 H 2033.3333 V 2048.9502 H 0 Z" /></clipPath><clipPath
       id="clipPath476"
       clipPathUnits="userSpaceOnUse"><path
         id="path474"
         d="M 0,0 H 2033.3333 V 2048.9502 H 0 Z" /></clipPath><clipPath
       id="clipPath482"
       clipPathUnits="userSpaceOnUse"><path
         id="path480"
         d="M 321.65427,281.26852 H 1346.0842 V 1313.7812 H 321.65427 Z" /></clipPath><clipPath
       id="clipPath488"
       clipPathUnits="userSpaceOnUse"><path
         style="clip-rule:evenodd"
         id="path486"
         d="m 321.65427,363.82111 h 126.94009 v 34.46933 H 321.65427 m 0,-117.02192 H 1345.1757 V 1312.6062 H 321.65427" /></clipPath><clipPath
       id="clipPath500"
       clipPathUnits="userSpaceOnUse"><path
         style="clip-rule:evenodd"
         id="path498"
         d="M 0,0 H 2033.3333 V 2048.9502 H 0 Z" /></clipPath><clipPath
       id="clipPath518"
       clipPathUnits="userSpaceOnUse"><path
         style="clip-rule:evenodd"
         id="path516"
         d="m 828.68311,1015.5612 h 467.82939 v 312.7332 H 828.68311 Z" /></clipPath><clipPath
       id="clipPath532"
       clipPathUnits="userSpaceOnUse"><path
         style="clip-rule:evenodd"
         id="path530"
         d="M 0,0 H 2033.3333 V 2048.9502 H 0 Z" /></clipPath><clipPath
       id="clipPath558"
       clipPathUnits="userSpaceOnUse"><path
         id="path556"
         d="M 0,0 H 2033.3333 V 2048.9502 H 0 Z" /></clipPath><clipPath
       id="clipPath564"
       clipPathUnits="userSpaceOnUse"><path
         id="path562"
         d="M 0,0 H 2033.3333 V 2048.9502 H 0 Z" /></clipPath><clipPath
       id="clipPath570"
       clipPathUnits="userSpaceOnUse"><path
         id="path568"
         d="M 558.85339,1168.788 H 1583.2833 V 2201.3008 H 558.85339 Z" /></clipPath><clipPath
       id="clipPath576"
       clipPathUnits="userSpaceOnUse"><path
         style="clip-rule:evenodd"
         id="path574"
         d="m 603.43994,1168.788 h 111.21491 v 34.4692 H 603.43994 M 558.85339,1168.788 H 1582.3748 V 2200.1255 H 558.85339" /></clipPath><clipPath
       id="clipPath588"
       clipPathUnits="userSpaceOnUse"><path
         style="clip-rule:evenodd"
         id="path586"
         d="M 0,0 H 2033.3333 V 2048.9502 H 0 Z" /></clipPath><clipPath
       id="clipPath606"
       clipPathUnits="userSpaceOnUse"><path
         style="clip-rule:evenodd"
         id="path604"
         d="M 843.38513,610.17346 H 1311.2145 V 922.90661 H 843.38513 Z" /></clipPath><clipPath
       id="clipPath620"
       clipPathUnits="userSpaceOnUse"><path
         style="clip-rule:evenodd"
         id="path618"
         d="M 0,0 H 2033.3333 V 2048.9502 H 0 Z" /></clipPath><clipPath
       id="clipPath650"
       clipPathUnits="userSpaceOnUse"><path
         id="path648"
         d="M 0,0 H 2033.3333 V 2048.9502 H 0 Z" /></clipPath><clipPath
       id="clipPath656"
       clipPathUnits="userSpaceOnUse"><path
         id="path654"
         d="M 0,0 H 2033.3333 V 2048.9502 H 0 Z" /></clipPath><clipPath
       id="clipPath662"
       clipPathUnits="userSpaceOnUse"><path
         id="path660"
         d="M 1308.0642,763.43146 H 2332.4941 V 1795.9442 H 1308.0642 Z" /></clipPath><clipPath
       id="clipPath668"
       clipPathUnits="userSpaceOnUse"><path
         style="clip-rule:evenodd"
         id="path666"
         d="m 1308.0642,763.43146 h 180.2028 v 34.4693 h -180.2028 m 0,-34.4693 H 2331.5854 V 1794.769 H 1308.0642" /></clipPath><clipPath
       id="clipPath680"
       clipPathUnits="userSpaceOnUse"><path
         style="clip-rule:evenodd"
         id="path678"
         d="M 0,0 H 2033.3333 V 2048.9502 H 0 Z" /></clipPath><clipPath
       id="clipPath702"
       clipPathUnits="userSpaceOnUse"><path
         style="clip-rule:evenodd"
         id="path700"
         d="m 828.68311,1651.2432 h 467.82939 v 312.7331 H 828.68311 Z" /></clipPath><clipPath
       id="clipPath716"
       clipPathUnits="userSpaceOnUse"><path
         style="clip-rule:evenodd"
         id="path714"
         d="M 0,0 H 2033.3333 V 2048.9502 H 0 Z" /></clipPath></defs><g
     transform="matrix(0.31999998,0,0,0.31999998,0,1.64e-5)"
     id="g10"><g
       id="g12"><g
         clip-path="url(#clipPath18)"
         id="g14"><g
           transform="scale(3.1233997)"
           id="g20"><path
             id="path22"
             style="fill:#ffffff;fill-opacity:1;fill-rule:nonzero;stroke:none"
             d="M 0,0 H 651 V 656 H 0 Z" /></g></g></g><g
       id="g24"><g
         clip-path="url(#clipPath30)"
         id="g26"><g
           transform="scale(3.1214519,3.12221)"
           id="g32"><path
             id="path34"
             style="fill:#f2f2f2;fill-opacity:1;fill-rule:nonzero;stroke:none"
             d="M 0,0 H 651.40625 V 656.25 H 0 Z" /></g></g></g><g
       id="g36"><g
         clip-path="url(#clipPath42)"
         id="g38"><g
           transform="matrix(1.5664006,0,0,1.5667927,-4.8382502,-26.351452)"
           id="g44"><path
             id="path46"
             style="fill:#ffffff;fill-opacity:1;fill-rule:nonzero;stroke:none"
             d="M 0,0 H 1309.2649 V 1341.3951 H 0 Z" /></g></g></g><g
       id="g48"><g
         clip-path="url(#clipPath54)"
         id="g50"><g
           transform="matrix(1.5664066,0,0,1.5667871,93.518692,591.22168)"
           id="g56"><path
             id="path58"
             style="fill:#85bbef;fill-opacity:1;fill-rule:nonzero;stroke:none"
             d="M 0,0 H 298.66406 V 199.60156 H 0 Z" /><path
             id="path60"
             style="fill:none;stroke:#89b3de;stroke-width:1;stroke-linecap:butt;stroke-linejoin:miter;stroke-miterlimit:10;stroke-dasharray:none;stroke-opacity:1"
             d="M 0,0 H 298.66406 V 199.60156 H 0 Z" /></g></g></g><g
       id="g62"><g
         clip-path="url(#clipPath68)"
         id="g64"><g
           transform="matrix(1.5664066,0,0,1.5667871,109.15155,606.85834)"
           id="g70"><text
             id="text74"
             style="font-variant:normal;font-weight:bold;font-size:14px;font-family:OpenSans;-inkscape-font-specification:OpenSans-Bold;writing-mode:lr-tb;fill:#1a1a1a;fill-opacity:1;fill-rule:nonzero;stroke:none"
             transform="translate(50.806053,83.820702)"><tspan
               id="tspan72"
               y="0"
               x="0 13.200195 21.47168 28.430664 35.389648 43.845703 51.754883 60.026367 63.663086 71.572266 75.844727 82.803711 88.880859 97.152344 106.35352 114.625 120.98242 124.61914 137.81934 146.4873 155.34668 164.54785 168.82031">Message Listener Module</tspan></text>
<text
             id="text78"
             style="font-variant:normal;font-weight:normal;font-size:14px;font-family:OpenSans;-inkscape-font-specification:OpenSans-Regular;writing-mode:lr-tb;fill:#1a1a1a;fill-opacity:1;fill-rule:nonzero;stroke:none"
             transform="translate(32.465233,103.8207)"><tspan
               id="tspan76"
               y="0"
               x="0 7.2666016 10.807617 17.486328 22.428711 30.283203 38.875977 45.554688 49.191406 53.935547 62.391602 68.106445 71.743164 80.335938 88.19043 99.080078 102.7168 111.30957 119.90234 123.44336 131.89941 138.56445 145.91309 149.5498 162.57227 170.42676 177.10547 183.78418 191.57031 199.24023 207.09473">Listens for new unlock messages</tspan></text>
</g><g
           transform="matrix(2.0139513,0,0,2.0144408,70.263885,1991.8761)"
           id="g80"><text
             id="text84"
             style="font-variant:normal;font-weight:bold;font-size:14px;font-family:OpenSans;-inkscape-font-specification:OpenSans-Bold;writing-mode:lr-tb;fill:#1a1a1a;fill-opacity:1;fill-rule:nonzero;stroke:none"
             transform="translate(0,14)"><tspan
               id="tspan82"
               y="0"
               x="0 8.9208984 17.588867 31.335938 40.195312 48.863281 58.064453 66.335938 75.537109 81.614258 85.250977 95.614258 99.886719 108.34277 116.25195 122.60938 131.06543 144.8125 148.44922 153.87012 162.53809 168.89551 172.53223 181.45312 185.72559 193.99707 202.45312 208.81055 217.90918 222.18164 230.45312 242.43652 246.07324 253.78418 261.74805 268.70703 274.78418 283.05566 296.80273 300.43945 304.94434 308.58105 319.29297 328.53516 332.17188 336.80664 346.00781 352.08496 360.35645 368.26562 374.62305 383.0791 389.15625 393.42871 402.09668">Component Diagram for ClearView System - HR Integration</tspan></text>
</g></g></g><g
       id="g86"><g
         clip-path="url(#clipPath92)"
         id="g88"><g
           transform="matrix(1.5664066,0,0,1.5667871,70.263885,571.36438)"
           id="g94"><path
             id="path96"
             style="fill:#646464;fill-opacity:1;fill-rule:nonzero;stroke:none"
             d="m 16,-2 h 8 v 4 h -8 z m 16,0 h 8 v 4 h -8 z m 16,0 h 8.000004 V 2 H 48 Z m 16,0 h 8 v 4 h -8 z m 16,0 h 8 v 4 h -8 z m 16,0 h 8 v 4 h -8 z m 16.00001,0 H 120 v 4 h -7.99999 z M 128,-2 h 8 v 4 h -8 z m 16,0 h 8 v 4 h -8 z m 16,0 h 8 v 4 h -8 z m 16,0 h 8 v 4 h -8 z m 16,0 h 8 v 4 h -8 z m 16,0 h 8.00002 V 2 H 208 Z m 16.00002,0 H 232 v 4 h -7.99998 z M 240,-2 h 8 v 4 h -8 z m 16,0 h 8 v 4 h -8 z m 16,0 h 8 v 4 h -8 z m 16,0 h 8 v 4 h -8 z m 16,0 h 8 v 4 h -8 z m 16,0 h 8 v 4 h -8 z m 16,0 h 8 v 4 h -8 z m 16,0 h 8 v 4 h -8 z m 16,0 h 8 v 4 h -8 z m 16,0 h 8 v 4 h -8 z m 16,0 h 8 v 4 h -8 z m 16,0 h 8 v 4 h -8 z m 16.00003,0 H 440 v 4 h -7.99997 z m 16,0 H 456 v 4 h -7.99997 z M 464,-2 h 8 v 4 h -8 z m 16,0 h 7.99997 V 2 H 480 Z m 16,0 h 7.99997 V 2 H 496 Z m 16,0 h 8 v 4 h -8 z m 16,0 h 8 v 4 h -8 z m 16,0 h 8 v 4 h -8 z m 16,0 h 8 v 4 h -8 z m 16,0 h 8 v 4 h -8 z m 16,0 h 8 v 4 h -8 z m 16,0 h 8 v 4 h -8 z m 16,0 h 8 v 4 h -8 z m 16,0 h 8 v 4 h -8 z m 16,0 h 8 v 4 h -8 z m 16,0 h 8 v 4 h -8 z m 16,0 h 8 v 4 h -8 z m 16,0 h 8 v 4 h -8 z m 16,0 h 8 v 4 h -8 z m 16,0 h 8 v 4 h -8 z m 16,0 h 8 v 4 h -8 z m 16,0 h 8 v 4 h -8 z m 16,0 h 8 v 4 h -8 z m 16,0 h 8 v 4 h -8 z m 16,0 h 8 v 4 h -8 z m 16,0 h 8 v 4 h -8 z m 10.56006,9.4399414 v 7.9999996 h -4 V 7.4399414 Z m 0,15.9999996 v 7.999998 h -4 v -7.999998 z m 0,16 v 7.999997 h -4 v -7.999997 z m 0,16 v 8 h -4 v -8 z m 0,16 v 8 h -4 v -8 z m 0,16 v 8 h -4 v -8 z m 0,15.999999 v 8 h -4 v -8 z m 0,16 v 8 h -4 v -8 z m 0,16 v 8 h -4 v -8 z m 0,16 v 8 h -4 v -8 z m 0,16 v 8 h -4 v -8 z m 0,16 v 8 h -4 v -8 z m 0,16 v 8.00002 h -4 v -8.00002 z m 0,16 v 8 h -4 v -8 z m 0,16 v 8 h -4 v -8 z m 0,16 v 8 h -4 v -8 z m 0,16 v 8 h -4 v -8 z m 0,16 v 8 h -4 v -8 z m 0,16 v 7.99997 h -4 v -7.99997 z m 0,16 v 8 h -4 v -8 z m 0,16 v 8 h -4 v -8 z m 0,16 v 8 h -4 v -8 z m 0,16 v 8 h -4 v -8 z m 0,15.99997 v 8.00003 h -4 v -8.00003 z m 0,16.00003 v 8 h -4 v -8 z m 0,16 v 8 h -4 v -8 z m 0,16 v 8 h -4 v -8 z m 0,16 v 7.99997 h -4 v -7.99997 z m 0,16 v 8 h -4 v -8 z m 0,16 v 8 h -4 v -8 z m 0,16 v 8 h -4 v -8 z m 0,16 v 8 h -4 v -8 z m 0,16 v 8 h -4 v -8 z m 0,16 v 8 h -4 v -8 z m 0,16 v 8 h -4 v -8 z m 0,16 v 3.84155 h -8.15845 v -4 h 6.15845 v 2 h -2 v -1.84155 z m -16.15845,3.84155 h -8 v -4 h 8 z m -16,0 h -8 v -4 h 8 z m -16,0 h -8 v -4 h 8 z m -16,0 h -8 v -4 h 8 z m -16,0 h -8 v -4 h 8 z m -16,0 h -8 v -4 h 8 z m -16,0 h -8 v -4 h 8 z m -16,0 h -8 v -4 h 8 z m -16,0 h -8 v -4 h 8 z m -16,0 h -8 v -4 h 8 z m -16,0 h -8 v -4 h 8 z m -16,0 h -8 v -4 h 8 z m -16,0 h -8 v -4 h 8 z m -16,0 h -8 v -4 h 8 z m -16,0 h -8 v -4 h 8 z m -16,0 h -8 v -4 h 8 z m -16,0 h -8 v -4 h 8 z m -16,0 h -8 v -4 h 8 z m -16,0 h -8 v -4 h 8 z m -16,0 h -8 v -4 h 8 z m -16,0 h -8 v -4 h 8 z m -16,0 h -8 v -4 h 8 z m -16,0 h -8 v -4 h 8 z m -16,0 h -8 v -4 h 8 z m -16,0 h -8 v -4 h 8 z m -16,0 h -7.99997 v -4 h 7.99997 z m -16,0 h -8.00003 v -4 h 8.00003 z m -16,0 h -8.00003 v -4 h 8.00003 z m -16,0 h -8 v -4 h 8 z m -16,0 h -8 v -4 h 8 z m -15.99997,0 h -8.00003 v -4 h 8.00003 z m -16,0 h -8.00003 v -4 h 8.00003 z m -16.00003,0 h -8 v -4 h 8 z m -16,0 h -8 v -4 h 8 z m -16,0 h -8 v -4 h 8 z m -16,0 h -8 v -4 h 8 z m -16,0 h -8 v -4 h 8 z m -16,0 h -8 v -4 h 8 z m -16,0 h -8 v -4 h 8 z m -16,0 h -8 v -4 h 8 z m -16,0 h -8 v -4 h 8 z m -16,0 h -8 v -4 h 8 z m -16,0 h -8 v -4 h 8 z m -16,0 h -8 v -4 h 8 z m -16,0 h -8 v -4 h 8 z m -16,0 h -7.999999 v -4 h 7.999999 z m -15.999999,0 h -8 v -4 h 8 z m -16,0 h -8 v -4 h 8 z m -16,0 h -8 v -4 h 8 z m -16,0 h -8 v -4 h 8 z m -16,0 h -8 v -4 h 8 z m -16,0 H 2.4016113 v -4 H 10.401611 Z M -2,563.68311 v -8 h 4 v 8 z m 0,-16 v -8 h 4 v 8 z m 0,-16 v -8 h 4 v 8 z m 0,-16 v -8 h 4 v 8 z m 0,-16 v -8 h 4 v 8 z m 0,-16 v -8 h 4 v 8 z m 0,-16 v -8 h 4 v 8 z m 0,-16 v -8 h 4 v 8 z m 0,-16 v -8 h 4 v 8 z m 0,-16 v -8 h 4 v 8 z m 0,-16 v -8 h 4 v 8 z m 0,-16 v -8 h 4 v 8 z m 0,-16 v -8 h 4 v 8 z m 0,-16 v -8 h 4 v 8 z m 0,-16 v -8 h 4 v 8 z m 0,-16 v -8 h 4 v 8 z m 0,-16 v -8 h 4 v 8 z m 0,-16 v -8.00004 h 4 v 8.00004 z m 0,-16 v -8 h 4 v 8 z m 0,-16 v -8 h 4 v 8 z m 0,-16 v -8 h 4 v 8 z m 0,-16 v -8 h 4 v 8 z m 0,-16.00004 v -7.99996 h 4 v 7.99996 z m 0,-15.99996 v -8 h 4 v 8 z m 0,-16 v -8 h 4 v 8 z m 0,-16.00001 v -8 h 4 v 8 z m 0,-16 v -8 h 4 v 8 z m 0,-15.99996 v -8.00004 h 4 v 8.00004 z m 0,-16.00004 v -8 h 4 v 8 z m 0,-15.999995 v -8 h 4 v 8 z m 0,-16 v -8 h 4 v 8 z m 0,-16 v -7.999969 h 4 v 7.999969 z m 0,-16 v -8 h 4 v 8 z m 0,-16 v -8 h 4 v 8 z m 0,-16 v -7.999999 h 4 v 7.999999 z M -2,3.6831055 V -2 H 8 V 2 H 0 V 0 h 2 v 3.6831055 z" /></g></g></g><g
       id="g98"><g
         clip-path="url(#clipPath104)"
         id="g100"><g
           transform="matrix(1.5664066,0,0,1.5667871,114.8502,615.96161)"
           id="g106"><text
             id="text110"
             style="font-variant:normal;font-weight:bold;font-size:14px;font-family:OpenSans;-inkscape-font-specification:OpenSans-Bold;writing-mode:lr-tb;fill:#1a1a1a;fill-opacity:1;fill-rule:nonzero;stroke:none"
             transform="translate(0,486.35333)"><tspan
               id="tspan108"
               y="0"
               x="0 10.711914 19.954102 23.59082 28.225586 37.426758 43.503906 51.775391 59.68457 66.041992 74.498047 80.575195 84.847656 93.515625">HR Integration</tspan></text>
<text
             id="text114"
             style="font-variant:normal;font-weight:normal;font-size:14px;font-family:OpenSans;-inkscape-font-specification:OpenSans-Regular;writing-mode:lr-tb;fill:#1a1a1a;fill-opacity:1;fill-rule:nonzero;stroke:none"
             transform="translate(0,506.35333)"><tspan
               id="tspan112"
               y="0"
               x="0 8.8320312 17.288086 25.880859 30.823242 38.609375 42.150391 50.743164 58.597656 64.3125 68.038086 71.674805 80.506836 89.550781 93.1875 100.97363 109.56641 118.14551 121.78223 130.6416 143.60254 151.28613 154.92285 162.18945 169.97559 182.99805 191.57715 200.15625">Container: C# and AWS Lambda</tspan></text>
</g></g></g><g
       id="g116"><g
         clip-path="url(#clipPath122)"
         id="g118"><g
           transform="matrix(1.5664066,0,0,1.5667871,828.68311,1651.2432)"
           id="g124"><path
             id="path126"
             style="fill:#999999;fill-opacity:1;fill-rule:nonzero;stroke:none"
             d="M 0,0 H 298.66406 V 199.60156 H 0 Z" /><path
             id="path128"
             style="fill:none;stroke:#969696;stroke-width:1;stroke-linecap:butt;stroke-linejoin:miter;stroke-miterlimit:10;stroke-dasharray:none;stroke-opacity:1"
             d="M 0,0 H 298.66406 V 199.60156 H 0 Z" /></g></g></g><g
       id="g130"><g
         clip-path="url(#clipPath136)"
         id="g132"><g
           transform="matrix(1.5664066,0,0,1.5667871,844.31592,1666.8798)"
           id="g138"><text
             id="text142"
             style="font-variant:normal;font-weight:bold;font-size:14px;font-family:OpenSans;-inkscape-font-specification:OpenSans-Bold;writing-mode:lr-tb;fill:#ffffff;fill-opacity:1;fill-rule:nonzero;stroke:none"
             transform="translate(90.621971,63.820702)"><tspan
               id="tspan140"
               y="0"
               x="0 7.8408203 12.345703 12.345703 26.092773 34.548828 38.821289 43.09375 46.730469 54.441406 62.405273 69.364258 75.441406 83.712891">E- mail System</tspan></text>
<text
             id="text146"
             style="font-variant:normal;font-weight:normal;font-size:14px;font-family:OpenSans;-inkscape-font-specification:OpenSans-Regular;writing-mode:lr-tb;fill:#ffffff;fill-opacity:1;fill-rule:nonzero;stroke:none"
             transform="translate(80.272362,83.820702)"><tspan
               id="tspan144"
               y="0"
               x="0 4.6074219 12.291016 20.74707 25.491211 30.433594 41.323242 49.109375 54.824219 62.678711 66.31543 73.999023 81.053711 87.732422 92.674805 100.5293 113.55176">[Software System]</tspan></text>
<text
             id="text150"
             style="font-variant:normal;font-weight:normal;font-size:14px;font-family:OpenSans;-inkscape-font-specification:OpenSans-Regular;writing-mode:lr-tb;fill:#ffffff;fill-opacity:1;fill-rule:nonzero;stroke:none"
             transform="translate(33.497459,123.8207)"><tspan
               id="tspan148"
               y="0"
               x="0 7.6835938 15.538086 24.130859 32.709961 39.388672 43.025391 50.811523 59.404297 63.041016 70.895508 83.917969 91.704102 95.245117 98.786133 102.42285 113.3125 116.85352 121.7959 130.38867 134.02539 138.96777 147.56055 155.41504 159.05176 167.70605 175.56055 182.23926 190.83203 203.85449">Sends an email with the Resume</tspan></text>
</g></g></g><g
       id="g152"><g
         clip-path="url(#clipPath158)"
         id="g154"><g
           transform="matrix(1.5664066,0,0,1.5667871,1547.5533,610.17346)"
           id="g160"><path
             id="path162"
             style="fill:#999999;fill-opacity:1;fill-rule:nonzero;stroke:none"
             d="M 0,0 H 298.66406 V 199.60156 H 0 Z" /><path
             id="path164"
             style="fill:none;stroke:#969696;stroke-width:1;stroke-linecap:butt;stroke-linejoin:miter;stroke-miterlimit:10;stroke-dasharray:none;stroke-opacity:1"
             d="M 0,0 H 298.66406 V 199.60156 H 0 Z" /></g></g></g><g
       id="g166"><g
         clip-path="url(#clipPath172)"
         id="g168"><g
           transform="matrix(1.5664066,0,0,1.5667871,1563.1863,625.81012)"
           id="g174"><text
             id="text178"
             style="font-variant:normal;font-weight:bold;font-size:14px;font-family:OpenSans;-inkscape-font-specification:OpenSans-Bold;writing-mode:lr-tb;fill:#ffffff;fill-opacity:1;fill-rule:nonzero;stroke:none"
             transform="translate(76.369041,63.820702)"><tspan
               id="tspan176"
               y="0"
               x="0 11.142578 17.219727 26.420898 34.692383 41.049805 44.686523 55.398438 64.640625 68.277344 75.988281 83.952148 90.911133 96.988281 105.25977 119.00684">Other HR Systems</tspan></text>
<text
             id="text182"
             style="font-variant:normal;font-weight:normal;font-size:14px;font-family:OpenSans;-inkscape-font-specification:OpenSans-Regular;writing-mode:lr-tb;fill:#ffffff;fill-opacity:1;fill-rule:nonzero;stroke:none"
             transform="translate(80.272362,83.820702)"><tspan
               id="tspan180"
               y="0"
               x="0 4.6074219 12.291016 20.74707 25.491211 30.433594 41.323242 49.109375 54.824219 62.678711 66.31543 73.999023 81.053711 87.732422 92.674805 100.5293 113.55176">[Software System]</tspan></text>
<text
             id="text186"
             style="font-variant:normal;font-weight:normal;font-size:14px;font-family:OpenSans;-inkscape-font-specification:OpenSans-Regular;writing-mode:lr-tb;fill:#ffffff;fill-opacity:1;fill-rule:nonzero;stroke:none"
             transform="translate(14.049219,123.8207)"><tspan
               id="tspan184"
               y="0"
               x="0 7.7861328 15.121094 18.662109 25.34082 30.283203 33.824219 42.416992 50.086914 53.723633 64.052734 72.707031 76.34375 83.022461 91.478516 95.019531 103.6123 108.55469 112.0957 120.55176 129.14453 135.82324 139.45996 144.40234 152.99512 160.78125 165.72363 169.36035 177.93945 183.6543 192.11035 199.12402 202.66504 211.24414 219.09863 222.73535 231.59473 240.02344 243.92676">Existing HR solutions that provide APIs</tspan></text>
</g></g></g><g
       id="g188"><g
         clip-path="url(#clipPath194)"
         id="g190"><g
           transform="matrix(1.5664066,0,0,1.5667871,94.14299,1015.5612)"
           id="g196"><path
             id="path198"
             style="fill:#85bbef;fill-opacity:1;fill-rule:nonzero;stroke:none"
             d="M 0,0 H 298.66406 V 199.60156 H 0 Z" /><path
             id="path200"
             style="fill:none;stroke:#89b3de;stroke-width:1;stroke-linecap:butt;stroke-linejoin:miter;stroke-miterlimit:10;stroke-dasharray:none;stroke-opacity:1"
             d="M 0,0 H 298.66406 V 199.60156 H 0 Z" /></g></g></g><g
       id="g202"><g
         clip-path="url(#clipPath208)"
         id="g204"><g
           transform="matrix(1.5664066,0,0,1.5667871,109.77586,1031.1979)"
           id="g210"><text
             id="text214"
             style="font-variant:normal;font-weight:bold;font-size:14px;font-family:OpenSans;-inkscape-font-specification:OpenSans-Bold;writing-mode:lr-tb;fill:#1a1a1a;fill-opacity:1;fill-rule:nonzero;stroke:none"
             transform="translate(50.040428,53.820702)"><tspan
               id="tspan212"
               y="0"
               x="0 9.2421875 17.513672 24.472656 33.673828 47.420898 55.692383 59.329102 68.571289 76.842773 82.919922 89.277344 93.549805 101.82129 109.78516 118.24121 122.51367 126.15039 139.35059 148.01855 156.87793 166.0791 170.35156">Resume Retrieval Module</tspan></text>
<text
             id="text218"
             style="font-variant:normal;font-weight:normal;font-size:14px;font-family:OpenSans;-inkscape-font-specification:OpenSans-Regular;writing-mode:lr-tb;fill:#1a1a1a;fill-opacity:1;fill-rule:nonzero;stroke:none"
             transform="translate(26.131739,113.8207)"><tspan
               id="tspan216"
               y="0"
               x="0 12.639648 20.425781 27.774414 35.628906 42.307617 45.944336 54.598633 62.453125 69.131836 77.724609 90.74707 98.601562 102.23828 110.52344 114.06445 121.91895 125.55566 134.13477 137.67578 146.13184 154.71094 158.34766 166.92676 175.51953 184.09863 187.63965 191.18066 197.8457 201.48242 209.26855 217.86133 226.44043">Makes Resume ﬁle blob public and </tspan></text>
<text
             id="text222"
             style="font-variant:normal;font-weight:normal;font-size:14px;font-family:OpenSans;-inkscape-font-specification:OpenSans-Regular;writing-mode:lr-tb;fill:#1a1a1a;fill-opacity:1;fill-rule:nonzero;stroke:none"
             transform="translate(66.043358,133.82071)"><tspan
               id="tspan220"
               y="0"
               x="0 5.7148438 13.569336 18.511719 24.226562 27.767578 35.62207 42.635742 50.490234 57.168945 60.805664 65.748047 74.34082 82.195312 85.832031 96.024414 104.67871 111.94531 115.58203 120.32617 128.78223 134.49707 138.13379 141.6748 146.61719">retrieves the URL for it </tspan></text>
</g></g></g><g
       id="g224"><g
         clip-path="url(#clipPath230)"
         id="g226"><g
           clip-path="url(#clipPath236)"
           id="g232"><g
             clip-path="url(#clipPath242)"
             id="g238"><g
               clip-path="url(#clipPath248)"
               id="g244"><g
                 transform="matrix(1.5664066,0,0,1.5667871,327.44031,903.9422)"
                 id="g250"><path
                   id="path252"
                   style="fill:#646464;fill-opacity:1;fill-rule:nonzero;stroke:none"
                   d="M 0.99998373,-0.00570796 1.0456474,7.9941621 -0.95432001,8.005578 -0.99998373,0.00570796 M 1.0913112,15.994032 l 0.045664,7.999868 -1.99996738,0.01142 -0.0456637,-7.999871 m 2.09129488,15.988324 0.045664,7.99987 -1.99996734,0.01141 -0.0456637,-7.999866 m 2.09129494,15.988323 0.045664,7.999871 -1.9999674,0.01141 -0.0456637,-7.99987" /></g></g></g></g></g></g><g
       id="g254"><g
         clip-path="url(#clipPath260)"
         id="g256"><g
           transform="matrix(0.00894093,1.5667616,-1.5663811,0.0089431,328.0773,1015.5662)"
           id="g262"><path
             id="path264"
             style="fill:#646464;fill-opacity:1;fill-rule:nonzero;stroke:none"
             d="M -18.90909,-5.818182 0,0 -18.90909,5.818182 Z" /></g><g
           transform="matrix(1.5664066,0,0,1.5667871,303.42831,935.11938)"
           id="g266"><text
             id="text270"
             style="font-variant:normal;font-weight:normal;font-size:14px;font-family:OpenSans;-inkscape-font-specification:OpenSans-Regular;writing-mode:lr-tb;fill:#646464;fill-opacity:1;fill-rule:nonzero;stroke:none"
             transform="translate(0.59765625,14)"><tspan
               id="tspan268"
               y="0"
               x="0 8.5927734 15.271484 23.125977">uses</tspan></text>
</g></g></g><g
       id="g272"><g
         clip-path="url(#clipPath278)"
         id="g274"><g
           clip-path="url(#clipPath284)"
           id="g280"><g
             clip-path="url(#clipPath290)"
             id="g286"><g
               clip-path="url(#clipPath296)"
               id="g292"><g
                 transform="matrix(0,-1.5667871,1.5664066,0,80.953384,284.40567)"
                 id="g298"><path
                   id="path300"
                   style="fill:#438cd4;fill-opacity:1;fill-rule:evenodd;stroke:none"
                   d="M 0,15 C 0,-5 85.541611,-5 85.541611,15 v 281.34247 c 0,20 -85.541611,20 -85.541611,0 z" /><path
                   id="path302"
                   style="fill:none;stroke:#1a1a1a;stroke-width:1;stroke-linecap:butt;stroke-linejoin:miter;stroke-miterlimit:10;stroke-dasharray:none;stroke-opacity:1"
                   d="M 0,15 C 0,-5 85.541611,-5 85.541611,15 v 281.34247 c 0,20 -85.541611,20 -85.541611,0 z" /></g></g></g></g></g></g><g
       id="g304"><g
         clip-path="url(#clipPath310)"
         id="g306"><g
           clip-path="url(#clipPath316)"
           id="g312"><g
             clip-path="url(#clipPath322)"
             id="g318"><g
               transform="matrix(0,-1.5667871,1.5664066,0,80.953384,284.40567)"
               id="g324"><path
                 id="path326"
                 style="fill:none;stroke:#1a1a1a;stroke-width:1;stroke-linecap:butt;stroke-linejoin:miter;stroke-miterlimit:10;stroke-dasharray:none;stroke-opacity:1"
                 d="m 1,14.666667 c 0,20.000001 83.541611,20.000001 83.541611,0" /></g></g></g></g></g><g
       id="g328"><g
         clip-path="url(#clipPath334)"
         id="g330"><g
           transform="matrix(2.3096175,0,0,2.3101785,-89.460808,170.59755)"
           id="g336"><text
             id="text340"
             style="font-variant:normal;font-weight:bold;font-size:14px;font-family:OpenSans;-inkscape-font-specification:OpenSans-Bold;writing-mode:lr-tb;fill:#ffffff;fill-opacity:1;fill-rule:nonzero;stroke:none"
             transform="translate(128.87041,14)"><tspan
               id="tspan338"
               y="0"
               x="0 13.200195 21.47168 28.430664 35.389648 43.845703 51.754883 60.026367 63.663086 73.069336 79.426758 88.094727 96.776367 105.04785">Message Broker</tspan></text>
<text
             id="text344"
             style="font-variant:normal;font-weight:normal;font-size:14px;font-family:OpenSans;-inkscape-font-specification:OpenSans-Regular;writing-mode:lr-tb;fill:#ffffff;fill-opacity:1;fill-rule:nonzero;stroke:none"
             transform="translate(113.61943,34)"><tspan
               id="tspan342"
               y="0"
               x="0 4.6074219 13.439453 21.895508 30.488281 35.430664 43.216797 46.757812 55.350586 63.205078 68.919922 72.645508 76.282227 84.936523 92.722656 101.30176 109.88086 113.42188 118.36426 131.00391">[Container: RabbitMQ</tspan></text>
</g></g></g><g
       id="g346"><g
         clip-path="url(#clipPath352)"
         id="g348"><g
           clip-path="url(#clipPath358)"
           id="g354"><g
             clip-path="url(#clipPath364)"
             id="g360"><g
               clip-path="url(#clipPath370)"
               id="g366"><g
                 transform="matrix(1.5664066,0,0,1.5667871,94.14299,1651.2432)"
                 id="g372"><path
                   id="path374"
                   style="fill:#438cd4;fill-opacity:1;fill-rule:evenodd;stroke:none"
                   d="M 0,15 C 0,-5 298.66406,-5 298.66406,15 v 169.60156 c 0,20 -298.66406,20 -298.66406,0 z" /><path
                   id="path376"
                   style="fill:none;stroke:#1a1a1a;stroke-width:1;stroke-linecap:butt;stroke-linejoin:miter;stroke-miterlimit:10;stroke-dasharray:none;stroke-opacity:1"
                   d="M 0,15 C 0,-5 298.66406,-5 298.66406,15 v 169.60156 c 0,20 -298.66406,20 -298.66406,0 z" /></g></g></g></g></g></g><g
       id="g378"><g
         clip-path="url(#clipPath384)"
         id="g380"><g
           transform="matrix(1.5664066,0,0,1.5667871,94.14299,1651.2432)"
           id="g386"><path
             id="path388"
             style="fill:none;stroke:#1a1a1a;stroke-width:1;stroke-linecap:butt;stroke-linejoin:miter;stroke-miterlimit:10;stroke-dasharray:none;stroke-opacity:1"
             d="m 1,14.666667 c 0,20.000001 296.66406,20.000001 296.66406,0" /></g></g></g><g
       id="g390"><g
         clip-path="url(#clipPath396)"
         id="g392"><g
           transform="matrix(1.5664066,0,0,1.5667871,117.53445,1666.8798)"
           id="g398"><text
             id="text402"
             style="font-variant:normal;font-weight:bold;font-size:14px;font-family:OpenSans;-inkscape-font-specification:OpenSans-Bold;writing-mode:lr-tb;fill:#ffffff;fill-opacity:1;fill-rule:nonzero;stroke:none"
             transform="translate(90.252342,63.820702)"><tspan
               id="tspan400"
               y="0"
               x="0 9.40625 13.678711 22.34668 31.206055 34.842773 42.553711 48.630859 57.298828 63.65625 72.112305 80.021484">Blob Storage</tspan></text>
<text
             id="text406"
             style="font-variant:normal;font-weight:normal;font-size:14px;font-family:OpenSans;-inkscape-font-specification:OpenSans-Regular;writing-mode:lr-tb;fill:#ffffff;fill-opacity:1;fill-rule:nonzero;stroke:none"
             transform="translate(57.658592,83.820702)"><tspan
               id="tspan404"
               y="0"
               x="0 4.6074219 13.439453 21.895508 30.488281 35.430664 43.216797 46.757812 55.350586 63.205078 68.919922 72.645508 76.282227 85.141602 98.164062 105.9502 112.49902 120.95508 129.54785 133.18457 140.86816 148.87305">[Container: Amazon S3]</tspan></text>
<text
             id="text410"
             style="font-variant:normal;font-weight:normal;font-size:14px;font-family:OpenSans;-inkscape-font-specification:OpenSans-Regular;writing-mode:lr-tb;fill:#ffffff;fill-opacity:1;fill-rule:nonzero;stroke:none"
             transform="translate(49.735741,123.8207)"><tspan
               id="tspan408"
               y="0"
               x="0 7.6835938 12.625977 21.082031 26.796875 34.651367 41.330078 44.966797 51.631836 59.417969 68.010742 76.589844 80.130859 88.709961 96.496094 101.43848 109.29297 112.92969 118.64453 126.49902 133.17773 141.77051 154.79297 162.64746">Stores candidate resumes</tspan></text>
</g></g></g><g
       id="g412"><g
         clip-path="url(#clipPath418)"
         id="g414"><g
           clip-path="url(#clipPath424)"
           id="g420"><g
             clip-path="url(#clipPath430)"
             id="g426"><g
               clip-path="url(#clipPath436)"
               id="g432"><g
                 transform="matrix(1.5664066,0,0,1.5667871,328.06458,1328.313)"
                 id="g438"><path
                   id="path440"
                   style="fill:#646464;fill-opacity:1;fill-rule:nonzero;stroke:none"
                   d="M 0.99999994,0 V 7.9999995 H -0.99999994 V 0 m 1.99999988,15.999999 v 7.999999 h -1.99999988 v -7.999999 m 1.99999988,15.999999 v 7.999998 h -1.99999988 v -7.999998 m 1.99999988,15.999998 v 8 h -1.99999988 v -8 m 1.99999988,16 v 7.999996 h -1.99999988 v -7.999996 m 1.99999988,15.999996 v 8 h -1.99999988 v -8 m 1.99999988,16 v 7.999998 h -1.99999988 v -7.999998 m 1.99999988,15.999998 v 8 h -1.99999988 v -8 m 1.99999988,16 v 7.99999 h -1.99999988 v -7.99999 m 1.99999988,15.99999 v 8 h -1.99999988 v -8 m 1.99999988,16 v 8 h -1.99999988 v -8 m 1.99999988,16 v 8 h -1.99999988 v -8" /></g></g></g></g></g></g><g
       id="g442"><g
         clip-path="url(#clipPath448)"
         id="g444"><g
           transform="matrix(0,1.5667871,-1.5664066,0,328.06458,1651.2637)"
           id="g450"><path
             id="path452"
             style="fill:#646464;fill-opacity:1;fill-rule:nonzero;stroke:none"
             d="M -18.90909,-5.818182 0,0 -18.90909,5.818182 Z" /></g><g
           transform="matrix(1.5664066,0,0,1.5667871,179.25595,1469.57)"
           id="g454"><text
             id="text458"
             style="font-variant:normal;font-weight:normal;font-size:14px;font-family:OpenSans;-inkscape-font-specification:OpenSans-Regular;writing-mode:lr-tb;fill:#646464;fill-opacity:1;fill-rule:nonzero;stroke:none"
             transform="translate(0.4453125,14)"><tspan
               id="tspan456"
               y="0"
               x="0 8.6542969 16.508789 24.294922 32.874023 39.552734 43.189453 51.782227 60.375 63.916016 72.37207 79.037109 86.385742 94.240234 102.81934 106.45605 115.11035 122.96484 129.64355 138.23633 151.25879 159.11328 162.75 171.03516 174.57617 182.43066">Reads unlocked Resume ﬁles</tspan></text>
<text
             id="text462"
             style="font-variant:normal;font-weight:normal;font-size:14px;font-family:OpenSans;-inkscape-font-specification:OpenSans-Regular;writing-mode:lr-tb;fill:#646464;fill-opacity:1;fill-rule:nonzero;stroke:none"
             transform="translate(69.426758,34)"><tspan
               id="tspan460"
               y="0"
               x="0 4.6074219 14.936523 22.681641 30.426758 38.855469 46.539062">[HTTPS]</tspan></text>
</g></g></g><g
       id="g464"><g
         clip-path="url(#clipPath470)"
         id="g466"><g
           clip-path="url(#clipPath476)"
           id="g472"><g
             clip-path="url(#clipPath482)"
             id="g478"><g
               clip-path="url(#clipPath488)"
               id="g484"><g
                 transform="matrix(1.5664066,0,0,1.5667871,324.78708,284.4021)"
                 id="g490"><path
                   id="path492"
                   style="fill:#646464;fill-opacity:1;fill-rule:nonzero;stroke:none"
                   d="M 0.99996299,-0.00859844 1.0687505,7.9911056 -0.93117547,8.0083027 -0.99996299,0.00859844 M 1.137538,15.990809 l 0.068788,7.999704 -1.99992594,0.0172 -0.0687875,-7.999703 m 2.13750094,15.98221 0.068788,7.999705 -1.99992599,0.0172 -0.0687876,-7.999702 m 2.13750099,15.982208 0.068788,7.999706 -1.99992605,0.0172 -0.0687875,-7.999706 m 2.13750095,15.982212 0.068788,7.999706 -1.99992591,0.0172 -0.0687875,-7.999703 m 2.13750101,15.982208 0.068788,7.999703 -1.99992607,0.0172 -0.0687875,-7.999703 m 2.13750087,15.982208 0.068788,7.999708 -1.99992599,0.0172 -0.0687875,-7.999711 m 2.13750099,15.982221 0.068788,7.9997 -1.99992599,0.0172 -0.06878757,-7.9997 m 2.13750086,15.9822 0.068788,7.9997 -1.99992598,0.0172 -0.0687875,-7.99971 m 2.13750108,15.98221 0.068787,7.99969 -1.9999259,0.0172 -0.0687874,-7.99969 m 2.1375009,15.98219 0.068788,7.9997 -1.99992602,0.0172 -0.0687875,-7.99969 m 2.13750112,15.98219 0.040417,4.70039 -1.99992606,0.0172 -0.0404174,-4.70039" /></g></g></g></g></g></g><g
       id="g494"><g
         clip-path="url(#clipPath500)"
         id="g496"><g
           transform="matrix(0.01346866,1.5667292,-1.5663487,0.01347193,327.42462,591.21124)"
           id="g502"><path
             id="path504"
             style="fill:#646464;fill-opacity:1;fill-rule:nonzero;stroke:none"
             d="M -18.90909,-5.818182 0,0 -18.90909,5.818182 Z" /></g><g
           transform="matrix(1.5664066,0,0,1.5667871,202.66852,366.95468)"
           id="g506"><text
             id="text510"
             style="font-variant:normal;font-weight:normal;font-size:14px;font-family:OpenSans;-inkscape-font-specification:OpenSans-Regular;writing-mode:lr-tb;fill:#444444;fill-opacity:1;fill-rule:nonzero;stroke:none"
             transform="translate(0.44042969,14)"><tspan
               id="tspan508"
               y="0"
               x="0 8.5791016 17.171875 25.750977 29.291992 32.833008 39.511719 48.104492 51.741211 60.333984 68.926758 72.467773 80.923828 87.588867 94.9375 98.574219 111.59668 119.45117 126.12988 132.80859 140.59473 148.26465">publish unlock message</tspan></text>
</g></g></g><g
       id="g512"><g
         clip-path="url(#clipPath518)"
         id="g514"><g
           transform="matrix(1.5664066,0,0,1.5667871,828.68311,1015.5612)"
           id="g520"><path
             id="path522"
             style="fill:#85bbef;fill-opacity:1;fill-rule:nonzero;stroke:none"
             d="M 0,0 H 298.66406 V 199.60156 H 0 Z" /><path
             id="path524"
             style="fill:none;stroke:#89b3de;stroke-width:1;stroke-linecap:butt;stroke-linejoin:miter;stroke-miterlimit:10;stroke-dasharray:none;stroke-opacity:1"
             d="M 0,0 H 298.66406 V 199.60156 H 0 Z" /></g></g></g><g
       id="g526"><g
         clip-path="url(#clipPath532)"
         id="g528"><g
           transform="matrix(1.5664066,0,0,1.5667871,844.31592,1031.1979)"
           id="g534"><text
             id="text538"
             style="font-variant:normal;font-weight:bold;font-size:14px;font-family:OpenSans;-inkscape-font-specification:OpenSans-Bold;writing-mode:lr-tb;fill:#1a1a1a;fill-opacity:1;fill-rule:nonzero;stroke:none"
             transform="translate(69.389549,63.820702)"><tspan
               id="tspan536"
               y="0"
               x="0 10.137695 18.40918 24.486328 28.123047 37.365234 45.636719 52.595703 61.796875 75.543945 83.81543 87.452148 100.65234 109.32031 118.17969 127.38086 131.65332">Get Resume Module</tspan></text>
<text
             id="text542"
             style="font-variant:normal;font-weight:normal;font-size:14px;font-family:OpenSans;-inkscape-font-specification:OpenSans-Regular;writing-mode:lr-tb;fill:#1a1a1a;fill-opacity:1;fill-rule:nonzero;stroke:none"
             transform="translate(15.51211,123.8207)"><tspan
               id="tspan540"
               y="0"
               x="0 8.4287109 14.143555 22.599609 29.613281 33.154297 41.733398 49.587891 56.266602 59.90332 64.845703 73.438477 81.292969 84.929688 93.583984 101.43848 108.11719 116.70996 129.73242 137.58691 141.22363 144.76465 148.30566 156.89844 164.24707 167.88379 173.02441 176.66113 184.94629 188.4873 196.3418 199.97852 206.99219 210.5332 218.31934 221.95605 232.14844 239.93457">Provides the Resume link / ﬁle via GET</tspan></text>
</g><g
           transform="matrix(1.5664066,0,0,1.5667871,1062.6046,1328.313)"
           id="g544"><path
             id="path546"
             style="fill:#646464;fill-opacity:1;fill-rule:nonzero;stroke:none"
             d="M 0.99999994,0 V 7.9999995 H -0.99999994 V 0 m 1.99999988,15.999999 v 7.999999 h -1.99999988 v -7.999999 m 1.99999988,15.999999 v 7.999998 h -1.99999988 v -7.999998 m 1.99999988,15.999998 v 8 h -1.99999988 v -8 m 1.99999988,16 v 7.999996 h -1.99999988 v -7.999996 m 1.99999988,15.999996 v 8 h -1.99999988 v -8 m 1.99999988,16 v 7.999998 h -1.99999988 v -7.999998 m 1.99999988,15.999998 v 8 h -1.99999988 v -8 m 1.99999988,16 v 7.99999 h -1.99999988 v -7.99999 m 1.99999988,15.99999 v 8 h -1.99999988 v -8 m 1.99999988,16 v 8 h -1.99999988 v -8 m 1.99999988,16 v 8 h -1.99999988 v -8" /></g><g
           transform="matrix(0,1.5667871,-1.5664066,0,1062.6046,1651.2637)"
           id="g548"><path
             id="path550"
             style="fill:#646464;fill-opacity:1;fill-rule:nonzero;stroke:none"
             d="M -18.90909,-5.818182 0,0 -18.90909,5.818182 Z" /></g></g></g><g
       id="g552"><g
         clip-path="url(#clipPath558)"
         id="g554"><g
           clip-path="url(#clipPath564)"
           id="g560"><g
             clip-path="url(#clipPath570)"
             id="g566"><g
               clip-path="url(#clipPath576)"
               id="g572"><g
                 transform="matrix(1.5664066,0,0,1.5667871,561.98621,1171.9215)"
                 id="g578"><path
                   id="path580"
                   style="fill:#646464;fill-opacity:1;fill-rule:nonzero;stroke:none"
                   d="M 0,-1 H 8 V 1 H 0 Z m 16,0 h 8 v 2 h -8 z m 16,0 h 8 v 2 h -8 z m 16,0 h 8 v 2 h -8 z m 16,0 h 8 v 2 h -8 z m 16,0 H 85.13134 88 V 1 H 85.13134 80 Z m 16,0 h 8 v 2 h -8 z m 16,0 h 8 v 2 h -8 z m 16,0 h 8 v 2 h -8 z m 16,0 h 8 v 2 h -8 z" /></g></g></g></g></g></g><g
       id="g582"><g
         clip-path="url(#clipPath588)"
         id="g584"><g
           transform="matrix(1.5664066,0,0,1.5667871,828.68683,1171.9215)"
           id="g590"><path
             id="path592"
             style="fill:#646464;fill-opacity:1;fill-rule:nonzero;stroke:none"
             d="M -18.90909,-5.818182 0,0 -18.90909,5.818182 Z" /></g><g
           transform="matrix(1.5664066,0,0,1.5667871,606.57275,1140.5857)"
           id="g594"><text
             id="text598"
             style="font-variant:normal;font-weight:normal;font-size:14px;font-family:OpenSans;-inkscape-font-specification:OpenSans-Regular;writing-mode:lr-tb;fill:#646464;fill-opacity:1;fill-rule:nonzero;stroke:none"
             transform="translate(0.43310547,14)"><tspan
               id="tspan596"
               y="0"
               x="0 6.6787109 14.533203 23.125977 31.705078 38.383789 42.020508 52.212891 60.867188">sends URL</tspan></text>
</g></g></g><g
       id="g600"><g
         clip-path="url(#clipPath606)"
         id="g602"><g
           transform="matrix(1.5664066,0,0,1.5667871,843.38513,610.17346)"
           id="g608"><path
             id="path610"
             style="fill:#85bbef;fill-opacity:1;fill-rule:nonzero;stroke:none"
             d="M 0,0 H 298.66406 V 199.60156 H 0 Z" /><path
             id="path612"
             style="fill:none;stroke:#89b3de;stroke-width:1;stroke-linecap:butt;stroke-linejoin:miter;stroke-miterlimit:10;stroke-dasharray:none;stroke-opacity:1"
             d="M 0,0 H 298.66406 V 199.60156 H 0 Z" /></g></g></g><g
       id="g614"><g
         clip-path="url(#clipPath620)"
         id="g616"><g
           transform="matrix(1.5664066,0,0,1.5667871,859.01794,625.81012)"
           id="g622"><text
             id="text626"
             style="font-variant:normal;font-weight:bold;font-size:14px;font-family:OpenSans;-inkscape-font-specification:OpenSans-Bold;writing-mode:lr-tb;fill:#1a1a1a;fill-opacity:1;fill-rule:nonzero;stroke:none"
             transform="translate(45.785057,63.820702)"><tspan
               id="tspan624"
               y="0"
               x="0 9.2421875 17.513672 24.472656 33.673828 47.420898 55.692383 59.329102 67.012695 75.680664 82.038086 95.785156 104.24121 110.31836 116.39551 124.66699 131.02441 134.66113 147.86133 156.5293 165.38867 174.58984 178.8623">Resume Formatter Module</tspan></text>
<text
             id="text630"
             style="font-variant:normal;font-weight:normal;font-size:14px;font-family:OpenSans;-inkscape-font-specification:OpenSans-Regular;writing-mode:lr-tb;fill:#1a1a1a;fill-opacity:1;fill-rule:nonzero;stroke:none"
             transform="translate(26.757227,103.8207)"><tspan
               id="tspan628"
               y="0"
               x="0 7.2255859 15.681641 21.396484 34.418945 42.205078 47.147461 53.826172 57.462891 62.405273 70.998047 78.852539 82.489258 91.143555 98.998047 105.67676 114.26953 127.29199 135.14648 138.7832 145.46191 154.05469 160.71973 169.3125 172.94922 177.8916 186.48438 194.27051 199.21289 202.84961 206.39062 211.33301 214.96973 218.51074 225.18945">Formats the Resume such that it is </tspan></text>
<text
             id="text634"
             style="font-variant:normal;font-weight:normal;font-size:14px;font-family:OpenSans;-inkscape-font-specification:OpenSans-Regular;writing-mode:lr-tb;fill:#1a1a1a;fill-opacity:1;fill-rule:nonzero;stroke:none"
             transform="translate(41.071678,123.8207)"><tspan
               id="tspan632"
               y="0"
               x="0 7.7861328 14.451172 21.116211 28.970703 37.549805 42.492188 50.34668 58.925781 62.5625 71.141602 78.196289 81.833008 90.289062 95.231445 103.82422 111.67871 117.39355 121.03027 131.35938 140.01367 143.65039 150.3291 157.38379 164.0625 169.00488 176.85938 189.88184">accepted by other HR systems</tspan></text>
</g><g
           transform="matrix(1.5664066,0,0,1.5667871,561.98621,766.565)"
           id="g636"><path
             id="path638"
             style="fill:#646464;fill-opacity:1;fill-rule:nonzero;stroke:none"
             d="m 0,226.27615 h 7.9999995 v 2 H 0 Z m 15.999999,0 H 24 v 2 h -8.000001 z m 15.999999,0 H 40 v 2 h -8.000002 z m 16.000002,0 h 7.999996 v 2 H 48 Z m 15.999996,0 H 72 v 2 h -8.000004 z m 16.000004,0 h 1.823212 c 2.33731,-1e-5 4.07566,-0.54371 5.215057,-1.63107 l 1.380798,1.44687 c -1.525795,1.45612 -3.724418,2.18419 -6.595855,2.1842 H 80 Z m 8.823212,-8.52768 v -8 h 2 v 8 z m 0,-16 v -8 h 2 v 8 z m 0,-16 v -8 h 2 v 8 z m 0,-16 v -8 h 2 v 8 z m 0,-16 v -8 h 2 v 8 z m 0,-16 v -8 h 2 v 8 z m 0,-16 v -8 h 2 v 8 z m 0,-16 v -8.000004 h 2 v 8.000004 z m 0,-15.999996 v -8 h 2 v 8 z m 0,-16 v -8 h 2 v 8 z m 0,-16 v -8 h 2 v 8 z m 0,-16 v -8 h 2 v 8 z m 0,-16 v -8 h 2 v 8 z m 0,-15.9999999 V 8 c 0,-2.907527 0.746284,-5.1250072 2.238853,-6.6524413 l 1.430451,1.3977905 C 91.379639,3.8842149 90.823204,5.6357651 90.823212,8 V 9.7484741 Z M 99.425629,-1 h 8.000001 v 2 h -8.000001 z m 16.000001,0 h 8.00001 v 2 h -8.00001 z m 16,0 h 8.00001 v 2 h -8.00001 z m 16.00001,0 h 8 v 2 h -8 z m 16,0 h 1.09351 v 2 h -1.09351 z" /></g><g
           transform="matrix(1.5664066,0,0,1.5667871,843.3855,766.565)"
           id="g640"><path
             id="path642"
             style="fill:#646464;fill-opacity:1;fill-rule:nonzero;stroke:none"
             d="M -18.90909,-5.818182 0,0 -18.90909,5.818182 Z" /></g></g></g><g
       id="g644"><g
         clip-path="url(#clipPath650)"
         id="g646"><g
           clip-path="url(#clipPath656)"
           id="g652"><g
             clip-path="url(#clipPath662)"
             id="g658"><g
               clip-path="url(#clipPath668)"
               id="g664"><g
                 transform="matrix(1.5664066,0,0,1.5667871,1311.197,766.565)"
                 id="g670"><path
                   id="path672"
                   style="fill:#646464;fill-opacity:1;fill-rule:nonzero;stroke:none"
                   d="M 0,-1 H 8 V 1 H 0 m 16,-2 h 8 v 2 h -8 m 16,-2 h 8 v 2 h -8 m 16,-2 h 8 v 2 h -8 m 16,-2 h 8 v 2 h -8 m 16,-2 h 8 v 2 h -8 m 16,-2 h 8 v 2 h -8 m 16,-2 h 8 v 2 h -8 m 16,-2 h 7.75107 V 1 H 128" /></g></g></g></g></g></g><g
       id="g674"><g
         clip-path="url(#clipPath680)"
         id="g676"><g
           transform="matrix(1.5664066,0,0,1.5667871,1547.5339,766.565)"
           id="g682"><path
             id="path684"
             style="fill:#646464;fill-opacity:1;fill-rule:nonzero;stroke:none"
             d="M -18.90909,-5.818182 0,0 -18.90909,5.818182 Z" /></g><g
           transform="matrix(1.5664066,0,0,1.5667871,1229.8099,735.22925)"
           id="g686"><text
             id="text690"
             style="font-variant:normal;font-weight:normal;font-size:14px;font-family:OpenSans;-inkscape-font-specification:OpenSans-Regular;writing-mode:lr-tb;fill:#646464;fill-opacity:1;fill-rule:nonzero;stroke:none"
             transform="translate(0.32177734,14)"><tspan
               id="tspan688"
               y="0"
               x="0 6.6787109 14.533203 23.125977 31.705078 38.383789 42.020508 46.764648 55.220703 60.935547 73.958008 81.744141 86.686523 91.628906 99.483398 108.0625 111.69922 120.35352 128.20801 134.88672 143.47949 156.50195">sends formatted Resume</tspan></text>
<text
             id="text694"
             style="font-variant:normal;font-weight:normal;font-size:14px;font-family:OpenSans;-inkscape-font-specification:OpenSans-Regular;writing-mode:lr-tb;fill:#646464;fill-opacity:1;fill-rule:nonzero;stroke:none"
             transform="translate(56.926758,34)"><tspan
               id="tspan692"
               y="0"
               x="0 4.6074219 14.936523 22.681641 30.426758 38.855469 46.539062">[HTTPS]</tspan></text>
</g></g></g><g
       id="g696"><g
         clip-path="url(#clipPath702)"
         id="g698"><g
           transform="matrix(1.5664066,0,0,1.5667871,828.68311,1651.2432)"
           id="g704"><path
             id="path706"
             style="fill:#438cd4;fill-opacity:1;fill-rule:nonzero;stroke:none"
             d="M 0,0 H 298.66406 V 199.60156 H 0 Z" /><path
             id="path708"
             style="fill:none;stroke:#6195cb;stroke-width:1;stroke-linecap:butt;stroke-linejoin:miter;stroke-miterlimit:10;stroke-dasharray:none;stroke-opacity:1"
             d="M 0,0 H 298.66406 V 199.60156 H 0 Z" /></g></g></g><g
       id="g710"><g
         clip-path="url(#clipPath716)"
         id="g712"><g
           transform="matrix(1.5664066,0,0,1.5667871,844.31592,1666.8798)"
           id="g718"><text
             id="text722"
             style="font-variant:normal;font-weight:bold;font-size:14px;font-family:OpenSans;-inkscape-font-specification:OpenSans-Bold;writing-mode:lr-tb;fill:#ffffff;fill-opacity:1;fill-rule:nonzero;stroke:none"
             transform="translate(91.038963,73.820702)"><tspan
               id="tspan720"
               y="0"
               x="0 8.9208984 13.193359 21.464844 29.920898 36.27832 45.376953 49.649414 57.920898 69.904297 73.541016 83.200195 91.991211">ClearView API</tspan></text>
<text
             id="text726"
             style="font-variant:normal;font-weight:normal;font-size:14px;font-family:OpenSans;-inkscape-font-specification:OpenSans-Regular;writing-mode:lr-tb;fill:#ffffff;fill-opacity:1;fill-rule:nonzero;stroke:none"
             transform="translate(0.28505859,93.820702)"><tspan
               id="tspan724"
               y="0"
               x="0 4.6074219 13.439453 21.895508 30.488281 35.430664 43.216797 46.757812 55.350586 63.205078 68.919922 72.645508 76.282227 85.114258 94.158203 97.794922 105.58105 114.17383 122.75293 126.38965 135.24902 142.93262 151.36133 154.99805 158.72363 169.27832 177.06445 184.80957 188.44629 197.27832 205.73438 211.44922 219.30371 222.94043 235.90137 243.75586 252.33496 261.19434 269.62305 273.52637">[Container: C# and ASP .NET Core WebAPI]</tspan></text>
</g></g></g></g></svg>