<?xml version="1.0" encoding="UTF-8" standalone="no"?>
<svg
   xmlns:dc="http://purl.org/dc/elements/1.1/"
   xmlns:cc="http://creativecommons.org/ns#"
   xmlns:rdf="http://www.w3.org/1999/02/22-rdf-syntax-ns#"
   xmlns:svg="http://www.w3.org/2000/svg"
   xmlns="http://www.w3.org/2000/svg"
   viewBox="0 0 1051.84 741.44"
   height="741.44"
   width="1051.84"
   xml:space="preserve"
   id="svg2"
   version="1.1"><metadata
     id="metadata8"><rdf:RDF><cc:Work
         rdf:about=""><dc:format>image/svg+xml</dc:format><dc:type
           rdf:resource="http://purl.org/dc/dcmitype/StillImage" /></cc:Work></rdf:RDF></metadata><defs
     id="defs6"><clipPath
       id="clipPath18"
       clipPathUnits="userSpaceOnUse"><path
         style="clip-rule:evenodd"
         id="path16"
         d="M 0,0 H 3287.4998 V 2316.5479 H 0 Z" /></clipPath><clipPath
       id="clipPath30"
       clipPathUnits="userSpaceOnUse"><path
         style="clip-rule:evenodd"
         id="path28"
         d="M 0,0 H 3287.4998 V 2316.5479 H 0 Z" /></clipPath><clipPath
       id="clipPath42"
       clipPathUnits="userSpaceOnUse"><path
         style="clip-rule:evenodd"
         id="path40"
         d="M 0,0 H 3287.4998 V 2316.5479 H 0 Z" /></clipPath><clipPath
       id="clipPath54"
       clipPathUnits="userSpaceOnUse"><path
         style="clip-rule:evenodd"
         id="path52"
         d="M 198.65556,591.59949 H 3029.5374 V 1711.5908 H 198.65556 Z" /></clipPath><clipPath
       id="clipPath66"
       clipPathUnits="userSpaceOnUse"><path
         style="clip-rule:evenodd"
         id="path64"
         d="M 0,0 H 3287.4998 V 2316.5479 H 0 Z" /></clipPath><clipPath
       id="clipPath96"
       clipPathUnits="userSpaceOnUse"><path
         id="path94"
         d="M 0,0 H 3287.4998 V 2316.5479 H 0 Z" /></clipPath><clipPath
       id="clipPath102"
       clipPathUnits="userSpaceOnUse"><path
         id="path100"
         d="M 0,0 H 3287.4998 V 2319.6699 H 0 Z" /></clipPath><clipPath
       id="clipPath108"
       clipPathUnits="userSpaceOnUse"><path
         id="path106"
         d="M 671.92737,221.31926 H 1218.9041 V 371.57129 H 671.92737 Z" /></clipPath><clipPath
       id="clipPath114"
       clipPathUnits="userSpaceOnUse"><path
         id="path112"
         d="m 698.27985,371.57129 c -35.13666,0 -35.13666,-150.25203 0,-150.25203 h 494.27165 c 35.1367,0 35.1367,150.25203 0,150.25203 z" /></clipPath><clipPath
       id="clipPath128"
       clipPathUnits="userSpaceOnUse"><path
         id="path126"
         d="M 0,0 H 3287.4998 V 2316.5479 H 0 Z" /></clipPath><clipPath
       id="clipPath134"
       clipPathUnits="userSpaceOnUse"><path
         id="path132"
         d="M 0,0 H 3287.4998 V 2319.6699 H 0 Z" /></clipPath><clipPath
       id="clipPath140"
       clipPathUnits="userSpaceOnUse"><path
         id="path138"
         d="M 671.92737,221.31926 H 1218.9041 V 371.57129 H 671.92737 Z" /></clipPath><clipPath
       id="clipPath152"
       clipPathUnits="userSpaceOnUse"><path
         style="clip-rule:evenodd"
         id="path150"
         d="M 0,0 H 3287.4998 V 2316.5479 H 0 Z" /></clipPath><clipPath
       id="clipPath170"
       clipPathUnits="userSpaceOnUse"><path
         style="clip-rule:evenodd"
         id="path168"
         d="M 321.59714,963.37903 H 765.25049 V 1268.7472 H 321.59714 Z" /></clipPath><clipPath
       id="clipPath184"
       clipPathUnits="userSpaceOnUse"><path
         style="clip-rule:evenodd"
         id="path182"
         d="M 0,0 H 3287.4998 V 2316.5479 H 0 Z" /></clipPath><clipPath
       id="clipPath206"
       clipPathUnits="userSpaceOnUse"><path
         style="clip-rule:evenodd"
         id="path204"
         d="m 1762.4436,963.37903 h 462.1575 v 305.36817 h -462.1575 z" /></clipPath><clipPath
       id="clipPath220"
       clipPathUnits="userSpaceOnUse"><path
         style="clip-rule:evenodd"
         id="path218"
         d="M 0,0 H 3287.4998 V 2316.5479 H 0 Z" /></clipPath><clipPath
       id="clipPath242"
       clipPathUnits="userSpaceOnUse"><path
         style="clip-rule:evenodd"
         id="path240"
         d="m 1025.2627,963.37903 h 477.2364 v 305.36817 h -477.2364 z" /></clipPath><clipPath
       id="clipPath256"
       clipPathUnits="userSpaceOnUse"><path
         style="clip-rule:evenodd"
         id="path254"
         d="M 0,0 H 3287.4998 V 2316.5479 H 0 Z" /></clipPath><clipPath
       id="clipPath282"
       clipPathUnits="userSpaceOnUse"><path
         style="clip-rule:evenodd"
         id="path280"
         d="m 2484.8813,963.37903 h 477.2363 v 305.36817 h -477.2363 z" /></clipPath><clipPath
       id="clipPath296"
       clipPathUnits="userSpaceOnUse"><path
         style="clip-rule:evenodd"
         id="path294"
         d="M 0,0 H 3287.4998 V 2316.5479 H 0 Z" /></clipPath><clipPath
       id="clipPath314"
       clipPathUnits="userSpaceOnUse"><path
         id="path312"
         d="M 0,0 H 3287.4998 V 2316.5479 H 0 Z" /></clipPath><clipPath
       id="clipPath320"
       clipPathUnits="userSpaceOnUse"><path
         id="path318"
         d="M 0,0 H 3287.4998 V 2319.6699 H 0 Z" /></clipPath><clipPath
       id="clipPath326"
       clipPathUnits="userSpaceOnUse"><path
         id="path324"
         d="M 539.91547,368.048 H 2393.374 V 1676.6248 H 539.91547 Z" /></clipPath><clipPath
       id="clipPath332"
       clipPathUnits="userSpaceOnUse"><path
         style="clip-rule:evenodd"
         id="path330"
         d="M 570.69958,654.06848 H 857.06335 V 692.711 H 570.69958 M 539.91547,368.048 H 2392.4956 V 1676.2734 H 539.91547" /></clipPath><clipPath
       id="clipPath344"
       clipPathUnits="userSpaceOnUse"><path
         style="clip-rule:evenodd"
         id="path342"
         d="M 0,0 H 3287.4998 V 2316.5479 H 0 Z" /></clipPath><clipPath
       id="clipPath362"
       clipPathUnits="userSpaceOnUse"><path
         id="path360"
         d="M 0,0 H 3287.4998 V 2316.5479 H 0 Z" /></clipPath><clipPath
       id="clipPath368"
       clipPathUnits="userSpaceOnUse"><path
         id="path366"
         d="M 0,0 H 3287.4998 V 2319.6699 H 0 Z" /></clipPath><clipPath
       id="clipPath374"
       clipPathUnits="userSpaceOnUse"><path
         id="path372"
         d="m 281.08511,1777.172 h 524.70288 v 350.5958 H 281.08511 Z" /></clipPath><clipPath
       id="clipPath380"
       clipPathUnits="userSpaceOnUse"><path
         id="path378"
         d="m 281.08511,1803.5192 c 0,-35.1296 524.70285,-35.1296 524.70285,0 v 297.9015 c 0,35.1296 -524.70285,35.1296 -524.70285,0 z" /></clipPath><clipPath
       id="clipPath394"
       clipPathUnits="userSpaceOnUse"><path
         style="clip-rule:evenodd"
         id="path392"
         d="m 281.08511,1777.172 h 524.70288 v 350.5958 H 281.08511 Z" /></clipPath><clipPath
       id="clipPath406"
       clipPathUnits="userSpaceOnUse"><path
         style="clip-rule:evenodd"
         id="path404"
         d="M 0,0 H 3287.4998 V 2316.5479 H 0 Z" /></clipPath><clipPath
       id="clipPath428"
       clipPathUnits="userSpaceOnUse"><path
         id="path426"
         d="M 0,0 H 3287.4998 V 2316.5479 H 0 Z" /></clipPath><clipPath
       id="clipPath434"
       clipPathUnits="userSpaceOnUse"><path
         id="path432"
         d="M 0,0 H 3287.4998 V 2319.6699 H 0 Z" /></clipPath><clipPath
       id="clipPath440"
       clipPathUnits="userSpaceOnUse"><path
         id="path438"
         d="m 1064.1816,1777.172 h 524.7029 v 350.5958 h -524.7029 z" /></clipPath><clipPath
       id="clipPath446"
       clipPathUnits="userSpaceOnUse"><path
         id="path444"
         d="m 1064.1816,1803.5192 c 0,-35.1296 524.7029,-35.1296 524.7029,0 v 297.9015 c 0,35.1296 -524.7029,35.1296 -524.7029,0 z" /></clipPath><clipPath
       id="clipPath460"
       clipPathUnits="userSpaceOnUse"><path
         style="clip-rule:evenodd"
         id="path458"
         d="m 1064.1816,1777.172 h 524.7029 v 350.5958 h -524.7029 z" /></clipPath><clipPath
       id="clipPath472"
       clipPathUnits="userSpaceOnUse"><path
         style="clip-rule:evenodd"
         id="path470"
         d="M 0,0 H 3287.4998 V 2316.5479 H 0 Z" /></clipPath><clipPath
       id="clipPath494"
       clipPathUnits="userSpaceOnUse"><path
         style="clip-rule:evenodd"
         id="path492"
         d="m 1972.9373,169.13551 h 524.7029 v 350.59595 h -524.7029 z" /></clipPath><clipPath
       id="clipPath508"
       clipPathUnits="userSpaceOnUse"><path
         style="clip-rule:evenodd"
         id="path506"
         d="M 0,0 H 3287.4998 V 2316.5479 H 0 Z" /></clipPath><clipPath
       id="clipPath534"
       clipPathUnits="userSpaceOnUse"><path
         id="path532"
         d="M 0,0 H 3287.4998 V 2316.5479 H 0 Z" /></clipPath><clipPath
       id="clipPath540"
       clipPathUnits="userSpaceOnUse"><path
         id="path538"
         d="M 0,0 H 3287.4998 V 2319.6699 H 0 Z" /></clipPath><clipPath
       id="clipPath546"
       clipPathUnits="userSpaceOnUse"><path
         id="path544"
         d="M 1498.9908,516.19775 H 3352.4492 V 1824.7744 H 1498.9908 Z" /></clipPath><clipPath
       id="clipPath552"
       clipPathUnits="userSpaceOnUse"><path
         style="clip-rule:evenodd"
         id="path550"
         d="m 1592.8348,780.79883 h 423.3966 v 38.64258 h -423.3966 m -93.844,-303.24366 h 1852.58 V 1824.4231 h -1852.58" /></clipPath><clipPath
       id="clipPath564"
       clipPathUnits="userSpaceOnUse"><path
         style="clip-rule:evenodd"
         id="path562"
         d="M 0,0 H 3287.4998 V 2316.5479 H 0 Z" /></clipPath><clipPath
       id="clipPath582"
       clipPathUnits="userSpaceOnUse"><path
         id="path580"
         d="M 0,0 H 3287.4998 V 2316.5479 H 0 Z" /></clipPath><clipPath
       id="clipPath588"
       clipPathUnits="userSpaceOnUse"><path
         id="path586"
         d="M 0,0 H 3287.4998 V 2319.6699 H 0 Z" /></clipPath><clipPath
       id="clipPath594"
       clipPathUnits="userSpaceOnUse"><path
         id="path592"
         d="M 2338.3733,516.19775 H 4191.832 V 1824.7744 H 2338.3733 Z" /></clipPath><clipPath
       id="clipPath600"
       clipPathUnits="userSpaceOnUse"><path
         style="clip-rule:evenodd"
         id="path598"
         d="m 2357.8633,727.76019 h 289.8774 v 38.64252 h -289.8774 m -19.49,-250.20496 H 4190.9531 V 1824.4231 H 2338.3733" /></clipPath><clipPath
       id="clipPath612"
       clipPathUnits="userSpaceOnUse"><path
         style="clip-rule:evenodd"
         id="path610"
         d="M 0,0 H 3287.4998 V 2316.5479 H 0 Z" /></clipPath><clipPath
       id="clipPath630"
       clipPathUnits="userSpaceOnUse"><path
         id="path628"
         d="M 0,0 H 3287.4998 V 2316.5479 H 0 Z" /></clipPath><clipPath
       id="clipPath636"
       clipPathUnits="userSpaceOnUse"><path
         id="path634"
         d="M 0,0 H 3287.4998 V 2319.6699 H 0 Z" /></clipPath><clipPath
       id="clipPath642"
       clipPathUnits="userSpaceOnUse"><path
         id="path640"
         d="M 2017.026,516.19775 H 3870.4844 V 1824.7744 H 2017.026 Z" /></clipPath><clipPath
       id="clipPath648"
       clipPathUnits="userSpaceOnUse"><path
         style="clip-rule:evenodd"
         id="path646"
         d="m 2017.026,728.51733 h 296.7377 v 38.64252 H 2017.026 m 0,-250.9621 h 1852.58 V 1824.4231 h -1852.58" /></clipPath><clipPath
       id="clipPath660"
       clipPathUnits="userSpaceOnUse"><path
         style="clip-rule:evenodd"
         id="path658"
         d="M 0,0 H 3287.4998 V 2316.5479 H 0 Z" /></clipPath><clipPath
       id="clipPath678"
       clipPathUnits="userSpaceOnUse"><path
         id="path676"
         d="M 0,0 H 3287.4998 V 2316.5479 H 0 Z" /></clipPath><clipPath
       id="clipPath684"
       clipPathUnits="userSpaceOnUse"><path
         id="path682"
         d="M 0,0 H 3287.4998 V 2319.6699 H 0 Z" /></clipPath><clipPath
       id="clipPath690"
       clipPathUnits="userSpaceOnUse"><path
         id="path688"
         d="M 1498.9908,1112.5441 H 3352.4492 V 2421.1206 H 1498.9908 Z" /></clipPath><clipPath
       id="clipPath696"
       clipPathUnits="userSpaceOnUse"><path
         style="clip-rule:evenodd"
         id="path694"
         d="m 1570.0802,1118.4249 h 103.6532 v 38.6426 h -103.6532 m -71.0894,-44.5234 h 1852.58 v 1308.2254 h -1852.58" /></clipPath><clipPath
       id="clipPath708"
       clipPathUnits="userSpaceOnUse"><path
         style="clip-rule:evenodd"
         id="path706"
         d="M 0,0 H 3287.4998 V 2316.5479 H 0 Z" /></clipPath><clipPath
       id="clipPath726"
       clipPathUnits="userSpaceOnUse"><path
         id="path724"
         d="M 0,0 H 3287.4998 V 2316.5479 H 0 Z" /></clipPath><clipPath
       id="clipPath732"
       clipPathUnits="userSpaceOnUse"><path
         id="path730"
         d="M 0,0 H 3287.4998 V 2319.6699 H 0 Z" /></clipPath><clipPath
       id="clipPath738"
       clipPathUnits="userSpaceOnUse"><path
         id="path736"
         d="M 1323.0433,1265.2532 H 3176.5019 V 2573.8298 H 1323.0433 Z" /></clipPath><clipPath
       id="clipPath744"
       clipPathUnits="userSpaceOnUse"><path
         style="clip-rule:evenodd"
         id="path742"
         d="m 1453.0586,1495.9089 h 319.7435 v 38.6425 H 1453.0586 M 1323.0433,1265.2532 H 3175.6235 V 2573.4785 H 1323.0433" /></clipPath><clipPath
       id="clipPath756"
       clipPathUnits="userSpaceOnUse"><path
         style="clip-rule:evenodd"
         id="path754"
         d="M 0,0 H 3287.4998 V 2316.5479 H 0 Z" /></clipPath><clipPath
       id="clipPath774"
       clipPathUnits="userSpaceOnUse"><path
         id="path772"
         d="M 0,0 H 3287.4998 V 2316.5479 H 0 Z" /></clipPath><clipPath
       id="clipPath780"
       clipPathUnits="userSpaceOnUse"><path
         id="path778"
         d="M 0,0 H 3287.4998 V 2319.6699 H 0 Z" /></clipPath><clipPath
       id="clipPath786"
       clipPathUnits="userSpaceOnUse"><path
         id="path784"
         d="M 1323.0433,1265.2532 H 3176.5019 V 2573.8298 H 1323.0433 Z" /></clipPath><clipPath
       id="clipPath792"
       clipPathUnits="userSpaceOnUse"><path
         style="clip-rule:evenodd"
         id="path790"
         d="m 1868.2939,1498.844 h 326.771 v 38.6426 h -326.771 M 1323.0433,1265.2532 H 3175.6235 V 2573.4785 H 1323.0433" /></clipPath><clipPath
       id="clipPath804"
       clipPathUnits="userSpaceOnUse"><path
         style="clip-rule:evenodd"
         id="path802"
         d="M 0,0 H 3287.4998 V 2316.5479 H 0 Z" /></clipPath><clipPath
       id="clipPath822"
       clipPathUnits="userSpaceOnUse"><path
         id="path820"
         d="M 0,0 H 3287.4998 V 2316.5479 H 0 Z" /></clipPath><clipPath
       id="clipPath828"
       clipPathUnits="userSpaceOnUse"><path
         id="path826"
         d="M 0,0 H 3287.4998 V 2319.6699 H 0 Z" /></clipPath><clipPath
       id="clipPath834"
       clipPathUnits="userSpaceOnUse"><path
         id="path832"
         d="M 2221.0852,1112.5441 H 4074.5437 V 2421.1206 H 2221.0852 Z" /></clipPath><clipPath
       id="clipPath840"
       clipPathUnits="userSpaceOnUse"><path
         style="clip-rule:evenodd"
         id="path838"
         d="m 2292.1965,1112.5441 h 103.6531 v 22.1266 h -103.6531 m -71.1113,-22.1266 H 4073.6653 V 2420.7695 H 2221.0852" /></clipPath><clipPath
       id="clipPath852"
       clipPathUnits="userSpaceOnUse"><path
         style="clip-rule:evenodd"
         id="path850"
         d="M 0,0 H 3287.4998 V 2316.5479 H 0 Z" /></clipPath><clipPath
       id="clipPath870"
       clipPathUnits="userSpaceOnUse"><path
         id="path868"
         d="M 0,0 H 3287.4998 V 2316.5479 H 0 Z" /></clipPath><clipPath
       id="clipPath876"
       clipPathUnits="userSpaceOnUse"><path
         id="path874"
         d="M 0,0 H 3287.4998 V 2319.6699 H 0 Z" /></clipPath><clipPath
       id="clipPath882"
       clipPathUnits="userSpaceOnUse"><path
         id="path880"
         d="M 941.91193,368.048 H 2795.3704 V 1676.6248 H 941.91193 Z" /></clipPath><clipPath
       id="clipPath888"
       clipPathUnits="userSpaceOnUse"><path
         style="clip-rule:evenodd"
         id="path886"
         d="M 961.32062,654.26648 H 1252.9548 V 692.909 H 961.32062 M 941.91193,368.048 H 2794.4919 V 1676.2734 H 941.91193" /></clipPath><clipPath
       id="clipPath900"
       clipPathUnits="userSpaceOnUse"><path
         style="clip-rule:evenodd"
         id="path898"
         d="M 0,0 H 3287.4998 V 2316.5479 H 0 Z" /></clipPath><clipPath
       id="clipPath918"
       clipPathUnits="userSpaceOnUse"><path
         id="path916"
         d="M 0,0 H 3287.4998 V 2316.5479 H 0 Z" /></clipPath><clipPath
       id="clipPath924"
       clipPathUnits="userSpaceOnUse"><path
         id="path922"
         d="M 0,0 H 3287.4998 V 2319.6699 H 0 Z" /></clipPath><clipPath
       id="clipPath930"
       clipPathUnits="userSpaceOnUse"><path
         id="path928"
         d="M 539.91547,1265.2532 H 2393.374 V 2573.8298 H 539.91547 Z" /></clipPath><clipPath
       id="clipPath936"
       clipPathUnits="userSpaceOnUse"><path
         style="clip-rule:evenodd"
         id="path934"
         d="m 539.91547,1492.9607 h 92.2337 v 38.6426 h -92.2337 m 0,-266.3501 H 2392.4956 V 2573.4785 H 539.91547" /></clipPath><clipPath
       id="clipPath948"
       clipPathUnits="userSpaceOnUse"><path
         style="clip-rule:evenodd"
         id="path946"
         d="M 0,0 H 3287.4998 V 2316.5479 H 0 Z" /></clipPath></defs><g
     transform="matrix(0.31999998,0,0,0.31999998,0,2.1869334e-5)"
     id="g10"><g
       id="g12"><g
         clip-path="url(#clipPath18)"
         id="g14"><g
           transform="scale(3.1220322)"
           id="g20"><path
             id="path22"
             style="fill:#ffffff;fill-opacity:1;fill-rule:nonzero;stroke:none"
             d="M 0,0 H 1053 V 743 H 0 Z" /></g></g></g><g
       id="g24"><g
         clip-path="url(#clipPath30)"
         id="g26"><g
           transform="scale(3.1235154,3.1228859)"
           id="g32"><path
             id="path34"
             style="fill:#f2f2f2;fill-opacity:1;fill-rule:nonzero;stroke:none"
             d="M 0,0 H 1052.5 V 742.79688 H 0 Z" /></g></g></g><g
       id="g36"><g
         clip-path="url(#clipPath42)"
         id="g38"><g
           transform="matrix(1.7568347,0,0,1.7564794,-25.175535,-30.541822)"
           id="g44"><path
             id="path46"
             style="fill:#ffffff;fill-opacity:1;fill-rule:nonzero;stroke:none"
             d="M 0,0 H 1953.038 V 1363.6498 H 0 Z" /></g></g></g><g
       id="g48"><g
         clip-path="url(#clipPath54)"
         id="g50"><g
           transform="matrix(1.7568327,0,0,1.7564788,198.65556,591.59949)"
           id="g56"><path
             id="path58"
             style="fill:#646464;fill-opacity:1;fill-rule:nonzero;stroke:none"
             d="m 16,-2 h 8 v 4 h -8 z m 16,0 h 8 v 4 h -8 z m 16,0 h 8 v 4 h -8 z m 16,0 h 8 v 4 h -8 z m 16,0 h 8 v 4 h -8 z m 16,0 h 8.00001 V 2 H 96 Z m 16,0 h 7.99999 V 2 H 112 Z m 16,0 h 8 v 4 h -8 z m 16,0 h 8 v 4 h -8 z m 16,0 h 8 v 4 h -8 z m 16,0 h 8 v 4 h -8 z m 16,0 h 8 v 4 h -8 z m 16.00002,0 H 216 v 4 h -7.99998 z M 224,-2 h 8.00002 V 2 H 224 Z m 15.99998,0 H 248 v 4 h -8.00002 z M 256,-2 h 8 v 4 h -8 z m 16,0 h 8 v 4 h -8 z m 16,0 h 8 v 4 h -8 z m 16,0 h 8 v 4 h -8 z m 16,0 h 8 v 4 h -8 z m 16,0 h 8 v 4 h -8 z m 16,0 h 8 v 4 h -8 z m 16,0 h 8 v 4 h -8 z m 16,0 h 8 v 4 h -8 z m 16,0 h 8 v 4 h -8 z m 16.00003,0 h 7.99994 v 4 h -7.99994 z M 432,-2 h 8 v 4 h -8 z m 16,0 h 8 v 4 h -8 z m 16.00003,0 h 8 v 4 h -8 z m 15.99994,0 H 488 v 4 h -8.00003 z M 496,-2 h 8 v 4 h -8 z m 16,0 h 8 v 4 h -8 z m 16,0 h 8 v 4 h -8 z m 16,0 h 8 v 4 h -8 z m 16,0 h 8 v 4 h -8 z m 16,0 h 8 v 4 h -8 z m 16,0 h 8 v 4 h -8 z m 16,0 h 8 v 4 h -8 z m 16,0 h 8 v 4 h -8 z m 16,0 h 8 v 4 h -8 z m 16,0 h 8 v 4 h -8 z m 16,0 h 8 v 4 h -8 z m 16,0 h 8 v 4 h -8 z m 16,0 h 8 v 4 h -8 z m 16,0 h 8 v 4 h -8 z m 16,0 h 8 v 4 h -8 z m 16,0 h 8 v 4 h -8 z m 16,0 h 8 v 4 h -8 z m 16,0 h 8 v 4 h -8 z m 16,0 h 8 v 4 h -8 z m 16,0 h 8.00006 V 2 H 816 Z m 16.00006,0 h 7.99988 v 4 h -7.99988 z m 15.99988,0 h 8 v 4 h -8 z M 864,-2 h 8 v 4 h -8 z m 16,0 h 8 v 4 h -8 z m 16,0 h 8 v 4 h -8 z m 16,0 h 8 v 4 h -8 z m 16.00006,0 h 8 v 4 h -8 z m 16,0 h 7.99988 v 4 h -7.99988 z m 15.99988,0 h 8 v 4 h -8 z M 976,-2 h 8 v 4 h -8 z m 16,0 h 8 v 4 h -8 z m 16,0 h 8 v 4 h -8 z m 16,0 h 8 v 4 h -8 z m 16,0 h 8 v 4 h -8 z m 16,0 h 8 v 4 h -8 z m 16,0 h 8 v 4 h -8 z m 16,0 h 8 v 4 h -8 z m 16,0 h 8 v 4 h -8 z m 16,0 h 8 v 4 h -8 z m 16,0 h 8 v 4 h -8 z m 16,0 h 8 v 4 h -8 z m 16,0 h 8 v 4 h -8 z m 16,0 h 8 v 4 h -8 z m 16,0 h 8 v 4 h -8 z m 16,0 h 8 v 4 h -8 z m 16,0 h 8 v 4 h -8 z m 16,0 h 8 v 4 h -8 z m 16,0 h 8 v 4 h -8 z m 16,0 h 8 v 4 h -8 z m 16,0 h 8 v 4 h -8 z m 16,0 h 8 v 4 h -8 z m 16,0 h 8 v 4 h -8 z m 16,0 h 8 v 4 h -8 z m 16,0 h 8 v 4 h -8 z m 16,0 h 8 v 4 h -8 z m 16,0 h 8 v 4 h -8 z m 16,0 h 8 v 4 h -8 z m 16,0 h 8 v 4 h -8 z m 16,0 h 8 v 4 h -8 z m 16,0 h 8 v 4 h -8 z m 16,0 h 8 v 4 h -8 z m 16,0 h 8 v 4 h -8 z m 16,0 h 8 v 4 h -8 z m 16,0 h 8 v 4 h -8 z m 16,0 h 8 v 4 h -8 z m 16,0 h 8 v 4 h -8 z m 16,0 h 8 v 4 h -8 z m 16,0 h 8 v 4 h -8 z m 16,0 h 8 v 4 h -8 z m 13.3554,6.6446533 v 7.9999997 h -4 V 4.6446533 Z m 0,15.9999997 v 8.000002 h -4 v -8.000002 z m 0,16 v 8.000004 h -4 v -8.000004 z m 0,15.999997 v 8.000003 h -4 V 52.64465 Z m 0,16.000003 v 8 h -4 v -8 z m 0,15.999993 v 8 h -4 v -8 z m 0,16.000004 v 8 h -4 v -8 z m 0,16 v 8 h -4 v -8 z m 0,16 v 8 h -4 v -8 z m 0,16 v 8 h -4 v -8 z m 0,15.99999 v 8.00001 h -4 v -8.00001 z m 0,16 v 8.00001 h -4 v -8.00001 z m 0,16.00001 v 8 h -4 v -8 z m 0,16 v 8 h -4 v -8 z m 0,16 v 8 h -4 v -8 z m 0,16 v 8 h -4 v -8 z m 0,16 v 8 h -4 v -8 z m 0,16 v 8 h -4 v -8 z m 0,16 v 8 h -4 v -8 z m 0,16 v 8 h -4 v -8 z m 0,16 v 8 h -4 v -8 z m 0,15.99997 v 8.00003 h -4 v -8.00003 z m 0,16.00003 v 8 h -4 v -8 z m 0,16 v 8.00003 h -4 v -8.00003 z m 0,16 v 8 h -4 v -8 z m 0,16 v 8.00003 h -4 v -8.00003 z m 0,16 v 8 h -4 v -8 z m 0,16 v 7.99997 h -4 v -7.99997 z m 0,16 v 8 h -4 v -8 z m 0,16 v 7.99997 h -4 v -7.99997 z m 0,16 v 8 h -4 v -8 z m 0,16 v 8 h -4 v -8 z m 0,16 v 8 h -4 v -8 z m 0,16 v 8 h -4 v -8 z m 0,16 v 8 h -4 v -8 z m 0,16 v 8 h -4 v -8 z m 0,16 v 8 h -4 v -8 z m 0,16 v 8 h -4 v -8 z m 0,16 v 8 h -4 v -8 z m 0,16 v 8 h -4 v -8 z m -9.0103,10.98975 h -8 v -4 h 8 z m -16,0 h -8 v -4 h 8 z m -16,0 h -8 v -4 h 8 z m -16,0 h -8 v -4 h 8 z m -16,0 h -8 v -4 h 8 z m -16,0 h -8 v -4 h 8 z m -16,0 h -8 v -4 h 8 z m -16,0 h -8 v -4 h 8 z m -16,0 h -8 v -4 h 8 z m -16,0 h -8 v -4 h 8 z m -16,0 h -8 v -4 h 8 z m -16,0 h -8 v -4 h 8 z m -16,0 h -8 v -4 h 8 z m -16,0 h -8 v -4 h 8 z m -16,0 h -8 v -4 h 8 z m -16,0 h -8 v -4 h 8 z m -16,0 h -8 v -4 h 8 z m -16,0 h -8 v -4 h 8 z m -16,0 h -8 v -4 h 8 z m -16,0 h -8 v -4 h 8 z m -16,0 h -8 v -4 h 8 z m -16,0 h -8 v -4 h 8 z m -16,0 h -8 v -4 h 8 z m -16,0 h -8 v -4 h 8 z m -16,0 h -8 v -4 h 8 z m -16,0 h -8 v -4 h 8 z m -16,0 h -7.9999 v -4 h 7.9999 z m -16,0 h -8 v -4 h 8 z m -16,0 h -8 v -4 h 8 z m -16,0 h -7.9999 v -4 h 7.9999 z m -15.9999,0 h -8.0001 v -4 h 8.0001 z m -16.0001,0 h -8 v -4 h 8 z m -16,0 h -7.9999 v -4 h 7.9999 z m -15.9999,0 h -8 v -4 h 8 z m -16,0 h -8 v -4 h 8 z m -16.0001,0 h -8 v -4 h 8 z m -15.9999,0 h -8.0001 v -4 h 8.0001 z m -16.0001,0 h -8 v -4 h 8 z m -15.99995,0 h -8.00006 v -4 h 8.00006 z m -16,0 h -8 v -4 h 8 z m -16,0 h -8 v -4 h 8 z m -16,0 h -8 v -4 h 8 z m -16.00006,0 h -7.99994 v -4 h 7.99994 z m -15.99994,0 h -8 v -4 h 8 z m -16,0 h -8 v -4 h 8 z m -16,0 h -8 v -4 h 8 z m -16,0 h -8 v -4 h 8 z m -16,0 h -8 v -4 h 8 z m -16,0 h -8 v -4 h 8 z m -16,0 h -8 v -4 h 8 z m -16,0 h -8 v -4 h 8 z m -16,0 h -8 v -4 h 8 z m -16,0 h -8.00006 v -4 h 8.00006 z m -16.00006,0 h -7.99988 v -4 h 7.99988 z m -15.99988,0 h -8 v -4 h 8 z m -16.00006,0 h -8 v -4 h 8 z m -16,0 h -8 v -4 h 8 z m -16,0 h -8 v -4 h 8 z m -16,0 h -8 v -4 h 8 z m -16,0 h -8.00006 v -4 h 8.00006 z m -15.99994,0 h -8 v -4 h 8 z m -16,0 h -8 v -4 h 8 z m -16.00006,0 h -8 v -4 h 8 z m -16,0 h -8 v -4 h 8 z m -15.99994,0 h -8.00012 v -4 h 8.00012 z m -16.00012,0 h -8 v -4 h 8 z m -16,0 h -7.99988 v -4 h 7.99988 z m -15.99988,0 h -8 v -4 h 8 z m -16,0 h -8 v -4 h 8 z m -16,0 h -8 v -4 h 8 z m -16,0 h -8 v -4 h 8 z m -16,0 h -8.00012 v -4 h 8.00012 z m -16.00012,0 h -8 v -4 h 8 z m -15.99988,0 h -8 v -4 h 8 z m -16,0 h -8 v -4 h 8 z m -16,0 h -8 v -4 h 8 z m -16,0 h -8 v -4 h 8 z m -16,0 h -8 v -4 h 8 z m -16.00012,0 h -8 v -4 h 8 z m -15.99988,0 h -8 v -4 h 8 z m -16,0 h -8 v -4 h 8 z m -16,0 h -8 v -4 h 8 z m -16,0 h -8 v -4 h 8 z m -16,0 h -8 v -4 h 8 z m -16,0 h -8 v -4 h 8 z m -16.00012,0 h -7.99988 v -4 h 7.99988 z m -15.99988,0 h -8 v -4 h 8 z m -16,0 h -8 v -4 h 8 z m -16,0 h -8 v -4 h 8 z m -16,0 h -8 v -4 h 8 z m -16,0 h -8 v -4 h 8 z m -16,0 h -8 v -4 h 8 z m -16,0 h -7.99999 v -4 h 7.99999 z m -15.99999,0 h -8 v -4 h 8 z m -16,0 h -8.000005 v -4 h 8.000005 z m -16.000005,0 h -8 v -4 h 8 z m -16,0 h -8 v -4 h 8 z m -16,0 h -8 v -4 h 8 z m -16,0 h -8 v -4 h 8 z m -16,0 h -8 v -4 h 8 z m -16.0000002,0 H -2 v -5.65479 h 4 v 3.65479 H 0 v -2 H 4.3452148 Z M -2,625.97961 v -8 h 4 v 8 z m 0,-16 v -8 h 4 v 8 z m 0,-16 v -8 h 4 v 8 z m 0,-16 v -8 h 4 v 8 z m 0,-16 v -8 h 4 v 8 z m 0,-16 v -8 h 4 v 8 z m 0,-16 v -8 h 4 v 8 z m 0,-16 v -8.00003 h 4 v 8.00003 z m 0,-16.00003 v -8 h 4 v 8 z m 0,-16 v -8 h 4 v 8 z m 0,-16.00003 v -7.99997 h 4 v 7.99997 z m 0,-16 v -7.99997 h 4 v 7.99997 z m 0,-16 v -7.99997 h 4 v 7.99997 z m 0,-16 v -7.99997 h 4 v 7.99997 z m 0,-16 v -7.99997 h 4 v 7.99997 z m 0,-16 v -8 h 4 v 8 z m 0,-16 v -8 h 4 v 8 z m 0,-16 v -8 h 4 v 8 z m 0,-16 v -8 h 4 v 8 z m 0,-16 v -8.00003 h 4 v 8.00003 z m 0,-16 v -8 h 4 v 8 z m 0,-16 v -8.00003 h 4 v 8.00003 z m 0,-16 v -8 h 4 v 8 z m 0,-16 v -8.00003 h 4 v 8.00003 z m 0,-16 v -8 h 4 v 8 z m 0,-16.00003 v -8 h 4 v 8 z m 0,-16 v -7.99997 h 4 v 7.99997 z m 0,-16 v -8 h 4 v 8 z m 0,-16 v -7.99997 h 4 v 7.99997 z m 0,-16 v -8 h 4 v 8 z m 0,-16 v -8.00003 h 4 v 8.00003 z m 0,-16 v -8.00003 h 4 v 8.00003 z m 0,-15.99997 v -8.00006 h 4 v 8.00006 z m 0,-16.000058 v -8 h 4 v 8 z m 0,-16 v -8 h 4 v 8 z m 0,-16 v -8 h 4 v 8 z m 0,-16 v -8 h 4 v 8 z m 0,-16 v -8 h 4 v 8 z m 0,-16 V 9.9794922 H 2 V 17.979492 Z M -2,1.9794922 V -2 H 8 V 2 H 0 V 0 h 2 v 1.9794922 z" /></g></g></g><g
       id="g60"><g
         clip-path="url(#clipPath66)"
         id="g62"><g
           transform="matrix(1.7568327,0,0,1.7564788,254.66643,647.59906)"
           id="g68"><text
             id="text72"
             style="font-variant:normal;font-weight:bold;font-size:14px;font-family:OpenSans;-inkscape-font-specification:OpenSans-Bold;writing-mode:lr-tb;fill:#1a1a1a;fill-opacity:1;fill-rule:nonzero;stroke:none"
             transform="translate(0,547.87097)"><tspan
               id="tspan70"
               y="0"
               x="0 9.6591797 18.450195 23.084961 26.72168 36.380859 45.240234 54.099609 58.37207 62.644531 69.842773 78.298828 84.375977 88.648438 97.316406">API Application</tspan></text>
<text
             id="text76"
             style="font-variant:normal;font-weight:normal;font-size:14px;font-family:OpenSans;-inkscape-font-specification:OpenSans-Regular;writing-mode:lr-tb;fill:#1a1a1a;fill-opacity:1;fill-rule:nonzero;stroke:none"
             transform="translate(0,567.87097)"><tspan
               id="tspan74"
               y="0"
               x="0 4.6074219 13.439453 21.895508 30.488281 35.430664 43.216797 46.757812 55.350586 63.205078 68.919922">[Container]</tspan></text>
</g><g
           transform="matrix(2.2587852,0,0,2.2583301,565.0127,2225.6809)"
           id="g78"><text
             id="text82"
             style="font-variant:normal;font-weight:bold;font-size:14px;font-family:OpenSans;-inkscape-font-specification:OpenSans-Bold;writing-mode:lr-tb;fill:#1a1a1a;fill-opacity:1;fill-rule:nonzero;stroke:none"
             transform="translate(0,14)"><tspan
               id="tspan80"
               y="0"
               x="0 8.9208984 17.588867 31.335938 40.195312 48.863281 58.064453 66.335938 75.537109 81.614258 85.250977 95.614258 99.886719 108.34277 116.25195 122.60938 131.06543 144.8125 148.44922 153.87012 162.53809 168.89551 172.53223 181.45312 185.72559 193.99707 202.45312 208.81055 217.90918 222.18164 230.45312 242.43652 246.07324 253.78418 261.74805 268.70703 274.78418 283.05566 296.80273 300.43945 304.94434 308.58105 317.82324 326.09473 333.05371 342.25488 356.00195 364.27344 367.91016 375.59375 384.79492 393.99609 401.19434 407.27148 411.54395 420.21191 429.41309">Component Diagram for ClearView System - Resume Functions</tspan></text>
</g><g
           transform="matrix(1.7568327,0,0,1.7564788,565.0127,2270.8376)"
           id="g84"><text
             id="text88"
             style="font-variant:normal;font-weight:bold;font-size:14px;font-family:OpenSans;-inkscape-font-specification:OpenSans-Bold;writing-mode:lr-tb;fill:#646464;fill-opacity:1;fill-rule:nonzero;stroke:none"
             transform="translate(0,14)"><tspan
               id="tspan86"
               y="0"
               x="0 8.1074219 17.308594 25.580078 29.216797 36.415039 45.083008 58.830078 67.689453 76.357422 85.558594 93.830078 103.03125 109.1084 112.74512 121.60449 125.87695 134.33301 142.24219 148.59961 157.05566 170.80273 174.43945 179.86035 188.52832 194.88574 198.52246 204.59961 213.80078 222.07227 225.70898 234.95117 243.22266 250.18164 259.38281 273.12988 281.40137 285.03809 292.72168 301.92285 311.12402 318.32227 324.39941 328.67188 337.33984 346.54102">The component diagram for the Resume Functions</tspan></text>
</g></g></g><g
       id="g90"><g
         clip-path="url(#clipPath96)"
         id="g92"><g
           clip-path="url(#clipPath102)"
           id="g98"><g
             clip-path="url(#clipPath108)"
             id="g104"><g
               clip-path="url(#clipPath114)"
               id="g110"><g
                 transform="matrix(0,-1.7564788,1.7568327,0,671.92737,371.57129)"
                 id="g116"><path
                   id="path118"
                   style="fill:#438cd4;fill-opacity:1;fill-rule:evenodd;stroke:none"
                   d="M 0,15 C 0,-5 85.541611,-5 85.541611,15 v 281.34247 c 0,20 -85.541611,20 -85.541611,0 z" /><path
                   id="path120"
                   style="fill:none;stroke:#1a1a1a;stroke-width:1;stroke-linecap:butt;stroke-linejoin:miter;stroke-miterlimit:10;stroke-dasharray:none;stroke-opacity:1"
                   d="M 0,15 C 0,-5 85.541611,-5 85.541611,15 v 281.34247 c 0,20 -85.541611,20 -85.541611,0 z" /></g></g></g></g></g></g><g
       id="g122"><g
         clip-path="url(#clipPath128)"
         id="g124"><g
           clip-path="url(#clipPath134)"
           id="g130"><g
             clip-path="url(#clipPath140)"
             id="g136"><g
               transform="matrix(0,-1.7564788,1.7568327,0,671.92737,371.57129)"
               id="g142"><path
                 id="path144"
                 style="fill:none;stroke:#1a1a1a;stroke-width:1;stroke-linecap:butt;stroke-linejoin:miter;stroke-miterlimit:10;stroke-dasharray:none;stroke-opacity:1"
                 d="m 1,14.666667 c 0,20.000001 83.541611,20.000001 83.541611,0" /></g></g></g></g></g><g
       id="g146"><g
         clip-path="url(#clipPath152)"
         id="g148"><g
           transform="matrix(2.5903952,0,0,2.5898733,480.80267,243.99106)"
           id="g154"><text
             id="text158"
             style="font-variant:normal;font-weight:bold;font-size:14px;font-family:OpenSans;-inkscape-font-specification:OpenSans-Bold;writing-mode:lr-tb;fill:#ffffff;fill-opacity:1;fill-rule:nonzero;stroke:none"
             transform="translate(128.87041,14)"><tspan
               id="tspan156"
               y="0"
               x="0 13.200195 21.47168 28.430664 35.389648 43.845703 51.754883 60.026367 63.663086 73.069336 79.426758 88.094727 96.776367 105.04785">Message Broker</tspan></text>
<text
             id="text162"
             style="font-variant:normal;font-weight:normal;font-size:14px;font-family:OpenSans;-inkscape-font-specification:OpenSans-Regular;writing-mode:lr-tb;fill:#ffffff;fill-opacity:1;fill-rule:nonzero;stroke:none"
             transform="translate(113.61943,34)"><tspan
               id="tspan160"
               y="0"
               x="0 4.6074219 13.439453 21.895508 30.488281 35.430664 43.216797 46.757812 55.350586 63.205078 68.919922 72.645508 76.282227 84.936523 92.722656 101.30176 109.88086 113.42188 118.36426 131.00391">[Container: RabbitMQ</tspan></text>
</g></g></g><g
       id="g164"><g
         clip-path="url(#clipPath170)"
         id="g166"><g
           transform="matrix(1.7568327,0,0,1.7564788,321.59714,963.37903)"
           id="g172"><path
             id="path174"
             style="fill:#85bbef;fill-opacity:1;fill-rule:nonzero;stroke:none"
             d="M 0,0 H 252.53023 V 173.85245 H 0 Z" /><path
             id="path176"
             style="fill:none;stroke:#89b3de;stroke-width:1;stroke-linecap:butt;stroke-linejoin:miter;stroke-miterlimit:10;stroke-dasharray:none;stroke-opacity:1"
             d="M 0,0 H 252.53023 V 173.85245 H 0 Z" /></g></g></g><g
       id="g178"><g
         clip-path="url(#clipPath184)"
         id="g180"><g
           transform="matrix(1.7568327,0,0,1.7564788,336.86862,978.6474)"
           id="g186"><text
             id="text190"
             style="font-variant:normal;font-weight:bold;font-size:14px;font-family:OpenSans;-inkscape-font-specification:OpenSans-Bold;writing-mode:lr-tb;fill:#1a1a1a;fill-opacity:1;fill-rule:nonzero;stroke:none"
             transform="translate(75.418678,52.233601)"><tspan
               id="tspan188"
               y="0"
               x="0 8.1074219 12.379883 21.239258 28.198242 31.834961 45.035156 53.703125 62.5625 71.763672 76.036133">Tips Module</tspan></text>
<text
             id="text194"
             style="font-variant:normal;font-weight:normal;font-size:14px;font-family:OpenSans;-inkscape-font-specification:OpenSans-Regular;writing-mode:lr-tb;fill:#1a1a1a;fill-opacity:1;fill-rule:nonzero;stroke:none"
             transform="translate(8.6418266,92.233597)"><tspan
               id="tspan192"
               y="0"
               x="0 10.90332 16.618164 23.283203 31.875977 39.730469 46.40918 51.351562 57.066406 64.852539 69.794922 77.649414 84.328125 87.964844 92.907227 96.448242 105.02734 111.70605 115.34277 123.0127 130.86719 139.45996 147.31445 153.0293 160.81543 165.75781 173.6123 182.19141 185.82812 194.40723 201.46191 205.09863 213.95801 217.86133">Orchestrates tips generated by AI </tspan></text>
<text
             id="text198"
             style="font-variant:normal;font-weight:normal;font-size:14px;font-family:OpenSans;-inkscape-font-specification:OpenSans-Regular;writing-mode:lr-tb;fill:#1a1a1a;fill-opacity:1;fill-rule:nonzero;stroke:none"
             transform="translate(92.549538,112.2336)"><tspan
               id="tspan196"
               y="0"
               x="0 13.022461 21.478516 30.057617 38.650391 42.191406">module</tspan></text>
</g></g></g><g
       id="g200"><g
         clip-path="url(#clipPath206)"
         id="g202"><g
           transform="matrix(1.7568327,0,0,1.7564788,1762.4436,963.37903)"
           id="g208"><path
             id="path210"
             style="fill:#85bbef;fill-opacity:1;fill-rule:nonzero;stroke:none"
             d="M 0,0 H 263.06287 V 173.85245 H 0 Z" /><path
             id="path212"
             style="fill:none;stroke:#89b3de;stroke-width:1;stroke-linecap:butt;stroke-linejoin:miter;stroke-miterlimit:10;stroke-dasharray:none;stroke-opacity:1"
             d="M 0,0 H 263.06287 V 173.85245 H 0 Z" /></g></g></g><g
       id="g214"><g
         clip-path="url(#clipPath220)"
         id="g216"><g
           transform="matrix(1.7568327,0,0,1.7564788,1777.715,978.6474)"
           id="g222"><text
             id="text226"
             style="font-variant:normal;font-weight:bold;font-size:14px;font-family:OpenSans;-inkscape-font-specification:OpenSans-Bold;writing-mode:lr-tb;fill:#1a1a1a;fill-opacity:1;fill-rule:nonzero;stroke:none"
             transform="translate(41.675732,52.233601)"><tspan
               id="tspan224"
               y="0"
               x="0 9.6591797 18.860352 27.52832 36.729492 44.693359 58.44043 62.712891 69.541992 77.998047 84.075195 88.347656 97.015625 106.2168 109.85352 123.05371 131.72168 140.58105 149.78223 154.05469">Anonymization Module</tspan></text>
<text
             id="text230"
             style="font-variant:normal;font-weight:normal;font-size:14px;font-family:OpenSans;-inkscape-font-specification:OpenSans-Regular;writing-mode:lr-tb;fill:#1a1a1a;fill-opacity:1;fill-rule:nonzero;stroke:none"
             transform="translate(27.552685,92.233597)"><tspan
               id="tspan228"
               y="0"
               x="0 8.4560547 14.170898 20.835938 29.428711 37.283203 43.961914 48.904297 54.619141 62.405273 67.347656 75.202148 81.880859 85.517578 90.459961 99.052734 106.90723 110.54395 118.33008 126.92285 135.37891 143.97168 151.02637 164.04883 167.58984 174.13867 181.99316 190.57227">orchestrates the anonymized </tspan></text>
<text
             id="text234"
             style="font-variant:normal;font-weight:normal;font-size:14px;font-family:OpenSans;-inkscape-font-specification:OpenSans-Regular;writing-mode:lr-tb;fill:#1a1a1a;fill-opacity:1;fill-rule:nonzero;stroke:none"
             transform="translate(94.640572,112.2336)"><tspan
               id="tspan232"
               y="0"
               x="0 5.7148438 13.569336 20.248047 28.84082 41.863281 49.717773">resumes</tspan></text>
</g></g></g><g
       id="g236"><g
         clip-path="url(#clipPath242)"
         id="g238"><g
           transform="matrix(1.7568327,0,0,1.7564788,1025.2627,963.37903)"
           id="g244"><path
             id="path246"
             style="fill:#85bbef;fill-opacity:1;fill-rule:nonzero;stroke:none"
             d="M 0,0 H 271.6459 V 173.85245 H 0 Z" /><path
             id="path248"
             style="fill:none;stroke:#89b3de;stroke-width:1;stroke-linecap:butt;stroke-linejoin:miter;stroke-miterlimit:10;stroke-dasharray:none;stroke-opacity:1"
             d="M 0,0 H 271.6459 V 173.85245 H 0 Z" /></g></g></g><g
       id="g250"><g
         clip-path="url(#clipPath256)"
         id="g252"><g
           transform="matrix(1.7568327,0,0,1.7564788,1040.5342,978.6474)"
           id="g258"><text
             id="text262"
             style="font-variant:normal;font-weight:bold;font-size:14px;font-family:OpenSans;-inkscape-font-specification:OpenSans-Bold;writing-mode:lr-tb;fill:#1a1a1a;fill-opacity:1;fill-rule:nonzero;stroke:none"
             transform="translate(67.13131,32.233601)"><tspan
               id="tspan260"
               y="0"
               x="0 7.7109375 11.703125 24.90332 28.895508 38.554688 42.546875 51.789062 55.78125 63.888672 67.525391 80.725586 89.393555 98.25293 107.4541 111.72656">S.M.A.R.T Module</tspan></text>
<text
             id="text266"
             style="font-variant:normal;font-weight:normal;font-size:14px;font-family:OpenSans;-inkscape-font-specification:OpenSans-Regular;writing-mode:lr-tb;fill:#1a1a1a;fill-opacity:1;fill-rule:nonzero;stroke:none"
             transform="translate(5.9325824,72.233597)"><tspan
               id="tspan264"
               y="0"
               x="0 7.6835938 15.538086 24.130859 32.709961 39.388672 43.025391 48.740234 56.594727 63.273438 71.866211 84.888672 92.743164 99.421875 103.05859 108.00098 116.45703 120.09375 128.95312 132.85645 136.49316 141.2373 149.69336 155.4082 159.04492 166.72852 179.36816 188.22754 196.88184 204.62695 208.26367 215.93359 224.38965 232.17578 235.7168 242.39551">Sends resumes to AI for SMART goals </tspan></text>
<text
             id="text270"
             style="font-variant:normal;font-weight:normal;font-size:14px;font-family:OpenSans;-inkscape-font-specification:OpenSans-Regular;writing-mode:lr-tb;fill:#1a1a1a;fill-opacity:1;fill-rule:nonzero;stroke:none"
             transform="translate(12.727505,92.233597)"><tspan
               id="tspan268"
               y="0"
               x="0 4.9423828 12.796875 25.819336 34.398438 37.939453 45.725586 50.667969 58.522461 62.15918 69.829102 77.683594 86.276367 94.130859 99.845703 107.63184 112.57422 116.11523 124.57129 133.16406 136.80078 144.58691 153.17969 161.75879 165.39551 172.07422 179.92871 188.52148 197.10059 203.7793 207.41602 212.3584 220.95117 228.80566">template generation and sends the </tspan></text>
<text
             id="text274"
             style="font-variant:normal;font-weight:normal;font-size:14px;font-family:OpenSans;-inkscape-font-specification:OpenSans-Regular;writing-mode:lr-tb;fill:#1a1a1a;fill-opacity:1;fill-rule:nonzero;stroke:none"
             transform="translate(19.204556,112.2336)"><tspan
               id="tspan272"
               y="0"
               x="0 5.7148438 13.569336 20.248047 28.84082 32.381836 37.324219 44.00293 47.639648 52.582031 61.038086 64.674805 72.460938 81.053711 89.509766 98.102539 105.15723 118.17969 121.7207 128.26953 136.05566 140.99805 144.53906 152.99512 161.58789 165.22461 173.80371 179.51855 187.97461 194.63965 202.49414 209.17285">results to anonymization process</tspan></text>
</g></g></g><g
       id="g276"><g
         clip-path="url(#clipPath282)"
         id="g278"><g
           transform="matrix(1.7568327,0,0,1.7564788,2484.8813,963.37903)"
           id="g284"><path
             id="path286"
             style="fill:#85bbef;fill-opacity:1;fill-rule:nonzero;stroke:none"
             d="M 0,0 H 271.6459 V 173.85245 H 0 Z" /><path
             id="path288"
             style="fill:none;stroke:#89b3de;stroke-width:1;stroke-linecap:butt;stroke-linejoin:miter;stroke-miterlimit:10;stroke-dasharray:none;stroke-opacity:1"
             d="M 0,0 H 271.6459 V 173.85245 H 0 Z" /></g></g></g><g
       id="g290"><g
         clip-path="url(#clipPath296)"
         id="g292"><g
           transform="matrix(1.7568327,0,0,1.7564788,2500.1528,978.6474)"
           id="g298"><text
             id="text302"
             style="font-variant:normal;font-weight:bold;font-size:14px;font-family:OpenSans;-inkscape-font-specification:OpenSans-Bold;writing-mode:lr-tb;fill:#1a1a1a;fill-opacity:1;fill-rule:nonzero;stroke:none"
             transform="translate(66.317833,62.233601)"><tspan
               id="tspan300"
               y="0"
               x="0 13.200195 21.65625 27.733398 34.931641 44.132812 48.405273 57.606445 65.515625 69.152344 82.352539 91.020508 99.879883 109.08105 113.35352">Matching Module</tspan></text>
<text
             id="text306"
             style="font-variant:normal;font-weight:normal;font-size:14px;font-family:OpenSans;-inkscape-font-specification:OpenSans-Regular;writing-mode:lr-tb;fill:#1a1a1a;fill-opacity:1;fill-rule:nonzero;stroke:none"
             transform="translate(2.7948873,102.2336)"><tspan
               id="tspan304"
               y="0"
               x="0 8.4560547 14.170898 20.835938 29.428711 37.283203 43.961914 48.904297 54.619141 62.405273 67.347656 75.202148 81.880859 85.517578 90.459961 99.052734 106.90723 110.54395 123.56641 131.35254 136.29492 142.95996 151.55273 159.40723 166.08594 169.72266 174.4668 182.92285 188.6377 192.27441 197.98926 205.84375 212.52246 221.11523 234.1377 241.99219">orchestrates the matches for resumes</tspan></text>
</g></g></g><g
       id="g308"><g
         clip-path="url(#clipPath314)"
         id="g310"><g
           clip-path="url(#clipPath320)"
           id="g316"><g
             clip-path="url(#clipPath326)"
             id="g322"><g
               clip-path="url(#clipPath332)"
               id="g328"><g
                 transform="matrix(1.7568327,0,0,1.7564788,543.42914,371.56097)"
                 id="g334"><path
                   id="path336"
                   style="fill:#333333;fill-opacity:1;fill-rule:nonzero;stroke:none"
                   d="m -0.85849601,336.42093 4.10256251,-6.86798 1.7169921,1.02563 -4.10256259,6.86798 M 7.3466287,322.685 l 4.1025633,-6.86798 1.716992,1.02563 -4.1025634,6.86798 m 6.4881334,-14.76156 4.102562,-6.86798 1.716991,1.02563 -4.102562,6.86798 m 6.488135,-14.76157 4.102562,-6.86798 1.716991,1.02564 -4.102562,6.86798 m 6.488133,-14.7616 4.10256,-6.86795 1.716995,1.02564 -4.102562,6.86795 m 6.488129,-14.76157 4.102562,-6.86795 1.716995,1.02564 -4.102562,6.86795 m 6.488132,-14.76157 4.102562,-6.86797 1.716996,1.02564 -4.102562,6.86796 m 6.488128,-14.76156 4.102562,-6.86798 1.716996,1.02563 -4.102562,6.86798 m 6.488128,-14.76156 4.102562,-6.86798 1.716995,1.02563 -4.102562,6.86798 m 6.488129,-14.76158 4.102562,-6.86797 1.716995,1.02564 -4.102562,6.86797 m 6.488129,-14.76157 4.102562,-6.86797 1.716995,1.02564 -4.102562,6.86796 m 6.488129,-14.76156 4.102562,-6.86798 1.716995,1.02563 -4.102562,6.86798 m 6.488136,-14.76158 4.102566,-6.86797 1.71699,1.02564 -4.10256,6.86797 m 6.48813,-14.76157 4.10256,-6.86797 1.717,1.02564 -4.10257,6.86796 m 6.48813,-14.76156 4.10256,-6.86798 1.717,1.02563 -4.10256,6.86798 m 6.48813,-14.76158 4.10256,-6.86796 1.71699,1.02563 -4.10256,6.86797 m 6.48814,-14.76157 4.10257,-6.86796 1.71698,1.02563 -4.10257,6.86796 m 6.48814,-14.76156 4.10257,-6.867967 1.71698,1.025635 -4.10257,6.867962 m 6.48814,-14.761578 4.10257,-6.867965 1.71698,1.025634 -4.10257,6.867966 m 6.48815,-14.761566 4.10257,-6.867981 1.71698,1.025635 -4.10257,6.867981 m 6.48814,-14.76157 4.10257,-6.867981 1.71698,1.025642 -4.10257,6.867981 m 6.48815,-14.761574 4.10257,-6.867981 1.71698,1.025643 -4.10257,6.867981 m 6.48814,-14.761574 4.10257,-6.867981 1.71698,1.025642 -4.10257,6.867981 m 6.48815,-14.761604 4.10256,-6.867949 1.71698,1.02564 -4.10257,6.867951" /></g></g></g></g></g></g><g
       id="g338"><g
         clip-path="url(#clipPath344)"
         id="g340"><g
           transform="matrix(0.9009394,-1.5079299,1.5082338,0.90075785,897.02069,371.56097)"
           id="g346"><path
             id="path348"
             style="fill:#333333;fill-opacity:1;fill-rule:nonzero;stroke:none"
             d="M -12.727273,-7.5454545 0,0 -12.727273,7.5454545 Z" /></g><g
           transform="matrix(1.7568327,0,0,1.7564788,574.21332,657.58142)"
           id="g350"><text
             id="text354"
             style="font-variant:normal;font-weight:normal;font-size:14px;font-family:OpenSans;-inkscape-font-specification:OpenSans-Regular;writing-mode:lr-tb;fill:#333333;fill-opacity:1;fill-rule:nonzero;stroke:none"
             transform="translate(0.33154297,14)"><tspan
               id="tspan352"
               y="0"
               x="0 5.7148438 13.569336 21.355469 29.93457 36.613281 40.25 46.928711 55.521484 64.100586 77.123047 80.664062 85.606445 90.548828 98.40332 106.98242 110.61914 116.33398 124.18848 130.86719 139.45996 152.48242">reads submitted resume</tspan></text>
</g></g></g><g
       id="g356"><g
         clip-path="url(#clipPath362)"
         id="g358"><g
           clip-path="url(#clipPath368)"
           id="g364"><g
             clip-path="url(#clipPath374)"
             id="g370"><g
               clip-path="url(#clipPath380)"
               id="g376"><g
                 transform="matrix(1.7568327,0,0,1.7564788,281.08511,1777.172)"
                 id="g382"><path
                   id="path384"
                   style="fill:#438cd4;fill-opacity:1;fill-rule:evenodd;stroke:none"
                   d="M 0,15 C 0,-5 298.66406,-5 298.66406,15 v 169.60156 c 0,20 -298.66406,20 -298.66406,0 z" /><path
                   id="path386"
                   style="fill:none;stroke:#1a1a1a;stroke-width:1;stroke-linecap:butt;stroke-linejoin:miter;stroke-miterlimit:10;stroke-dasharray:none;stroke-opacity:1"
                   d="M 0,15 C 0,-5 298.66406,-5 298.66406,15 v 169.60156 c 0,20 -298.66406,20 -298.66406,0 z" /></g></g></g></g></g></g><g
       id="g388"><g
         clip-path="url(#clipPath394)"
         id="g390"><g
           transform="matrix(1.7568327,0,0,1.7564788,281.08511,1777.172)"
           id="g396"><path
             id="path398"
             style="fill:none;stroke:#1a1a1a;stroke-width:1;stroke-linecap:butt;stroke-linejoin:miter;stroke-miterlimit:10;stroke-dasharray:none;stroke-opacity:1"
             d="m 1,14.666667 c 0,20.000001 296.66406,20.000001 296.66406,0" /></g></g></g><g
       id="g400"><g
         clip-path="url(#clipPath406)"
         id="g402"><g
           transform="matrix(1.7568327,0,0,1.7564788,307.32028,1794.7018)"
           id="g408"><text
             id="text412"
             style="font-variant:normal;font-weight:bold;font-size:14px;font-family:OpenSans;-inkscape-font-specification:OpenSans-Bold;writing-mode:lr-tb;fill:#ffffff;fill-opacity:1;fill-rule:nonzero;stroke:none"
             transform="translate(90.252342,63.820702)"><tspan
               id="tspan410"
               y="0"
               x="0 9.40625 13.678711 22.34668 31.206055 34.842773 42.553711 48.630859 57.298828 63.65625 72.112305 80.021484">Blob Storage</tspan></text>
<text
             id="text416"
             style="font-variant:normal;font-weight:normal;font-size:14px;font-family:OpenSans;-inkscape-font-specification:OpenSans-Regular;writing-mode:lr-tb;fill:#ffffff;fill-opacity:1;fill-rule:nonzero;stroke:none"
             transform="translate(57.658592,83.820702)"><tspan
               id="tspan414"
               y="0"
               x="0 4.6074219 13.439453 21.895508 30.488281 35.430664 43.216797 46.757812 55.350586 63.205078 68.919922 72.645508 76.282227 85.141602 98.164062 105.9502 112.49902 120.95508 129.54785 133.18457 140.86816 148.87305">[Container: Amazon S3]</tspan></text>
<text
             id="text420"
             style="font-variant:normal;font-weight:normal;font-size:14px;font-family:OpenSans;-inkscape-font-specification:OpenSans-Regular;writing-mode:lr-tb;fill:#ffffff;fill-opacity:1;fill-rule:nonzero;stroke:none"
             transform="translate(49.735741,123.8207)"><tspan
               id="tspan418"
               y="0"
               x="0 7.6835938 12.625977 21.082031 26.796875 34.651367 41.330078 44.966797 51.631836 59.417969 68.010742 76.589844 80.130859 88.709961 96.496094 101.43848 109.29297 112.92969 118.64453 126.49902 133.17773 141.77051 154.79297 162.64746">Stores candidate resumes</tspan></text>
</g></g></g><g
       id="g422"><g
         clip-path="url(#clipPath428)"
         id="g424"><g
           clip-path="url(#clipPath434)"
           id="g430"><g
             clip-path="url(#clipPath440)"
             id="g436"><g
               clip-path="url(#clipPath446)"
               id="g442"><g
                 transform="matrix(1.7568327,0,0,1.7564788,1064.1816,1777.172)"
                 id="g448"><path
                   id="path450"
                   style="fill:#438cd4;fill-opacity:1;fill-rule:evenodd;stroke:none"
                   d="M 0,15 C 0,-5 298.66406,-5 298.66406,15 v 169.60156 c 0,20 -298.66406,20 -298.66406,0 z" /><path
                   id="path452"
                   style="fill:none;stroke:#1a1a1a;stroke-width:1;stroke-linecap:butt;stroke-linejoin:miter;stroke-miterlimit:10;stroke-dasharray:none;stroke-opacity:1"
                   d="M 0,15 C 0,-5 298.66406,-5 298.66406,15 v 169.60156 c 0,20 -298.66406,20 -298.66406,0 z" /></g></g></g></g></g></g><g
       id="g454"><g
         clip-path="url(#clipPath460)"
         id="g456"><g
           transform="matrix(1.7568327,0,0,1.7564788,1064.1816,1777.172)"
           id="g462"><path
             id="path464"
             style="fill:none;stroke:#1a1a1a;stroke-width:1;stroke-linecap:butt;stroke-linejoin:miter;stroke-miterlimit:10;stroke-dasharray:none;stroke-opacity:1"
             d="m 1,14.666667 c 0,20.000001 296.66406,20.000001 296.66406,0" /></g></g></g><g
       id="g466"><g
         clip-path="url(#clipPath472)"
         id="g468"><g
           transform="matrix(1.7568327,0,0,1.7564788,1090.4168,1794.7018)"
           id="g474"><text
             id="text478"
             style="font-variant:normal;font-weight:bold;font-size:14px;font-family:OpenSans;-inkscape-font-specification:OpenSans-Bold;writing-mode:lr-tb;fill:#ffffff;fill-opacity:1;fill-rule:nonzero;stroke:none"
             transform="translate(101.44961,63.820702)"><tspan
               id="tspan476"
               y="0"
               x="0 10.363281 18.819336 24.896484 33.352539 42.211914 50.667969 57.626953">Database</tspan></text>
<text
             id="text482"
             style="font-variant:normal;font-weight:normal;font-size:14px;font-family:OpenSans;-inkscape-font-specification:OpenSans-Regular;writing-mode:lr-tb;fill:#ffffff;fill-opacity:1;fill-rule:nonzero;stroke:none"
             transform="translate(5.4935546,83.820702)"><tspan
               id="tspan480"
               y="0"
               x="0 4.6074219 13.439453 21.895508 30.488281 35.430664 43.216797 46.757812 55.350586 63.205078 68.919922 72.645508 76.282227 84.710938 93.166992 99.845703 104.78809 112.45801 118.17285 126.02734 132.70605 136.34277 146.54883 154.33496 159.27734 167.06348 175.64258 183.42871 190.10742 197.96191 201.59863 209.28223 215.94727 224.54004 232.39453 245.41699 253.20312">[Container: Postgres Database Schema]</tspan></text>
<text
             id="text486"
             style="font-variant:normal;font-weight:normal;font-size:14px;font-family:OpenSans;-inkscape-font-specification:OpenSans-Regular;writing-mode:lr-tb;fill:#ffffff;fill-opacity:1;fill-rule:nonzero;stroke:none"
             transform="translate(26.849024,123.8207)"><tspan
               id="tspan484"
               y="0"
               x="0 7.6835938 12.625977 21.082031 26.796875 34.651367 41.330078 44.966797 50.681641 58.536133 62.077148 69.863281 74.805664 78.34668 86.802734 95.395508 103.18164 106.72266 110.35938 118.14551 126.72461 135.30371 138.84473 142.38574 149.05078 156.83691 161.7793 165.32031 173.77637 182.36914 186.00586 194.58496 202.37109 207.31348">Stores relational application data</tspan></text>
</g></g></g><g
       id="g488"><g
         clip-path="url(#clipPath494)"
         id="g490"><g
           transform="matrix(1.7568327,0,0,1.7564788,1972.9373,169.13551)"
           id="g496"><path
             id="path498"
             style="fill:#438cd4;fill-opacity:1;fill-rule:nonzero;stroke:none"
             d="M 0,0 H 298.66406 V 199.60156 H 0 Z" /><path
             id="path500"
             style="fill:none;stroke:#6195cb;stroke-width:1;stroke-linecap:butt;stroke-linejoin:miter;stroke-miterlimit:10;stroke-dasharray:none;stroke-opacity:1"
             d="M 0,0 H 298.66406 V 199.60156 H 0 Z" /></g></g></g><g
       id="g502"><g
         clip-path="url(#clipPath508)"
         id="g504"><g
           transform="matrix(1.7568327,0,0,1.7564788,1990.4706,186.6653)"
           id="g510"><text
             id="text514"
             style="font-variant:normal;font-weight:bold;font-size:14px;font-family:OpenSans;-inkscape-font-specification:OpenSans-Bold;writing-mode:lr-tb;fill:#ffffff;fill-opacity:1;fill-rule:nonzero;stroke:none"
             transform="translate(95.434471,53.820702)"><tspan
               id="tspan512"
               y="0"
               x="0 8.9208984 13.193359 21.464844 29.920898 36.27832 45.376953 49.649414 57.920898 69.904297 73.541016 83.200195">ClearView AI</tspan></text>
<text
             id="text518"
             style="font-variant:normal;font-weight:normal;font-size:14px;font-family:OpenSans;-inkscape-font-specification:OpenSans-Regular;writing-mode:lr-tb;fill:#ffffff;fill-opacity:1;fill-rule:nonzero;stroke:none"
             transform="translate(0.28505859,73.820702)"><tspan
               id="tspan516"
               y="0"
               x="0 4.6074219 13.439453 21.895508 30.488281 35.430664 43.216797 46.757812 55.350586 63.205078 68.919922 72.645508 76.282227 85.114258 94.158203 97.794922 105.58105 114.17383 122.75293 126.38965 135.24902 142.93262 151.36133 154.99805 158.72363 169.27832 177.06445 184.80957 188.44629 197.27832 205.73438 211.44922 219.30371 222.94043 235.90137 243.75586 252.33496 261.19434 269.62305 273.52637">[Container: C# and ASP .NET Core WebAPI]</tspan></text>
<text
             id="text522"
             style="font-variant:normal;font-weight:normal;font-size:14px;font-family:OpenSans;-inkscape-font-specification:OpenSans-Regular;writing-mode:lr-tb;fill:#ffffff;fill-opacity:1;fill-rule:nonzero;stroke:none"
             transform="translate(6.3041015,113.8207)"><tspan
               id="tspan520"
               y="0"
               x="0 8.4287109 14.143555 22.599609 29.613281 33.154297 41.733398 49.587891 56.266602 59.90332 64.845703 73.438477 81.292969 84.929688 93.789062 97.692383 101.3291 107.99414 115.78027 124.35938 132.14551 140.72461 144.26562 147.80664 151.34766 156.29004 159.83105 167.68555 174.36426 178.00098 186.45703 191.20117 194.83789 199.78027 208.37305 216.22754 219.86426 226.54297 233.59766 240.27637 245.21875 253.07324 266.0957">Provides the AI capabilities of the system </tspan></text>
<text
             id="text526"
             style="font-variant:normal;font-weight:normal;font-size:14px;font-family:OpenSans;-inkscape-font-specification:OpenSans-Regular;writing-mode:lr-tb;fill:#ffffff;fill-opacity:1;fill-rule:nonzero;stroke:none"
             transform="translate(18.410547,133.82071)"><tspan
               id="tspan524"
               y="0"
               x="0 7.7861328 14.464844 18.101562 25.887695 29.524414 36.203125 44.057617 49.772461 56.786133 60.327148 66.992188 74.84668 78.483398 87.076172 93.754883 97.295898 105.88867 113.55859 117.19531 124.98145 128.61816 132.15918 140.61523 147.28027 155.06641 158.60742 162.24414 170.83691 179.29297 185.97168 190.91406 198.76855 207.34766 210.98438 218.25098 225.51758 238.15723">as a service using a local hosted LLM.</tspan></text>
</g></g></g><g
       id="g528"><g
         clip-path="url(#clipPath534)"
         id="g530"><g
           clip-path="url(#clipPath540)"
           id="g536"><g
             clip-path="url(#clipPath546)"
             id="g542"><g
               clip-path="url(#clipPath552)"
               id="g548"><g
                 transform="matrix(1.7568327,0,0,1.7564788,1502.5045,519.71069)"
                 id="g554"><path
                   id="path556"
                   style="fill:#333333;fill-opacity:1;fill-rule:nonzero;stroke:none"
                   d="m -0.66477579,313.7702 5.97634409,-5.3182 1.3295517,1.49408 -5.97634421,5.3182 m 10.62313621,-12.13049 5.976344,-5.31821 1.329551,1.49408 -5.976343,5.31821 m 10.623137,-12.13049 5.976345,-5.31821 1.329551,1.49408 -5.976345,5.31821 m 10.623135,-12.1305 5.976345,-5.3182 1.329552,1.49407 -5.976345,5.31821 m 10.623138,-12.13049 5.976345,-5.31821 1.329552,1.49408 -5.976345,5.31821 m 10.623138,-12.1305 5.976345,-5.3182 1.329544,1.49408 -5.976337,5.3182 m 10.623134,-12.13049 5.976349,-5.31821 1.329544,1.49408 -5.976348,5.31821 m 10.623146,-12.13049 5.976348,-5.31821 1.329545,1.49408 -5.976349,5.31821 m 10.623146,-12.1305 5.976346,-5.3182 1.32954,1.49408 -5.976342,5.3182 m 10.623142,-12.13049 5.97634,-5.31821 1.32955,1.49408 -5.97634,5.31821 m 10.62314,-12.13049 5.97634,-5.31821 1.32955,1.49408 -5.97634,5.31821 m 10.62313,-12.1305 5.97635,-5.3182 1.32956,1.49408 -5.97635,5.3182 m 10.62312,-12.13047 5.97635,-5.31821 1.32956,1.49408 -5.97635,5.3182 m 10.62314,-12.13049 5.97635,-5.31821 1.32956,1.49408 -5.97635,5.31821 m 10.62312,-12.13049 5.97635,-5.31821 1.32956,1.49408 -5.97635,5.31821 m 10.62314,-12.1305 5.97633,-5.3182 1.32956,1.49408 -5.97633,5.3182 m 10.62312,-12.13049 5.97635,-5.31821 1.32956,1.49408 -5.97635,5.31821 m 10.62312,-12.13049 5.97635,-5.31821 1.32956,1.49408 -5.97635,5.31821 m 10.62314,-12.1305 5.97634,-5.3182 1.32956,1.49408 -5.97634,5.3182 m 10.62312,-12.13049 5.97635,-5.31821 1.32956,1.49408 -5.97635,5.31821 m 10.62314,-12.13049 5.97634,-5.31821 1.32956,1.494079 -5.97634,5.318211 m 10.62312,-12.130497 5.97635,-5.318207 1.32953,1.49408 -5.97632,5.318206 m 10.62314,-12.130493 5.97635,-5.318207 1.32953,1.49408 -5.97635,5.318207 m 10.62317,-12.130493 5.97635,-5.318211 1.32953,1.494083 -5.97635,5.318207 m 10.62314,-12.130481 5.97635,-5.318207 1.32953,1.494087 -5.97635,5.318207 m 10.62317,-12.130501 5.97634,-5.318207 1.32953,1.494087 -5.97635,5.318207 m 10.62317,-12.130501 5.97635,-5.318206 1.32953,1.494087 -5.97635,5.318207 m 10.62317,-12.130501 5.97632,-5.318207 1.32953,1.494087 -5.97632,5.318207 m 10.62314,-12.1305 5.97635,-5.318207 1.32953,1.494086 -5.97635,5.318207" /></g></g></g></g></g></g><g
       id="g558"><g
         clip-path="url(#clipPath564)"
         id="g560"><g
           transform="matrix(1.3124295,-1.1676644,1.1678997,1.3121651,2123.4385,519.71069)"
           id="g566"><path
             id="path568"
             style="fill:#333333;fill-opacity:1;fill-rule:nonzero;stroke:none"
             d="M -12.727273,-7.5454545 0,0 -12.727273,7.5454545 Z" /></g><g
           transform="matrix(1.7568327,0,0,1.7564788,1596.3485,784.31177)"
           id="g570"><text
             id="text574"
             style="font-variant:normal;font-weight:normal;font-size:14px;font-family:OpenSans;-inkscape-font-specification:OpenSans-Regular;writing-mode:lr-tb;fill:#333333;fill-opacity:1;fill-rule:nonzero;stroke:none"
             transform="translate(0.42480469,14)"><tspan
               id="tspan572"
               y="0"
               x="0 6.6787109 14.533203 23.125977 31.705078 38.383789 42.020508 47.735352 55.589844 62.268555 70.861328 83.883789 91.738281 95.375 100.11914 108.5752 114.29004 117.92676 125.61035 138.25 147.10938 155.76367 163.50879 167.14551 174.81543 182.66992 191.2627 199.11719 204.83203 212.61816 217.56055 221.10156 229.55762">sends resume for SMART generation</tspan></text>
</g></g></g><g
       id="g576"><g
         clip-path="url(#clipPath582)"
         id="g578"><g
           clip-path="url(#clipPath588)"
           id="g584"><g
             clip-path="url(#clipPath594)"
             id="g590"><g
               clip-path="url(#clipPath600)"
               id="g596"><g
                 transform="matrix(1.7568327,0,0,1.7564788,2341.887,519.71069)"
                 id="g602"><path
                   id="path604"
                   style="fill:#333333;fill-opacity:1;fill-rule:nonzero;stroke:none"
                   d="m 178.47874,253.16986 -4.6306,-6.52362 1.63089,-1.15765 4.6306,6.52362 m -10.89207,-11.88959 -4.6306,-6.52362 1.63089,-1.15765 4.6306,6.52362 m -10.89209,-11.88958 -4.6306,-6.52362 1.63089,-1.15765 4.6306,6.52362 m -10.89208,-11.88959 -4.6306,-6.52362 1.63089,-1.15765 4.6306,6.52362 m -10.89209,-11.88959 -4.63058,-6.5236 1.63089,-1.15766 4.63058,6.52361 m -10.89207,-11.88957 -4.63061,-6.52363 1.6309,-1.15765 4.6306,6.52362 m -10.89208,-11.88959 -4.6306,-6.52362 1.6309,-1.15765 4.6306,6.52362 m -10.89209,-11.88959 -4.6306,-6.52362 1.6309,-1.15765 4.6306,6.52362 m -10.8921,-11.88959 -4.630589,-6.52362 1.630909,-1.15765 4.63059,6.52362 m -10.892099,-11.88957 -4.630592,-6.52363 1.630905,-1.15765 4.630592,6.52362 m -10.892097,-11.88958 -4.630592,-6.52363 1.630905,-1.15765 4.630592,6.52362 m -10.89209,-11.88959 -4.6306,-6.5236 1.630905,-1.15766 4.6306,6.52361 m -10.892097,-11.889573 -4.630592,-6.52362 1.630905,-1.157654 4.630592,6.523621 M 58.08326,83.555786 l -4.630593,-6.52362 1.630905,-1.157654 4.630593,6.52362 m -10.89209,-11.889587 -4.6306,-6.523609 1.630905,-1.157646 4.6306,6.523601 m -10.892105,-11.889576 -4.630585,-6.52362 1.630905,-1.157647 4.630585,6.523621 m -10.89209,-11.889595 -4.6306,-6.523621 1.630905,-1.157646 4.6306,6.523621 m -10.892089,-11.889593 -4.6306,-6.523621 1.630905,-1.15765 4.6306,6.523621 M 11.777306,18.319609 7.1467214,11.795987 8.777626,10.638339 l 4.630585,6.52362" /></g></g></g></g></g></g><g
       id="g606"><g
         clip-path="url(#clipPath612)"
         id="g608"><g
           transform="matrix(-1.0168976,-1.4323245,1.4326131,-1.0166926,2341.887,519.71069)"
           id="g614"><path
             id="path616"
             style="fill:#333333;fill-opacity:1;fill-rule:nonzero;stroke:none"
             d="M -12.727273,-7.5454545 0,0 -12.727273,7.5454545 Z" /></g><g
           transform="matrix(1.7568327,0,0,1.7564788,2361.3767,731.27313)"
           id="g618"><text
             id="text622"
             style="font-variant:normal;font-weight:normal;font-size:14px;font-family:OpenSans;-inkscape-font-specification:OpenSans-Regular;writing-mode:lr-tb;fill:#333333;fill-opacity:1;fill-rule:nonzero;stroke:none"
             transform="translate(0.38476563,14)"><tspan
               id="tspan620"
               y="0"
               x="0 7.6699219 15.524414 20.466797 24.103516 37.125977 44.912109 49.854492 56.519531 65.112305 72.966797 79.645508 83.282227 88.026367 96.482422 102.19727 105.83398 111.54883 119.40332 126.08203 134.6748 147.69727 155.55176">get matches for resumes</tspan></text>
</g></g></g><g
       id="g624"><g
         clip-path="url(#clipPath630)"
         id="g626"><g
           clip-path="url(#clipPath636)"
           id="g632"><g
             clip-path="url(#clipPath642)"
             id="g638"><g
               clip-path="url(#clipPath648)"
               id="g644"><g
                 transform="matrix(1.7568327,0,0,1.7564788,2020.5397,519.71069)"
                 id="g650"><path
                   id="path652"
                   style="fill:#333333;fill-opacity:1;fill-rule:nonzero;stroke:none"
                   d="m -0.90012598,252.15541 3.48503808,-7.201 1.8002522,0.87124 -3.48503832,7.20101 m 5.16982412,-15.27326 3.4850388,-7.20102 1.8002511,0.87125 -3.4850379,7.20102 m 5.1698239,-15.27327 3.485038,-7.201 1.800251,0.87124 -3.485036,7.20101 m 5.169824,-15.27327 3.485037,-7.20101 1.800251,0.87125 -3.485037,7.201 m 5.169825,-15.27325 3.485039,-7.20101 1.800251,0.87125 -3.485039,7.201 m 5.169823,-15.27325 3.485038,-7.20102 1.800255,0.87125 -3.485039,7.20102 m 5.169823,-15.27327 3.485039,-7.20101 1.800255,0.87125 -3.485039,7.201 m 5.169819,-15.27327 3.485039,-7.201 1.800254,0.87125 -3.485038,7.201 m 5.169822,-15.27326 3.485039,-7.201 1.800255,0.87125 -3.485039,7.201 m 5.169823,-15.27326 3.485039,-7.20102 1.800247,0.87126 -3.485031,7.20102 m 5.169822,-15.27328 3.485039,-7.20101 1.800247,0.87126 -3.485039,7.20101 m 5.169831,-15.273287 3.485039,-7.201004 1.800247,0.871262 -3.485039,7.201004 m 5.16983,-15.27327 3.485039,-7.201004 1.800247,0.871261 -3.485038,7.201005 m 5.16983,-15.27327 3.485031,-7.201019 1.800247,0.871261 -3.485031,7.201019 m 5.169823,-15.273284 3.485041,-7.201004 1.80025,0.871261 -3.485044,7.201004 m 5.169834,-15.273285 3.48504,-7.201002 1.80024,0.871258 -3.48504,7.201006 m 5.16983,-15.273268 3.48504,-7.201005 1.80025,0.87126 -3.48504,7.201003" /></g></g></g></g></g></g><g
       id="g654"><g
         clip-path="url(#clipPath660)"
         id="g656"><g
           transform="matrix(0.76532853,-1.5810522,1.5813707,0.76517433,2235.3042,519.71069)"
           id="g662"><path
             id="path664"
             style="fill:#333333;fill-opacity:1;fill-rule:nonzero;stroke:none"
             d="M -12.727273,-7.5454545 0,0 -12.727273,7.5454545 Z" /></g><g
           transform="matrix(1.7568327,0,0,1.7564788,1934.2877,732.03027)"
           id="g666"><text
             id="text670"
             style="font-variant:normal;font-weight:normal;font-size:14px;font-family:OpenSans;-inkscape-font-specification:OpenSans-Regular;writing-mode:lr-tb;fill:#333333;fill-opacity:1;fill-rule:nonzero;stroke:none"
             transform="translate(0.58007813,14)"><tspan
               id="tspan668"
               y="0"
               x="0 6.6787109 14.533203 23.125977 31.705078 38.383789 42.020508 47.735352 55.589844 62.268555 70.861328 83.883789 91.738281 95.375 100.11914 108.5752 114.29004 117.92676 125.71289 134.30566 142.76172 151.35449 158.40918 171.43164 174.97266 181.52148 189.30762 194.25 197.79102 206.24707">sends resume for anonymization</tspan></text>
</g></g></g><g
       id="g672"><g
         clip-path="url(#clipPath678)"
         id="g674"><g
           clip-path="url(#clipPath684)"
           id="g680"><g
             clip-path="url(#clipPath690)"
             id="g686"><g
               clip-path="url(#clipPath696)"
               id="g692"><g
                 transform="matrix(1.7568327,0,0,1.7564788,1502.5045,1116.057)"
                 id="g698"><path
                   id="path700"
                   style="fill:#333333;fill-opacity:1;fill-rule:nonzero;stroke:none"
                   d="m -0.16659376,24.013975 7.88820526,-1.33275 0.3331876,1.97205 -7.88820534,1.33275 m 15.44322324,-4.63755 7.888205,-1.332751 0.333187,1.97205 -7.888205,1.33275 m 15.443223,-4.63755 7.888202,-1.332749 0.333191,1.97205 -7.888206,1.332749 m 15.443222,-4.637549 7.888202,-1.332751 0.333191,1.97205 -7.888202,1.332751 m 15.443218,-4.637551 7.888203,-1.332751 0.333191,1.972052 -7.888203,1.33275 m 15.443218,-4.637552 7.888207,-1.3327495 0.333191,1.9720515 -7.888207,1.33275 m 15.443222,-4.6375518 7.888203,-1.3327494 0.33319,1.9720517 -7.888202,1.3327493 m 15.443212,-4.6375513 7.88821,-1.3327503 0.33319,1.9720516 -7.88821,1.3327503 m 15.44323,-4.637552 7.8882,-1.3327503 0.33319,1.9720511 -7.8882,1.3327506" /></g></g></g></g></g></g><g
       id="g702"><g
         clip-path="url(#clipPath708)"
         id="g704"><g
           transform="matrix(1.732282,-0.29261839,0.29267737,1.7319331,1762.4606,1116.057)"
           id="g710"><path
             id="path712"
             style="fill:#333333;fill-opacity:1;fill-rule:nonzero;stroke:none"
             d="M -12.727273,-7.5454545 0,0 -12.727273,7.5454545 Z" /></g><g
           transform="matrix(1.7568327,0,0,1.7564788,1573.594,1121.9379)"
           id="g714"><text
             id="text718"
             style="font-variant:normal;font-weight:normal;font-size:14px;font-family:OpenSans;-inkscape-font-specification:OpenSans-Regular;writing-mode:lr-tb;fill:#333333;fill-opacity:1;fill-rule:nonzero;stroke:none"
             transform="translate(0.51367188,14)"><tspan
               id="tspan716"
               y="0"
               x="0 8.5791016 14.293945 22.75 35.772461 44.351562 49.293945">prompts</tspan></text>
</g></g></g><g
       id="g720"><g
         clip-path="url(#clipPath726)"
         id="g722"><g
           clip-path="url(#clipPath732)"
           id="g728"><g
             clip-path="url(#clipPath738)"
             id="g734"><g
               clip-path="url(#clipPath744)"
               id="g740"><g
                 transform="matrix(1.7568327,0,0,1.7564788,1326.557,1268.7661)"
                 id="g746"><path
                   id="path748"
                   style="fill:#333333;fill-opacity:1;fill-rule:nonzero;stroke:none"
                   d="m 321.12552,0.7420845 -5.93668,5.3624506 -1.34063,-1.484169 5.93667,-5.3624506 m -10.53271,12.2090705 -5.93668,5.362451 -1.34064,-1.484169 5.93668,-5.3624513 m -10.53272,12.2090703 -5.93667,5.36245 -1.34064,-1.484169 5.93668,-5.36245 m -10.53272,12.209072 -5.93667,5.36245 -1.34064,-1.484169 5.93668,-5.36245 m -10.53272,12.209068 -5.93668,5.36245 -1.34063,-1.484169 5.93667,-5.36245 m -10.53271,12.209069 -5.93669,5.362453 -1.34061,-1.484169 5.93666,-5.362453 m -10.53273,12.209072 -5.93667,5.362457 -1.34061,-1.484177 5.93667,-5.362445 m -10.53274,12.209064 -5.93668,5.362457 -1.3406,-1.484176 5.93667,-5.362442 m -10.53274,12.20906 -5.93668,5.362458 -1.34061,-1.484177 5.93668,-5.362442 m -10.53274,12.209061 -5.93668,5.36246 -1.34061,-1.48418 5.93668,-5.362442 m -10.53275,12.209062 -5.93667,5.36246 -1.34061,-1.48417 5.93668,-5.36245 m -10.53275,12.20907 -5.93668,5.36244 -1.3406,-1.48416 5.93667,-5.36245 m -10.53274,12.20907 -5.93668,5.36244 -1.3406,-1.48416 5.93667,-5.36244 m -10.53274,12.20906 -5.93668,5.36244 -1.34061,-1.48416 5.93668,-5.36244 m -10.53275,12.20906 -5.93667,5.36244 -1.34061,-1.48416 5.93668,-5.36244 m -10.53275,12.20906 -5.93667,5.36244 -1.34061,-1.48416 5.93668,-5.36244 m -10.53275,12.20906 -5.93667,5.36246 -1.34061,-1.48416 5.93667,-5.36246 m -10.53274,12.20906 -5.93668,5.36246 -1.3406,-1.48416 5.93667,-5.36246 m -10.53274,12.20906 -5.93668,5.36246 -1.34061,-1.48417 5.93668,-5.36245 m -10.532745,12.20906 -5.936676,5.36246 -1.340607,-1.48417 5.936676,-5.36245 m -10.532745,12.20906 -5.936677,5.36245 -1.340606,-1.48416 5.936676,-5.36245 m -10.532746,12.20907 -5.936676,5.36244 -1.340606,-1.48416 5.936676,-5.36244 m -10.532742,12.20906 -5.936676,5.36244 -1.340614,-1.48416 5.936676,-5.36244 m -10.532738,12.20906 -5.936676,5.36244 -1.340614,-1.48416 5.936676,-5.36244 m -10.532738,12.20909 -5.936676,5.36243 -1.340614,-1.4842 5.936676,-5.36242 m -10.532738,12.20907 -5.936676,5.36246 -1.340614,-1.48419 5.936676,-5.36246 m -10.532739,12.20911 -4.1922607,3.78677 -1.3406124,-1.48419 4.1922611,-3.78677" /></g></g></g></g></g></g><g
       id="g750"><g
         clip-path="url(#clipPath756)"
         id="g752"><g
           transform="matrix(-1.3037183,1.1773789,-1.1776161,-1.3034557,1326.557,1777.1949)"
           id="g758"><path
             id="path760"
             style="fill:#333333;fill-opacity:1;fill-rule:nonzero;stroke:none"
             d="M -12.727273,-7.5454545 0,0 -12.727273,7.5454545 Z" /></g><g
           transform="matrix(1.7568327,0,0,1.7564788,1456.5723,1499.4218)"
           id="g762"><text
             id="text766"
             style="font-variant:normal;font-weight:normal;font-size:14px;font-family:OpenSans;-inkscape-font-specification:OpenSans-Regular;writing-mode:lr-tb;fill:#333333;fill-opacity:1;fill-rule:nonzero;stroke:none"
             transform="translate(0.64404297,14)"><tspan
               id="tspan764"
               y="0"
               x="0 12.960938 18.675781 22.216797 27.15918 35.013672 41.692383 45.329102 53.115234 61.708008 70.164062 78.756836 85.811523 98.833984 102.375 108.92383 116.77832 125.35742 128.99414 134.70898 142.56348 149.24219 157.83496 170.85742">Writes anonymized resume</tspan></text>
</g></g></g><g
       id="g768"><g
         clip-path="url(#clipPath774)"
         id="g770"><g
           clip-path="url(#clipPath780)"
           id="g776"><g
             clip-path="url(#clipPath786)"
             id="g782"><g
               clip-path="url(#clipPath792)"
               id="g788"><g
                 transform="matrix(1.7568327,0,0,1.7564788,1326.557,1268.7661)"
                 id="g794"><path
                   id="path796"
                   style="fill:#333333;fill-opacity:1;fill-rule:nonzero;stroke:none"
                   d="m 795.49445,0.93967462 -7.5174,2.73655628 -0.68408,-1.8793492 7.51739,-2.73655632 m -14.3507,7.35246202 -7.5174,2.7365561 -0.68408,-1.8793488 7.51739,-2.736557 m -14.3507,7.3524623 -7.5174,2.736556 -0.68408,-1.879349 7.51739,-2.736556 m -14.3507,7.352462 -7.5174,2.736555 -0.68408,-1.879349 7.51739,-2.736555 m -14.3507,7.352461 -7.5174,2.736557 -0.68408,-1.879349 7.51739,-2.736557 m -14.3507,7.352461 -7.5174,2.736557 -0.68408,-1.879349 7.51739,-2.736557 m -14.3507,7.352463 -7.5174,2.736557 -0.68408,-1.879349 7.51739,-2.736557 m -14.35077,7.352459 -7.51733,2.736557 -0.68408,-1.879349 7.51733,-2.736557 m -14.35071,7.352463 -7.51733,2.736557 -0.68408,-1.879349 7.51733,-2.736557 m -14.35071,7.352463 -7.51733,2.736553 -0.68408,-1.879349 7.51733,-2.736553 m -14.35071,7.352459 -7.51739,2.736557 -0.68408,-1.879348 7.51739,-2.736557 m -14.35071,7.352462 -7.51739,2.736557 -0.68408,-1.879348 7.51739,-2.736557 m -14.35071,7.352462 -7.51739,2.736557 -0.68408,-1.879348 7.51739,-2.736557 m -14.35071,7.352462 -7.51739,2.73655 -0.68408,-1.879349 7.51739,-2.736549 m -14.35071,7.352455 -7.51739,2.736557 -0.68408,-1.879349 7.51739,-2.736557 m -14.35071,7.352463 -7.51739,2.736557 -0.68408,-1.879349 7.51739,-2.736557 m -14.35071,7.352463 -7.51739,2.736557 -0.68408,-1.879349 7.51739,-2.736557 m -14.35071,7.352463 -7.51739,2.736557 -0.68408,-1.879349 7.51739,-2.736557 m -14.35071,7.352463 -7.51739,2.736556 -0.68408,-1.87935 7.51739,-2.736555 m -14.35068,7.352455 -7.51739,2.73656 -0.68414,-1.87935 7.51739,-2.73656 m -14.35065,7.35246 -7.51742,2.73656 -0.68414,-1.87935 7.51742,-2.73656 m -14.35068,7.35247 -7.51739,2.73656 -0.68414,-1.87935 7.51739,-2.73656 m -14.35065,7.35246 -7.51739,2.73656 -0.68414,-1.87935 7.51739,-2.73656 m -14.35065,7.35247 -7.51739,2.73656 -0.68414,-1.87936 7.51739,-2.73655 m -14.35065,7.35247 -7.51739,2.73655 -0.68414,-1.87936 7.51739,-2.73656 m -14.35065,7.35248 -7.51739,2.73656 -0.68414,-1.87937 7.51739,-2.73655 m -14.35065,7.35248 -7.51739,2.73655 -0.68414,-1.87936 7.51739,-2.73656 m -14.35065,7.35246 -7.51739,2.73656 -0.68414,-1.87936 7.51739,-2.73656 m -14.35068,7.35248 -7.51739,2.73656 -0.68414,-1.87937 7.51739,-2.73656 m -14.35065,7.35248 -7.51739,2.73656 -0.68414,-1.87936 7.51739,-2.73656 m -14.35065,7.35248 -7.51739,2.73655 -0.68415,-1.87936 7.5174,-2.73656 m -14.35065,7.35248 -7.51739,2.73656 -0.68415,-1.87937 7.5174,-2.73655 m -14.35065,7.35247 -7.51739,2.73656 -0.68415,-1.87936 7.5174,-2.73656 m -14.35065,7.35248 -7.51739,2.73656 -0.68415,-1.87937 7.5174,-2.73656 m -14.35065,7.35248 -7.51739,2.73656 -0.68415,-1.87936 7.5174,-2.73656 m -14.35065,7.35248 -7.51739,2.73655 -0.68415,-1.87936 7.5174,-2.73656 m -14.35065,7.35248 -7.51739,2.73656 -0.68415,-1.87937 7.5174,-2.73655 m -14.35065,7.35247 -7.51739,2.73655 -0.68415,-1.87937 7.5174,-2.73654 m -14.35065,7.35246 -7.51739,2.73656 -0.68415,-1.87936 7.5174,-2.73656 m -14.35065,7.35248 -7.51739,2.73655 -0.68415,-1.87936 7.5174,-2.73656 m -14.35065,7.35248 -7.51745,2.73656 -0.68415,-1.87937 7.51746,-2.73655 m -14.35071,7.35248 -7.51739,2.73655 -0.68415,-1.87936 7.5174,-2.73656 m -14.35065,7.35248 -7.51739,2.73656 -0.68415,-1.87937 7.5174,-2.73655 m -14.35065,7.35247 -7.51739,2.73656 -0.68415,-1.87936 7.5174,-2.73656 m -14.35065,7.35248 -7.51739,2.73655 -0.68415,-1.87936 7.5174,-2.73656 m -14.35065,7.35248 -7.51739,2.73656 -0.68415,-1.87937 7.5174,-2.73655 m -14.35065,7.35248 -7.517394,2.73655 -0.684143,-1.87936 7.517397,-2.73656 m -14.350649,7.35246 -7.517395,2.73655 -0.684143,-1.87934 7.517395,-2.73654 m -14.350647,7.35245 -7.517395,2.73654 -0.684143,-1.87933 7.517395,-2.73655 m -14.350651,7.35245 -7.517395,2.73654 -0.684135,-1.87933 7.517395,-2.73654 m -14.350655,7.35245 -7.517395,2.73654 -0.684135,-1.87934 7.517395,-2.73654 m -14.350653,7.35245 -7.517395,2.73654 -0.684139,-1.87933 7.517395,-2.73654 m -14.350651,7.35244 -3.7755735,1.37439 -0.6841392,-1.87933 3.7755737,-1.37439" /></g></g></g></g></g></g><g
       id="g798"><g
         clip-path="url(#clipPath804)"
         id="g800"><g
           transform="matrix(-1.6508511,0.60083771,-0.60095882,-1.6505187,1326.557,1777.1949)"
           id="g806"><path
             id="path808"
             style="fill:#333333;fill-opacity:1;fill-rule:nonzero;stroke:none"
             d="M -12.727273,-7.5454545 0,0 -12.727273,7.5454545 Z" /></g><g
           transform="matrix(1.7568327,0,0,1.7564788,1871.8076,1502.3569)"
           id="g810"><text
             id="text814"
             style="font-variant:normal;font-weight:normal;font-size:14px;font-family:OpenSans;-inkscape-font-specification:OpenSans-Regular;writing-mode:lr-tb;fill:#333333;fill-opacity:1;fill-rule:nonzero;stroke:none"
             transform="translate(0.27197266,14)"><tspan
               id="tspan812"
               y="0"
               x="0 12.960938 18.675781 22.216797 27.15918 35.013672 41.692383 45.329102 58.351562 66.137695 71.080078 77.745117 86.337891 94.192383 100.87109 104.50781 109.25195 117.70801 123.42285 127.05957 132.77441 140.62891 147.30762 155.90039 168.92285 176.77734">Writes matches for resumes</tspan></text>
</g></g></g><g
       id="g816"><g
         clip-path="url(#clipPath822)"
         id="g818"><g
           clip-path="url(#clipPath828)"
           id="g824"><g
             clip-path="url(#clipPath834)"
             id="g830"><g
               clip-path="url(#clipPath840)"
               id="g836"><g
                 transform="matrix(1.7568327,0,0,1.7564788,2224.5989,1116.057)"
                 id="g842"><path
                   id="path844"
                   style="fill:#333333;fill-opacity:1;fill-rule:nonzero;stroke:none"
                   d="M 0.01830289,-0.99983251 8.0169621,-0.85340935 7.9803567,1.1462556 -0.01830289,0.99983251 Z m 15.99731811,0.29284632 7.998661,0.1464231 -0.03661,1.99966499 -7.99866,-0.1464231 0.0366,-1.99966499 z m 15.997318,0.29284626 7.998661,0.14642322 -0.03661,1.99966511 -7.998659,-0.1464234 0.0366,-1.99966493 z m 15.972142,0.1695686 7.999771,-0.0603404 0.01508,1.99994313 -7.999771,0.06034 z m 15.999546,-0.12068087 7.999771,-0.0603404 0.01509,1.9999432 -7.999779,0.06034 -0.01508,-1.9999432 z m 15.999542,-0.12068087 7.999771,-0.0603404 0.01509,1.99994317 -7.999771,0.06034 z m 15.999542,-0.12068092 7.999769,-0.0603404 0.0151,1.99994309 -7.999768,0.06034 -0.01509,-1.99994308 z m 15.999539,-0.12068081 7.99978,-0.0603405 0.0151,1.9999432 -7.99978,0.06034 z m 15.99955,-0.12068087 7.99977,-0.0603405 0.0151,1.99994317 -7.99976,0.060341 -0.0151,-1.9999432 z" /></g></g></g></g></g></g><g
       id="g846"><g
         clip-path="url(#clipPath852)"
         id="g848"><g
           transform="matrix(1.7567827,-0.01324834,0.01325101,1.7564287,2484.8589,1116.057)"
           id="g854"><path
             id="path856"
             style="fill:#333333;fill-opacity:1;fill-rule:nonzero;stroke:none"
             d="M -12.727273,-7.5454545 0,0 -12.727273,7.5454545 Z" /></g><g
           transform="matrix(1.7568327,0,0,1.7564788,2295.7102,1099.541)"
           id="g858"><text
             id="text862"
             style="font-variant:normal;font-weight:normal;font-size:14px;font-family:OpenSans;-inkscape-font-specification:OpenSans-Regular;writing-mode:lr-tb;fill:#333333;fill-opacity:1;fill-rule:nonzero;stroke:none"
             transform="translate(0.51367188,14)"><tspan
               id="tspan860"
               y="0"
               x="0 8.5791016 14.293945 22.75 35.772461 44.351562 49.293945">prompts</tspan></text>
</g></g></g><g
       id="g864"><g
         clip-path="url(#clipPath870)"
         id="g866"><g
           clip-path="url(#clipPath876)"
           id="g872"><g
             clip-path="url(#clipPath882)"
             id="g878"><g
               clip-path="url(#clipPath888)"
               id="g884"><g
                 transform="matrix(1.7568327,0,0,1.7564788,945.4256,371.56097)"
                 id="g890"><path
                   id="path892"
                   style="fill:#333333;fill-opacity:1;fill-rule:nonzero;stroke:none"
                   d="m 180.39044,337.40753 -3.79028,-7.0451 1.76129,-0.94757 3.79028,7.0451 m -9.34187,-13.14267 -3.79028,-7.0451 1.76129,-0.94757 3.79028,7.0451 m -9.34187,-13.14267 -3.79029,-7.0451 1.7613,-0.94757 3.79028,7.0451 m -9.34186,-13.14267 -3.7903,-7.0451 1.76129,-0.94758 3.7903,7.04511 m -9.34187,-13.14267 -3.7903,-7.04511 1.76129,-0.94757 3.7903,7.04511 m -9.34187,-13.14267 -3.79028,-7.04511 1.76129,-0.94757 3.79028,7.04511 m -9.34187,-13.14266 -3.79029,-7.04512 1.76129,-0.94757 3.79029,7.04512 m -9.34187,-13.14265 -3.79028,-7.04514 1.76128,-0.94757 3.79029,7.04514 m -9.34186,-13.14267 -3.79029,-7.04514 1.76128,-0.94757 3.79029,7.04514 m -9.34186,-13.14267 -3.79029,-7.04512 1.76128,-0.94757 3.79028,7.04512 m -9.34185,-13.14267 -3.79029,-7.04512 1.76128,-0.94757 3.79029,7.04512 m -9.341858,-13.14267 -3.790291,-7.04512 1.761276,-0.94757 3.790291,7.04512 m -9.341858,-13.14267 -3.790283,-7.04512 1.761276,-0.94758 3.790283,7.04513 m -9.34185,-13.14267 -3.790291,-7.04511 1.761276,-0.94757 3.790291,7.0451 m -9.341858,-13.14265 -3.79029,-7.04512 1.761276,-0.94757 3.790291,7.04512 m -9.341851,-13.14267 -3.790291,-7.04512 1.761277,-0.94757 3.790291,7.04512 m -9.341858,-13.14267 -3.790291,-7.04512 1.761276,-0.94757 3.790291,7.04512 m -9.341858,-13.142671 -3.790283,-7.04512 1.761276,-0.947571 3.790283,7.045121 m -9.341858,-13.14267 -3.790283,-7.04512 1.761276,-0.947571 3.790284,7.04512 m -9.341843,-13.142654 -3.790299,-7.045136 1.761277,-0.947571 3.790298,7.045136 m -9.34186,-13.14267 -3.790298,-7.045135 1.76128,-0.947571 3.790298,7.045135 m -9.341861,-13.142669 -3.790284,-7.045105 1.761281,-0.947571 3.790283,7.045105 m -9.341862,-13.14267 -3.7902832,-7.045105 1.7612802,-0.947571 3.790283,7.045105 M 6.0371304,13.332063 3.9433653,9.4403391 5.7046452,8.4927664 7.7984104,12.38449" /></g></g></g></g></g></g><g
       id="g894"><g
         clip-path="url(#clipPath900)"
         id="g896"><g
           transform="matrix(-0.83236313,-1.5468252,1.5471369,-0.83219534,945.4256,371.56097)"
           id="g902"><path
             id="path904"
             style="fill:#333333;fill-opacity:1;fill-rule:nonzero;stroke:none"
             d="M -12.727273,-7.5454545 0,0 -12.727273,7.5454545 Z" /></g><g
           transform="matrix(1.7568327,0,0,1.7564788,964.83429,657.77942)"
           id="g906"><text
             id="text910"
             style="font-variant:normal;font-weight:normal;font-size:14px;font-family:OpenSans;-inkscape-font-specification:OpenSans-Regular;writing-mode:lr-tb;fill:#333333;fill-opacity:1;fill-rule:nonzero;stroke:none"
             transform="translate(0.36181641,14)"><tspan
               id="tspan908"
               y="0"
               x="0 8.6542969 16.508789 24.294922 32.874023 39.552734 43.189453 49.868164 58.460938 67.040039 80.0625 83.603516 88.545898 93.488281 101.34277 109.92188 113.55859 119.27344 127.12793 133.80664 142.39941 155.42188">Reads submitted resume</tspan></text>
</g></g></g><g
       id="g912"><g
         clip-path="url(#clipPath918)"
         id="g914"><g
           clip-path="url(#clipPath924)"
           id="g920"><g
             clip-path="url(#clipPath930)"
             id="g926"><g
               clip-path="url(#clipPath936)"
               id="g932"><g
                 transform="matrix(1.7568327,0,0,1.7564788,543.42914,1268.7661)"
                 id="g938"><path
                   id="path940"
                   style="fill:#333333;fill-opacity:1;fill-rule:nonzero;stroke:none"
                   d="M 1,0 V 8 H -1 V 0 m 2,16 v 8 h -2 v -8 m 2,16 v 8 h -2 v -8 m 2,16 v 8 h -2 v -8 m 2,16 v 8 h -2 v -8 m 2,16 v 8 h -2 v -8 m 2,16 v 8 h -2 v -8 m 2,16 v 8 h -2 v -8 m 2,16 v 8 h -2 v -8 m 2,16 v 8 h -2 v -8 m 2,16 v 8 h -2 v -8 m 2,16 v 8 h -2 v -8 m 2,16 v 8 h -2 v -8 m 2,16 v 8 h -2 v -8 m 2,16 v 8 h -2 v -8 m 2,16 v 8 h -2 v -8 m 2,16 v 8 h -2 v -8 m 2,16 v 7.27734 H -1 V 272" /></g></g></g></g></g></g><g
       id="g942"><g
         clip-path="url(#clipPath948)"
         id="g944"><g
           transform="matrix(0,1.7564788,-1.7568327,0,543.42914,1777.1949)"
           id="g950"><path
             id="path952"
             style="fill:#333333;fill-opacity:1;fill-rule:nonzero;stroke:none"
             d="M -12.727273,-7.5454545 0,0 -12.727273,7.5454545 Z" /></g><g
           transform="matrix(1.7568327,0,0,1.7564788,454.70911,1496.4736)"
           id="g954"><text
             id="text958"
             style="font-variant:normal;font-weight:normal;font-size:14px;font-family:OpenSans;-inkscape-font-specification:OpenSans-Regular;writing-mode:lr-tb;fill:#333333;fill-opacity:1;fill-rule:nonzero;stroke:none"
             transform="translate(0.70703125,14)"><tspan
               id="tspan956"
               y="0"
               x="0 8.6542969 16.508789 24.294922 32.874023 39.552734 43.189453 48.904297 56.758789 63.4375 72.030273 85.052734 92.907227">Reads resumes</tspan></text>
</g></g></g></g></svg>