<?xml version="1.0" encoding="UTF-8" standalone="no"?>
<svg
   xmlns:dc="http://purl.org/dc/elements/1.1/"
   xmlns:cc="http://creativecommons.org/ns#"
   xmlns:rdf="http://www.w3.org/1999/02/22-rdf-syntax-ns#"
   xmlns:svg="http://www.w3.org/2000/svg"
   xmlns="http://www.w3.org/2000/svg"
   viewBox="0 0 306.56 656"
   height="656"
   width="306.56"
   xml:space="preserve"
   id="svg2"
   version="1.1"><metadata
     id="metadata8"><rdf:RDF><cc:Work
         rdf:about=""><dc:format>image/svg+xml</dc:format><dc:type
           rdf:resource="http://purl.org/dc/dcmitype/StillImage" /></cc:Work></rdf:RDF></metadata><defs
     id="defs6"><clipPath
       id="clipPath18"
       clipPathUnits="userSpaceOnUse"><path
         style="clip-rule:evenodd"
         id="path16"
         d="M 0,0 H 958.33331 V 2047.3485 H 0 Z" /></clipPath><clipPath
       id="clipPath30"
       clipPathUnits="userSpaceOnUse"><path
         style="clip-rule:evenodd"
         id="path28"
         d="M 0,0 H 958.33331 V 2041.1256 H 0 Z" /></clipPath><clipPath
       id="clipPath42"
       clipPathUnits="userSpaceOnUse"><path
         style="clip-rule:evenodd"
         id="path40"
         d="M 0,0 H 958.33331 V 2041.1256 H 0 Z" /></clipPath><clipPath
       id="clipPath54"
       clipPathUnits="userSpaceOnUse"><path
         style="clip-rule:evenodd"
         id="path52"
         d="M 0,0 H 958.33331 V 2041.1256 H 0 Z" /></clipPath><clipPath
       id="clipPath74"
       clipPathUnits="userSpaceOnUse"><path
         style="clip-rule:evenodd"
         id="path72"
         d="M 213.61511,602.33813 H 816.48999 V 1459.3535 H 213.61511 Z" /></clipPath><clipPath
       id="clipPath86"
       clipPathUnits="userSpaceOnUse"><path
         style="clip-rule:evenodd"
         id="path84"
         d="M 0,0 H 958.33331 V 2041.1256 H 0 Z" /></clipPath><clipPath
       id="clipPath104"
       clipPathUnits="userSpaceOnUse"><path
         id="path102"
         d="M 0,0 H 958.33331 V 2047.3485 H 0 Z" /></clipPath><clipPath
       id="clipPath110"
       clipPathUnits="userSpaceOnUse"><path
         id="path108"
         d="M 0,0 H 958.33331 V 2041.1256 H 0 Z" /></clipPath><clipPath
       id="clipPath116"
       clipPathUnits="userSpaceOnUse"><path
         id="path114"
         d="M 258.0593,179.69621 H 727.58643 V 308.47342 H 258.0593 Z" /></clipPath><clipPath
       id="clipPath122"
       clipPathUnits="userSpaceOnUse"><path
         id="path120"
         d="m 280.68039,308.47342 c -30.16145,0 -30.16145,-128.77721 0,-128.77721 h 424.28494 c 30.1615,0 30.1615,128.77721 0,128.77721 z" /></clipPath><clipPath
       id="clipPath136"
       clipPathUnits="userSpaceOnUse"><path
         id="path134"
         d="M 0,0 H 958.33331 V 2047.3485 H 0 Z" /></clipPath><clipPath
       id="clipPath142"
       clipPathUnits="userSpaceOnUse"><path
         id="path140"
         d="M 0,0 H 958.33331 V 2041.1256 H 0 Z" /></clipPath><clipPath
       id="clipPath148"
       clipPathUnits="userSpaceOnUse"><path
         id="path146"
         d="M 258.0593,179.69621 H 727.58643 V 308.47342 H 258.0593 Z" /></clipPath><clipPath
       id="clipPath160"
       clipPathUnits="userSpaceOnUse"><path
         style="clip-rule:evenodd"
         id="path158"
         d="M 0,0 H 958.33331 V 2041.1256 H 0 Z" /></clipPath><clipPath
       id="clipPath178"
       clipPathUnits="userSpaceOnUse"><path
         id="path176"
         d="M 0,0 H 958.33331 V 2047.3485 H 0 Z" /></clipPath><clipPath
       id="clipPath184"
       clipPathUnits="userSpaceOnUse"><path
         id="path182"
         d="M 0,0 H 958.33331 V 2041.1256 H 0 Z" /></clipPath><clipPath
       id="clipPath190"
       clipPathUnits="userSpaceOnUse"><path
         id="path188"
         d="m 267.61087,1538.6899 h 450.4072 v 300.4869 h -450.4072 z" /></clipPath><clipPath
       id="clipPath196"
       clipPathUnits="userSpaceOnUse"><path
         id="path194"
         d="m 267.61087,1561.2715 c 0,-30.1088 450.4072,-30.1088 450.4072,0 v 255.3238 c 0,30.1087 -450.4072,30.1087 -450.4072,0 z" /></clipPath><clipPath
       id="clipPath210"
       clipPathUnits="userSpaceOnUse"><path
         style="clip-rule:evenodd"
         id="path208"
         d="m 267.61087,1538.6899 h 450.4072 v 300.4869 h -450.4072 z" /></clipPath><clipPath
       id="clipPath222"
       clipPathUnits="userSpaceOnUse"><path
         style="clip-rule:evenodd"
         id="path220"
         d="M 0,0 H 958.33331 V 2041.1256 H 0 Z" /></clipPath><clipPath
       id="clipPath244"
       clipPathUnits="userSpaceOnUse"><path
         style="clip-rule:evenodd"
         id="path242"
         d="m 267.61087,646.6908 h 450.4072 v 300.48688 h -450.4072 z" /></clipPath><clipPath
       id="clipPath258"
       clipPathUnits="userSpaceOnUse"><path
         style="clip-rule:evenodd"
         id="path256"
         d="M 0,0 H 958.33331 V 2041.1256 H 0 Z" /></clipPath><clipPath
       id="clipPath284"
       clipPathUnits="userSpaceOnUse"><path
         style="clip-rule:evenodd"
         id="path282"
         d="m 267.61087,1030.8113 h 450.4072 v 300.4868 h -450.4072 z" /></clipPath><clipPath
       id="clipPath298"
       clipPathUnits="userSpaceOnUse"><path
         style="clip-rule:evenodd"
         id="path296"
         d="M 0,0 H 958.33331 V 2041.1256 H 0 Z" /></clipPath><clipPath
       id="clipPath320"
       clipPathUnits="userSpaceOnUse"><path
         id="path318"
         d="M 0,0 H 958.33331 V 2047.3485 H 0 Z" /></clipPath><clipPath
       id="clipPath326"
       clipPathUnits="userSpaceOnUse"><path
         id="path324"
         d="M 0,0 H 958.33331 V 2041.1256 H 0 Z" /></clipPath><clipPath
       id="clipPath332"
       clipPathUnits="userSpaceOnUse"><path
         id="path330"
         d="M 489.80038,944.16473 H 957.30297 V 1936.2454 H 489.80038 Z" /></clipPath><clipPath
       id="clipPath338"
       clipPathUnits="userSpaceOnUse"><path
         style="clip-rule:evenodd"
         id="path336"
         d="m 489.80038,967.84772 h 57.3068 v 33.11958 h -57.3068 m 0,-56.80257 H 956.68469 V 1935.1165 H 489.80038" /></clipPath><clipPath
       id="clipPath350"
       clipPathUnits="userSpaceOnUse"><path
         style="clip-rule:evenodd"
         id="path348"
         d="M 0,0 H 958.33331 V 2041.1256 H 0 Z" /></clipPath></defs><g
     transform="matrix(0.31999998,0,0,0.31999998,0,1.64e-5)"
     id="g10"><g
       id="g12"><g
         clip-path="url(#clipPath18)"
         id="g14"><g
           transform="scale(3.1114719)"
           id="g20"><path
             id="path22"
             style="fill:#ffffff;fill-opacity:1;fill-rule:nonzero;stroke:none"
             d="M 0,0 H 308 V 658 H 0 Z" /></g></g></g><g
       id="g24"><g
         clip-path="url(#clipPath30)"
         id="g26"><g
           transform="scale(3.1157396,3.1102867)"
           id="g32"><path
             id="path34"
             style="fill:#f2f2f2;fill-opacity:1;fill-rule:nonzero;stroke:none"
             d="M 0,0 H 307.57813 V 656.25 H 0 Z" /></g></g></g><g
       id="g36"><g
         clip-path="url(#clipPath42)"
         id="g38"><g
           transform="matrix(1.5080621,0,0,1.5054297,-12.494117,-14.867168)"
           id="g44"><path
             id="path46"
             style="fill:#ffffff;fill-opacity:1;fill-rule:nonzero;stroke:none"
             d="M 0,0 H 660.3147 V 1378.7033 H 0 Z" /></g></g></g><g
       id="g48"><g
         clip-path="url(#clipPath54)"
         id="g50"><g
           transform="matrix(1.9389508,0,0,1.9355572,59.822201,1918.8604)"
           id="g56"><text
             id="text60"
             style="font-variant:normal;font-weight:bold;font-size:14px;font-family:OpenSans;-inkscape-font-specification:OpenSans-Bold;writing-mode:lr-tb;fill:#1a1a1a;fill-opacity:1;fill-rule:nonzero;stroke:none"
             transform="translate(0,14)"><tspan
               id="tspan58"
               y="0"
               x="0 8.9208984 17.588867 31.335938 40.195312 48.863281 58.064453 66.335938 75.537109 81.614258 85.250977 95.614258 99.886719 108.34277 116.25195 122.60938 131.06543 144.8125 148.44922 153.87012 162.53809 168.89551 172.53223 181.45312 185.72559 193.99707 202.45312 208.81055 217.90918 222.18164 230.45312 242.43652 246.07324 253.78418 261.74805 268.70703 274.78418 283.05566 296.80273 300.43945 304.94434 308.58105 316.29199 325.49316 331.85059 339.81445 348.08594 356.0498 359.68652 367.37012 376.57129 385.77246 392.9707 399.04785 403.32031 411.98828 421.18945">Component Diagram for ClearView System - Survey Functions</tspan></text>
</g><g
           transform="matrix(1.508073,0,0,1.5054336,59.822201,1957.5834)"
           id="g62"><text
             id="text66"
             style="font-variant:normal;font-weight:bold;font-size:14px;font-family:OpenSans;-inkscape-font-specification:OpenSans-Bold;writing-mode:lr-tb;fill:#646464;fill-opacity:1;fill-rule:nonzero;stroke:none"
             transform="translate(0,14)"><tspan
               id="tspan64"
               y="0"
               x="0 8.1074219 17.308594 25.580078 29.216797 36.415039 45.083008 58.830078 67.689453 76.357422 85.558594 93.830078 103.03125 109.1084 112.74512 121.60449 125.87695 134.33301 142.24219 148.59961 157.05566 170.80273 174.43945 179.86035 188.52832 194.88574 198.52246 204.59961 213.80078 222.07227 225.70898 233.41992 242.62109 248.97852 256.94238 265.21387 273.17773 276.81445 284.49805 293.69922 302.90039 310.09863 316.17578 320.44824 329.11621 338.31738">The component diagram for the Survey Functions</tspan></text>
</g></g></g><g
       id="g68"><g
         clip-path="url(#clipPath74)"
         id="g70"><g
           transform="matrix(1.508073,0,0,1.5054336,213.61511,602.33813)"
           id="g76"><path
             id="path78"
             style="fill:#646464;fill-opacity:1;fill-rule:nonzero;stroke:none"
             d="m 16,-2 h 8 v 4 h -8 z m 16,0 h 8 v 4 h -8 z m 16,0 h 8 v 4 h -8 z m 16,0 h 8 v 4 h -8 z m 16,0 h 8 v 4 h -8 z m 16,0 h 8 v 4 h -8 z m 16,0 h 8 v 4 h -8 z m 16,0 h 8 v 4 h -8 z m 16,0 h 8 v 4 h -8 z m 16,0 h 8 v 4 h -8 z m 16,0 h 8 v 4 h -8 z m 16,0 h 8 v 4 h -8 z m 16,0 h 8 v 4 h -8 z m 16,0 h 7.99998 V 2 H 224 Z m 16,0 h 7.99998 V 2 H 240 Z m 16,0 h 8 v 4 h -8 z m 16,0 h 8 v 4 h -8 z m 16,0 h 8 v 4 h -8 z m 16,0 h 8 v 4 h -8 z m 16,0 h 8 v 4 h -8 z m 16,0 h 8 v 4 h -8 z m 16,0 h 8 v 4 h -8 z m 16,0 h 8 v 4 h -8 z m 16,0 h 8 v 4 h -8 z m 17.76505,2.23495483 V 8.2349548 h -4 V 0.23495483 Z m 0,16.00000017 v 8 h -4 v -8 z m 0,16 v 8 h -4 v -8 z m 0,16 v 7.999996 h -4 v -7.999996 z m 0,16 v 8 h -4 v -8 z m 0,16 v 7.999992 h -4 v -7.999992 z m 0,16 v 8.000005 h -4 v -8.000005 z m 0,16.000005 v 8 h -4 v -8 z m 0,15.99999 v 8 h -4 v -8 z m 0,16 v 8.00002 h -4 v -8.00002 z m 0,16 v 8 h -4 v -8 z m 0,16 v 8 h -4 v -8 z m 0,16 v 8 h -4 v -8 z m 0,16 v 8 h -4 v -8 z m 0,16.00002 v 7.99998 h -4 v -7.99998 z m 0,15.99998 v 8 h -4 v -8 z m 0,16 v 8 h -4 v -8 z m 0,16 v 8 h -4 v -8 z m 0,16 v 8 h -4 v -8 z m 0,16 v 8 h -4 v -8 z m 0,16 v 8 h -4 v -8 z m 0,16 v 8 h -4 v -8 z m 0,16.00004 v 7.99996 h -4 v -7.99996 z m 0,15.99996 v 8 h -4 v -8 z m 0,16 v 8 h -4 v -8 z m 0,16 v 8 h -4 v -8 z m 0,16 v 8.00004 h -4 v -8.00004 z m 0,16 v 8 h -4 v -8 z m 0,16 v 8 h -4 v -8 z m 0,16 v 8 h -4 v -8 z m 0,16 v 8 h -4 v -8 z m 0,16 v 7.99997 h -4 v -7.99997 z m 0,16.00004 v 8 h -4 v -8 z m 0,16 v 8 h -4 v -8 z m 0,16 v 8 h -4 v -8 z m 0,16 v 8 h -4 v -8 z m -8.9535,11.0465 h -8 v -4 h 8 z m -16,0 h -8 v -4 h 8 z m -16,0 h -8 v -4 h 8 z m -16,0 h -8 v -4 h 8 z m -16,0 h -8 v -4 h 8 z m -16,0 h -8 v -4 h 8 z m -16,0 h -8 v -4 h 8 z m -16.00003,0 h -8 v -4 h 8 z m -16,0 h -8 v -4 h 8 z m -15.99998,0 h -8 v -4 h 8 z m -16,0 h -8 v -4 h 8 z m -16,0 h -8 v -4 h 8 z m -16,0 h -8 v -4 h 8 z m -15.99999,0 h -8.00001 v -4 h 8.00001 z m -16.00003,0 h -7.99998 v -4 h 7.99998 z m -16,0 h -7.99998 v -4 h 7.99998 z m -16,0 h -7.99997 v -4 h 7.99997 z m -16,0 h -7.99997 v -4 h 7.99997 z m -16,0 h -7.999997 v -4 h 7.999997 z m -15.999997,0 h -8 v -4 h 8 z m -16,0 h -8 v -4 h 8 z m -16,0 h -8 v -4 h 8 z m -16,0 h -8 v -4 h 8 z m -16,0 h -8 v -4 h 8 z m -15.9999996,0 H 0.81152344 v -4 H 8.8115234 Z M -2,562.09302 v -8 h 4 v 8 z m 0,-16 v -8 h 4 v 8 z m 0,-16 v -8 h 4 v 8 z m 0,-16 v -8 h 4 v 8 z m 0,-16 v -8 h 4 v 8 z m 0,-16 v -8 h 4 v 8 z m 0,-16 v -8 h 4 v 8 z m 0,-16 v -8 h 4 v 8 z m 0,-16 v -8 h 4 v 8 z m 0,-16 v -8 h 4 v 8 z m 0,-16 v -8 h 4 v 8 z m 0,-16 v -8 h 4 v 8 z m 0,-16 v -8 h 4 v 8 z m 0,-16 v -8 h 4 v 8 z m 0,-16 v -8 h 4 v 8 z m 0,-16 v -8 h 4 v 8 z m 0,-16 v -8 h 4 v 8 z m 0,-16 v -8 h 4 v 8 z m 0,-16 v -8 h 4 v 8 z m 0,-15.99997 v -8.00003 h 4 v 8.00003 z m 0,-16.00003 v -8 h 4 v 8 z m 0,-16 v -8 h 4 v 8 z m 0,-16 v -8 h 4 v 8 z m 0,-16 v -7.99997 h 4 v 7.99997 z m 0,-16 v -8 h 4 v 8 z m 0,-16 v -8 h 4 v 8 z m 0,-16 v -8 h 4 v 8 z m 0,-16 v -8 h 4 v 8 z m 0,-15.99997 v -8.00003 h 4 v 8.00003 z m 0,-16.000032 v -8 h 4 v 8 z m 0,-16 v -8 h 4 v 8 z m 0,-16 v -8 h 4 v 8 z m 0,-16 v -8 h 4 v 8 z m 0,-16 v -8 h 4 v 8 z m 0,-16 v -8 h 4 v 8 z M -2,2.0930176 V -2 H 8 V 2 H 0 V 0 h 2 v 2.0930176 z" /></g></g></g><g
       id="g80"><g
         clip-path="url(#clipPath86)"
         id="g82"><g
           transform="matrix(1.508073,0,0,1.5054336,243.75885,632.42914)"
           id="g88"><text
             id="text92"
             style="font-variant:normal;font-weight:normal;font-size:14px;font-family:OpenSans;-inkscape-font-specification:OpenSans-Regular;writing-mode:lr-tb;fill:#1a1a1a;fill-opacity:1;fill-rule:nonzero;stroke:none"
             transform="translate(0,503.30499)"><tspan
               id="tspan90"
               y="0"
               x="0 7.6835938 16.276367 21.991211 29.004883 36.859375 43.914062 47.550781 54.776367 63.369141 71.961914 78.626953 83.569336 87.110352 95.566406">Survey Function</tspan></text>
<text
             id="text96"
             style="font-variant:normal;font-weight:normal;font-size:14px;font-family:OpenSans;-inkscape-font-specification:OpenSans-Regular;writing-mode:lr-tb;fill:#1a1a1a;fill-opacity:1;fill-rule:nonzero;stroke:none"
             transform="translate(0,523.30499)"><tspan
               id="tspan94"
               y="0"
               x="0 8.8320312 17.288086 25.880859 30.823242 38.609375 42.150391 50.743164 58.597656 64.3125 68.038086 71.674805 80.506836 89.550781 93.1875 100.97363 109.56641 118.14551 121.78223 130.6416 143.60254 151.28613 154.92285 162.18945 169.97559 182.99805 191.57715 200.15625">Container: C# and AWS Lambda</tspan></text>
</g></g></g><g
       id="g98"><g
         clip-path="url(#clipPath104)"
         id="g100"><g
           clip-path="url(#clipPath110)"
           id="g106"><g
             clip-path="url(#clipPath116)"
             id="g112"><g
               clip-path="url(#clipPath122)"
               id="g118"><g
                 transform="matrix(0,-1.5054336,1.508073,0,258.0593,308.47342)"
                 id="g124"><path
                   id="path126"
                   style="fill:#438cd4;fill-opacity:1;fill-rule:evenodd;stroke:none"
                   d="M 0,15 C 0,-5 85.541611,-5 85.541611,15 v 281.34247 c 0,20 -85.541611,20 -85.541611,0 z" /><path
                   id="path128"
                   style="fill:none;stroke:#1a1a1a;stroke-width:1;stroke-linecap:butt;stroke-linejoin:miter;stroke-miterlimit:10;stroke-dasharray:none;stroke-opacity:1"
                   d="M 0,15 C 0,-5 85.541611,-5 85.541611,15 v 281.34247 c 0,20 -85.541611,20 -85.541611,0 z" /></g></g></g></g></g></g><g
       id="g130"><g
         clip-path="url(#clipPath136)"
         id="g132"><g
           clip-path="url(#clipPath142)"
           id="g138"><g
             clip-path="url(#clipPath148)"
             id="g144"><g
               transform="matrix(0,-1.5054336,1.508073,0,258.0593,308.47342)"
               id="g150"><path
                 id="path152"
                 style="fill:none;stroke:#1a1a1a;stroke-width:1;stroke-linecap:butt;stroke-linejoin:miter;stroke-miterlimit:10;stroke-dasharray:none;stroke-opacity:1"
                 d="m 1,14.666667 c 0,20.000001 83.541611,20.000001 83.541611,0" /></g></g></g></g></g><g
       id="g154"><g
         clip-path="url(#clipPath160)"
         id="g156"><g
           transform="matrix(2.2236061,0,0,2.2197144,93.970711,199.12054)"
           id="g162"><text
             id="text166"
             style="font-variant:normal;font-weight:bold;font-size:14px;font-family:OpenSans;-inkscape-font-specification:OpenSans-Bold;writing-mode:lr-tb;fill:#ffffff;fill-opacity:1;fill-rule:nonzero;stroke:none"
             transform="translate(128.87041,14)"><tspan
               id="tspan164"
               y="0"
               x="0 13.200195 21.47168 28.430664 35.389648 43.845703 51.754883 60.026367 63.663086 73.069336 79.426758 88.094727 96.776367 105.04785">Message Broker</tspan></text>
<text
             id="text170"
             style="font-variant:normal;font-weight:normal;font-size:14px;font-family:OpenSans;-inkscape-font-specification:OpenSans-Regular;writing-mode:lr-tb;fill:#ffffff;fill-opacity:1;fill-rule:nonzero;stroke:none"
             transform="translate(113.61943,34)"><tspan
               id="tspan168"
               y="0"
               x="0 4.6074219 13.439453 21.895508 30.488281 35.430664 43.216797 46.757812 55.350586 63.205078 68.919922 72.645508 76.282227 84.936523 92.722656 101.30176 109.88086 113.42188 118.36426 131.00391">[Container: RabbitMQ</tspan></text>
</g></g></g><g
       id="g172"><g
         clip-path="url(#clipPath178)"
         id="g174"><g
           clip-path="url(#clipPath184)"
           id="g180"><g
             clip-path="url(#clipPath190)"
             id="g186"><g
               clip-path="url(#clipPath196)"
               id="g192"><g
                 transform="matrix(1.508073,0,0,1.5054336,267.61087,1538.6899)"
                 id="g198"><path
                   id="path200"
                   style="fill:#438cd4;fill-opacity:1;fill-rule:evenodd;stroke:none"
                   d="M 0,15 C 0,-5 298.66406,-5 298.66406,15 v 169.60156 c 0,20 -298.66406,20 -298.66406,0 z" /><path
                   id="path202"
                   style="fill:none;stroke:#1a1a1a;stroke-width:1;stroke-linecap:butt;stroke-linejoin:miter;stroke-miterlimit:10;stroke-dasharray:none;stroke-opacity:1"
                   d="M 0,15 C 0,-5 298.66406,-5 298.66406,15 v 169.60156 c 0,20 -298.66406,20 -298.66406,0 z" /></g></g></g></g></g></g><g
       id="g204"><g
         clip-path="url(#clipPath210)"
         id="g206"><g
           transform="matrix(1.508073,0,0,1.5054336,267.61087,1538.6899)"
           id="g212"><path
             id="path214"
             style="fill:none;stroke:#1a1a1a;stroke-width:1;stroke-linecap:butt;stroke-linejoin:miter;stroke-miterlimit:10;stroke-dasharray:none;stroke-opacity:1"
             d="m 1,14.666667 c 0,20.000001 296.66406,20.000001 296.66406,0" /></g></g></g><g
       id="g216"><g
         clip-path="url(#clipPath222)"
         id="g218"><g
           transform="matrix(1.508073,0,0,1.5054336,290.13126,1553.7142)"
           id="g224"><text
             id="text228"
             style="font-variant:normal;font-weight:bold;font-size:14px;font-family:OpenSans;-inkscape-font-specification:OpenSans-Bold;writing-mode:lr-tb;fill:#ffffff;fill-opacity:1;fill-rule:nonzero;stroke:none"
             transform="translate(101.44961,63.820702)"><tspan
               id="tspan226"
               y="0"
               x="0 10.363281 18.819336 24.896484 33.352539 42.211914 50.667969 57.626953">Database</tspan></text>
<text
             id="text232"
             style="font-variant:normal;font-weight:normal;font-size:14px;font-family:OpenSans;-inkscape-font-specification:OpenSans-Regular;writing-mode:lr-tb;fill:#ffffff;fill-opacity:1;fill-rule:nonzero;stroke:none"
             transform="translate(5.4935546,83.820702)"><tspan
               id="tspan230"
               y="0"
               x="0 4.6074219 13.439453 21.895508 30.488281 35.430664 43.216797 46.757812 55.350586 63.205078 68.919922 72.645508 76.282227 84.710938 93.166992 99.845703 104.78809 112.45801 118.17285 126.02734 132.70605 136.34277 146.54883 154.33496 159.27734 167.06348 175.64258 183.42871 190.10742 197.96191 201.59863 209.28223 215.94727 224.54004 232.39453 245.41699 253.20312">[Container: Postgres Database Schema]</tspan></text>
<text
             id="text236"
             style="font-variant:normal;font-weight:normal;font-size:14px;font-family:OpenSans;-inkscape-font-specification:OpenSans-Regular;writing-mode:lr-tb;fill:#ffffff;fill-opacity:1;fill-rule:nonzero;stroke:none"
             transform="translate(26.849024,123.8207)"><tspan
               id="tspan234"
               y="0"
               x="0 7.6835938 12.625977 21.082031 26.796875 34.651367 41.330078 44.966797 50.681641 58.536133 62.077148 69.863281 74.805664 78.34668 86.802734 95.395508 103.18164 106.72266 110.35938 118.14551 126.72461 135.30371 138.84473 142.38574 149.05078 156.83691 161.7793 165.32031 173.77637 182.36914 186.00586 194.58496 202.37109 207.31348">Stores relational application data</tspan></text>
</g></g></g><g
       id="g238"><g
         clip-path="url(#clipPath244)"
         id="g240"><g
           transform="matrix(1.508073,0,0,1.5054336,267.61087,646.6908)"
           id="g246"><path
             id="path248"
             style="fill:#85bbef;fill-opacity:1;fill-rule:nonzero;stroke:none"
             d="M 0,0 H 298.66406 V 199.60156 H 0 Z" /><path
             id="path250"
             style="fill:none;stroke:#89b3de;stroke-width:1;stroke-linecap:butt;stroke-linejoin:miter;stroke-miterlimit:10;stroke-dasharray:none;stroke-opacity:1"
             d="M 0,0 H 298.66406 V 199.60156 H 0 Z" /></g></g></g><g
       id="g252"><g
         clip-path="url(#clipPath258)"
         id="g254"><g
           transform="matrix(1.508073,0,0,1.5054336,282.66156,661.71515)"
           id="g260"><text
             id="text264"
             style="font-variant:normal;font-weight:bold;font-size:14px;font-family:OpenSans;-inkscape-font-specification:OpenSans-Bold;writing-mode:lr-tb;fill:#1a1a1a;fill-opacity:1;fill-rule:nonzero;stroke:none"
             transform="translate(90.963768,83.820702)"><tspan
               id="tspan262"
               y="0"
               x="0 7.7109375 16.912109 23.269531 31.233398 39.504883 47.46875 51.105469 60.402344 68.673828 75.03125 84.232422 92.503906">Survey Kernel</tspan></text>
<text
             id="text268"
             style="font-variant:normal;font-weight:normal;font-size:14px;font-family:OpenSans;-inkscape-font-specification:OpenSans-Regular;writing-mode:lr-tb;fill:#1a1a1a;fill-opacity:1;fill-rule:nonzero;stroke:none"
             transform="translate(46.663475,103.8207)"><tspan
               id="tspan266"
               y="0"
               x="0 7.2666016 10.807617 17.486328 22.428711 30.283203 38.875977 45.554688 49.191406 53.935547 62.391602 68.106445 71.743164 78.421875 87.014648 92.729492 99.743164 107.59766 114.65234 118.28906 124.00391 131.8584 138.53711 147.11621 155.57227 164.16504 170.84375 178.69824">Listens for survey responses</tspan></text>
</g><g
           transform="matrix(1.508073,0,0,1.5054336,492.81653,308.47824)"
           id="g270"><path
             id="path272"
             style="fill:#646464;fill-opacity:1;fill-rule:nonzero;stroke:none"
             d="m -0.99999994,224.66583 v -8 h 1.99999988 v 8 m -1.99999988,-16 v -8 h 1.99999988 v 8 m -1.99999988,-16 v -8 h 1.99999988 v 8 m -1.99999988,-16 v -8 h 1.99999988 v 8 m -1.99999988,-16 v -8 h 1.99999988 v 8 m -1.99999988,-16 v -8 h 1.99999988 v 8 m -1.99999988,-16 v -7.99999 h 1.99999988 v 7.99999 m -1.99999988,-15.99999 v -8 h 1.99999988 v 8 m -1.99999988,-16 V 88.665848 H 0.99999994 V 96.66584 M -0.99999994,80.665848 v -8 h 1.99999988 v 8 m -1.99999988,-16 v -8 h 1.99999988 v 8 m -1.99999988,-16 v -8 h 1.99999988 v 8 m -1.99999988,-16 v -8 h 1.99999988 v 8 m -1.99999988,-16 v -1.538559 h 1.99999988 v 1.538559" /></g><g
           transform="matrix(0,-1.5054336,1.508073,0,492.81653,308.47824)"
           id="g274"><path
             id="path276"
             style="fill:#646464;fill-opacity:1;fill-rule:nonzero;stroke:none"
             d="M -18.90909,-5.818182 0,0 -18.90909,5.818182 Z" /></g></g></g><g
       id="g278"><g
         clip-path="url(#clipPath284)"
         id="g280"><g
           transform="matrix(1.508073,0,0,1.5054336,267.61087,1030.8113)"
           id="g286"><path
             id="path288"
             style="fill:#85bbef;fill-opacity:1;fill-rule:nonzero;stroke:none"
             d="M 0,0 H 298.66406 V 199.60156 H 0 Z" /><path
             id="path290"
             style="fill:none;stroke:#89b3de;stroke-width:1;stroke-linecap:butt;stroke-linejoin:miter;stroke-miterlimit:10;stroke-dasharray:none;stroke-opacity:1"
             d="M 0,0 H 298.66406 V 199.60156 H 0 Z" /></g></g></g><g
       id="g292"><g
         clip-path="url(#clipPath298)"
         id="g294"><g
           transform="matrix(1.508073,0,0,1.5054336,282.66156,1045.8356)"
           id="g300"><text
             id="text304"
             style="font-variant:normal;font-weight:bold;font-size:14px;font-family:OpenSans;-inkscape-font-specification:OpenSans-Bold;writing-mode:lr-tb;fill:#1a1a1a;fill-opacity:1;fill-rule:nonzero;stroke:none"
             transform="translate(77.951561,73.820702)"><tspan
               id="tspan302"
               y="0"
               x="0 7.7109375 16.912109 23.269531 31.233398 39.504883 47.46875 51.105469 58.789062 67.457031 73.814453 87.561523 96.017578 102.09473 108.17188 116.44336">Survey Formatter</tspan></text>
<text
             id="text308"
             style="font-variant:normal;font-weight:normal;font-size:14px;font-family:OpenSans;-inkscape-font-specification:OpenSans-Regular;writing-mode:lr-tb;fill:#1a1a1a;fill-opacity:1;fill-rule:nonzero;stroke:none"
             transform="translate(7.555078,93.820702)"><tspan
               id="tspan306"
               y="0"
               x="0 8.4287109 14.143555 21.998047 30.577148 38.363281 44.078125 51.932617 58.611328 62.248047 69.931641 78.524414 84.239258 91.25293 99.107422 106.16211 109.79883 118.37793 126.16406 131.10645 138.89258 142.5293 147.27344 155.72949 161.44434 165.08105 171.75977 176.70215 185.1582 190.87305 194.41406 203.00684 210.67676 214.31348 217.85449 222.79688 226.43359 229.97461 238.56738 242.2041 247.14648 255.73926 263.59375">Prepares Survey data for storing it in the </tspan></text>
<text
             id="text312"
             style="font-variant:normal;font-weight:normal;font-size:14px;font-family:OpenSans;-inkscape-font-specification:OpenSans-Regular;writing-mode:lr-tb;fill:#1a1a1a;fill-opacity:1;fill-rule:nonzero;stroke:none"
             transform="translate(109.35586,113.8207)"><tspan
               id="tspan310"
               y="0"
               x="0 8.5791016 16.365234 21.307617 29.09375 37.672852 45.458984 52.137695">database</tspan></text>
</g></g></g><g
       id="g314"><g
         clip-path="url(#clipPath320)"
         id="g316"><g
           clip-path="url(#clipPath326)"
           id="g322"><g
             clip-path="url(#clipPath332)"
             id="g328"><g
               clip-path="url(#clipPath338)"
               id="g334"><g
                 transform="matrix(1.508073,0,0,1.5054336,492.81653,947.1756)"
                 id="g340"><path
                   id="path342"
                   style="fill:#646464;fill-opacity:1;fill-rule:nonzero;stroke:none"
                   d="M 1,0 V 7.9999995 H -1 V 0 Z M 1,15.999999 V 24 H -1 V 15.999999 Z M 1,32 v 8 h -2 v -8 z" /></g></g></g></g></g></g><g
       id="g344"><g
         clip-path="url(#clipPath350)"
         id="g346"><g
           transform="matrix(0,1.5054336,-1.508073,0,492.81653,1030.7886)"
           id="g352"><path
             id="path354"
             style="fill:#646464;fill-opacity:1;fill-rule:nonzero;stroke:none"
             d="M -18.90909,-5.818182 0,0 -18.90909,5.818182 Z" /></g><g
           transform="matrix(1.508073,0,0,1.5054336,438.52591,970.85864)"
           id="g356"><text
             id="text360"
             style="font-variant:normal;font-weight:normal;font-size:14px;font-family:OpenSans;-inkscape-font-specification:OpenSans-Regular;writing-mode:lr-tb;fill:#646464;fill-opacity:1;fill-rule:nonzero;stroke:none"
             transform="translate(0.44287109,14)"><tspan
               id="tspan358"
               y="0"
               x="0 6.6787109 14.533203 23.125977 31.705078 38.383789 42.020508 50.599609 58.385742 63.328125">sends data</tspan></text>
</g><g
           transform="matrix(1.508073,0,0,1.5054336,492.81653,1331.296)"
           id="g362"><path
             id="path364"
             style="fill:#646464;fill-opacity:1;fill-rule:nonzero;stroke:none"
             d="M 1,0 V 8 H -1 V 0 m 2,16 v 8 h -2 v -8 m 2,16 v 8 h -2 v -8 m 2,16 v 8 h -2 v -8 m 2,16 v 8 h -2 v -8 m 2,16 v 8 h -2 v -8 m 2,16 v 8 h -2 v -8 m 2,16 v 8 h -2 v -8" /></g><g
           transform="matrix(0,1.5054336,-1.508073,0,492.81653,1538.6832)"
           id="g366"><path
             id="path368"
             style="fill:#646464;fill-opacity:1;fill-rule:nonzero;stroke:none"
             d="M -18.90909,-5.818182 0,0 -18.90909,5.818182 Z" /></g></g></g></g></svg>